solid OpenSCAD_Model
  facet normal 0.707107 0.707107 0
    outer loop
      vertex 7.5 7 86
      vertex 7 7.5 0
      vertex 7 7.5 86
    endloop
  endfacet
  facet normal 0.707107 0.707107 0
    outer loop
      vertex 7 7.5 0
      vertex 7.5 7 86
      vertex 7.5 7 0
    endloop
  endfacet
  facet normal -0.707107 0.707107 0
    outer loop
      vertex -7.5 7 0
      vertex -7 7.5 86
      vertex -7 7.5 0
    endloop
  endfacet
  facet normal -0.707107 0.707107 0
    outer loop
      vertex -7 7.5 86
      vertex -7.5 7 0
      vertex -7.5 7 86
    endloop
  endfacet
  facet normal -0.707107 -0.707107 0
    outer loop
      vertex -7 -7.5 0
      vertex -7.5 -7 86
      vertex -7.5 -7 0
    endloop
  endfacet
  facet normal -0.707107 -0.707107 0
    outer loop
      vertex -7.5 -7 86
      vertex -7 -7.5 0
      vertex -7 -7.5 86
    endloop
  endfacet
  facet normal 0.707107 -0.707107 0
    outer loop
      vertex 7 -7.5 86
      vertex 7.5 -7 0
      vertex 7.5 -7 86
    endloop
  endfacet
  facet normal 0.707107 -0.707107 0
    outer loop
      vertex 7.5 -7 0
      vertex 7 -7.5 86
      vertex 7 -7.5 0
    endloop
  endfacet
  facet normal 1 -0 0
    outer loop
      vertex 7.5 -7 86
      vertex 7.5 -1.5 0
      vertex 7.5 -1.5 86
    endloop
  endfacet
  facet normal 1 0 0
    outer loop
      vertex 7.5 -1.5 0
      vertex 7.5 -7 86
      vertex 7.5 -7 0
    endloop
  endfacet
  facet normal 1 -0 0
    outer loop
      vertex 7.5 1.5 86
      vertex 7.5 7 0
      vertex 7.5 7 86
    endloop
  endfacet
  facet normal 1 0 0
    outer loop
      vertex 7.5 7 0
      vertex 7.5 1.5 86
      vertex 7.5 1.5 0
    endloop
  endfacet
  facet normal 0 0 1
    outer loop
      vertex -1.5 7.5 86
      vertex -1.73205 6.425 86
      vertex -1.5 6.75 86
    endloop
  endfacet
  facet normal -0 0 1
    outer loop
      vertex -7 7.5 86
      vertex -1.73205 6.425 86
      vertex -1.5 7.5 86
    endloop
  endfacet
  facet normal 0 0 1
    outer loop
      vertex -7 7.5 86
      vertex -1.98904 5.21594 86
      vertex -1.98904 5.63406 86
    endloop
  endfacet
  facet normal 0 0 1
    outer loop
      vertex -1.98904 5.21594 86
      vertex -4.80697 1.90211 86
      vertex -2 2.5 86
    endloop
  endfacet
  facet normal 0 0 1
    outer loop
      vertex -2.5 2 86
      vertex -3.425 0 86
      vertex -2.5 -2 86
    endloop
  endfacet
  facet normal 0 -0 1
    outer loop
      vertex -4.425 1.73205 86
      vertex -2 2.5 86
      vertex -4.80697 1.90211 86
    endloop
  endfacet
  facet normal 0 0 1
    outer loop
      vertex -7 7.5 86
      vertex -1.98904 5.63406 86
      vertex -1.90211 6.04303 86
    endloop
  endfacet
  facet normal 0 0 1
    outer loop
      vertex -2.5 2 86
      vertex -3.43596 0.104245 86
      vertex -3.425 0 86
    endloop
  endfacet
  facet normal 0 0 1
    outer loop
      vertex -2.5 2 86
      vertex -3.46871 0.415823 86
      vertex -3.43596 0.104245 86
    endloop
  endfacet
  facet normal 0 0 1
    outer loop
      vertex -1.73205 6.425 86
      vertex -7 7.5 86
      vertex -1.90211 6.04303 86
    endloop
  endfacet
  facet normal 0 0 1
    outer loop
      vertex -2.5 2 86
      vertex -3.59791 0.813473 86
      vertex -3.46871 0.415823 86
    endloop
  endfacet
  facet normal 0 0 1
    outer loop
      vertex -2.5 2 86
      vertex -3.80697 1.17557 86
      vertex -3.59791 0.813473 86
    endloop
  endfacet
  facet normal 0 0 1
    outer loop
      vertex -2.5 2 86
      vertex -4.08674 1.48629 86
      vertex -3.80697 1.17557 86
    endloop
  endfacet
  facet normal 0 0 1
    outer loop
      vertex -2.5 2 86
      vertex -4.425 1.73205 86
      vertex -4.08674 1.48629 86
    endloop
  endfacet
  facet normal 0 0 1
    outer loop
      vertex -2 2.5 86
      vertex -4.425 1.73205 86
      vertex -2.5 2 86
    endloop
  endfacet
  facet normal 0 0 1
    outer loop
      vertex -1.98904 5.21594 86
      vertex -7 7.5 86
      vertex -5.21594 1.98904 86
    endloop
  endfacet
  facet normal 0 0 1
    outer loop
      vertex -1.98904 5.21594 86
      vertex -5.21594 1.98904 86
      vertex -4.80697 1.90211 86
    endloop
  endfacet
  facet normal -0 0 1
    outer loop
      vertex -7.5 7 86
      vertex -5.21594 1.98904 86
      vertex -7 7.5 86
    endloop
  endfacet
  facet normal 0 0 1
    outer loop
      vertex -5.21594 1.98904 86
      vertex -7.5 7 86
      vertex -5.63406 1.98904 86
    endloop
  endfacet
  facet normal 0 0 1
    outer loop
      vertex -5.63406 1.98904 86
      vertex -7.5 7 86
      vertex -6.04303 1.90211 86
    endloop
  endfacet
  facet normal 0 0 1
    outer loop
      vertex -6.04303 1.90211 86
      vertex -7.5 7 86
      vertex -6.425 1.73205 86
    endloop
  endfacet
  facet normal 0 0 1
    outer loop
      vertex -7.5 1.5 86
      vertex -6.425 1.73205 86
      vertex -7.5 7 86
    endloop
  endfacet
  facet normal 0 0 1
    outer loop
      vertex -6.425 1.73205 86
      vertex -7.5 1.5 86
      vertex -6.75 1.5 86
    endloop
  endfacet
  facet normal 0 0 1
    outer loop
      vertex -1.49592 6.75 86
      vertex -1.5 6.75 86
      vertex -1.73205 6.425 86
    endloop
  endfacet
  facet normal 0 0 1
    outer loop
      vertex 1.73205 -6.425 86
      vertex 1.49592 -6.75 86
      vertex 1.5 -6.75 86
    endloop
  endfacet
  facet normal 0 0 1
    outer loop
      vertex 4.80697 -1.90211 86
      vertex 1.90211 -4.80697 86
      vertex 1.98904 -5.21594 86
    endloop
  endfacet
  facet normal 0 0 1
    outer loop
      vertex 4.425 -1.73205 86
      vertex 1.73205 -4.425 86
      vertex 1.90211 -4.80697 86
    endloop
  endfacet
  facet normal 0 0 1
    outer loop
      vertex 2 -2.5 86
      vertex 1.48629 -4.08674 86
      vertex 1.73205 -4.425 86
    endloop
  endfacet
  facet normal 0 0 1
    outer loop
      vertex 2 -2.5 86
      vertex 1.17557 -3.80697 86
      vertex 1.48629 -4.08674 86
    endloop
  endfacet
  facet normal 0 0 1
    outer loop
      vertex 2 -2.5 86
      vertex 0.813473 -3.59791 86
      vertex 1.17557 -3.80697 86
    endloop
  endfacet
  facet normal 0 0 1
    outer loop
      vertex 2 -2.5 86
      vertex 0.415823 -3.46871 86
      vertex 0.813473 -3.59791 86
    endloop
  endfacet
  facet normal 0 0 1
    outer loop
      vertex 2 -2.5 86
      vertex 0.104245 -3.43596 86
      vertex 0.415823 -3.46871 86
    endloop
  endfacet
  facet normal 0 0 1
    outer loop
      vertex 2 -2.5 86
      vertex 0 -3.425 86
      vertex 0.104245 -3.43596 86
    endloop
  endfacet
  facet normal -0 0 1
    outer loop
      vertex -2 -2.5 86
      vertex 0 -3.425 86
      vertex 2 -2.5 86
    endloop
  endfacet
  facet normal 0 0 1
    outer loop
      vertex 0 -3.425 86
      vertex -2 -2.5 86
      vertex -0.104245 -3.43596 86
    endloop
  endfacet
  facet normal 0 0 1
    outer loop
      vertex -0.104245 -3.43596 86
      vertex -2 -2.5 86
      vertex -0.415823 -3.46871 86
    endloop
  endfacet
  facet normal 0 0 1
    outer loop
      vertex -1.90211 -4.80697 86
      vertex -4.80697 -1.90211 86
      vertex -1.98904 -5.21594 86
    endloop
  endfacet
  facet normal 0 0 1
    outer loop
      vertex -1.73205 -4.425 86
      vertex -4.80697 -1.90211 86
      vertex -1.90211 -4.80697 86
    endloop
  endfacet
  facet normal 0 0 1
    outer loop
      vertex -4.80697 -1.90211 86
      vertex -1.73205 -4.425 86
      vertex -2 -2.5 86
    endloop
  endfacet
  facet normal 0 0 1
    outer loop
      vertex -1.48629 -4.08674 86
      vertex -2 -2.5 86
      vertex -1.73205 -4.425 86
    endloop
  endfacet
  facet normal 0 0 1
    outer loop
      vertex -1.17557 -3.80697 86
      vertex -2 -2.5 86
      vertex -1.48629 -4.08674 86
    endloop
  endfacet
  facet normal 0 0 1
    outer loop
      vertex -0.813473 -3.59791 86
      vertex -2 -2.5 86
      vertex -1.17557 -3.80697 86
    endloop
  endfacet
  facet normal 0 0 1
    outer loop
      vertex -0.415823 -3.46871 86
      vertex -2 -2.5 86
      vertex -0.813473 -3.59791 86
    endloop
  endfacet
  facet normal 0 0 1
    outer loop
      vertex 5.21594 1.98904 86
      vertex 7.5 7 86
      vertex 7 7.5 86
    endloop
  endfacet
  facet normal 0 0 1
    outer loop
      vertex 7.5 7 86
      vertex 6.425 1.73205 86
      vertex 7.5 1.5 86
    endloop
  endfacet
  facet normal 0 0 1
    outer loop
      vertex 6.75 1.5 86
      vertex 6.425 1.73205 86
      vertex 6.75 1.49592 86
    endloop
  endfacet
  facet normal 0 0 1
    outer loop
      vertex 7.5 1.5 86
      vertex 6.425 1.73205 86
      vertex 6.75 1.5 86
    endloop
  endfacet
  facet normal 0 0 1
    outer loop
      vertex 7.5 7 86
      vertex 6.04303 1.90211 86
      vertex 6.425 1.73205 86
    endloop
  endfacet
  facet normal 0 0 1
    outer loop
      vertex 7.5 7 86
      vertex 5.63406 1.98904 86
      vertex 6.04303 1.90211 86
    endloop
  endfacet
  facet normal 0 0 1
    outer loop
      vertex 7.5 7 86
      vertex 5.21594 1.98904 86
      vertex 5.63406 1.98904 86
    endloop
  endfacet
  facet normal -0 0 1
    outer loop
      vertex 1.98904 5.21594 86
      vertex 5.21594 1.98904 86
      vertex 7 7.5 86
    endloop
  endfacet
  facet normal 0 0 1
    outer loop
      vertex 5.21594 1.98904 86
      vertex 1.98904 5.21594 86
      vertex 4.80697 1.90211 86
    endloop
  endfacet
  facet normal -0 0 1
    outer loop
      vertex 1.90211 4.80697 86
      vertex 4.80697 1.90211 86
      vertex 1.98904 5.21594 86
    endloop
  endfacet
  facet normal 0 0 1
    outer loop
      vertex 4.80697 1.90211 86
      vertex 1.90211 4.80697 86
      vertex 4.425 1.73205 86
    endloop
  endfacet
  facet normal -0 0 1
    outer loop
      vertex 1.73205 4.425 86
      vertex 4.425 1.73205 86
      vertex 1.90211 4.80697 86
    endloop
  endfacet
  facet normal 0 0 1
    outer loop
      vertex 2.5 2 86
      vertex 3.43596 0.104245 86
      vertex 3.46871 0.415823 86
    endloop
  endfacet
  facet normal 0 0 1
    outer loop
      vertex 3.43596 0.104245 86
      vertex 2.5 2 86
      vertex 3.425 0 86
    endloop
  endfacet
  facet normal 0 0 1
    outer loop
      vertex 3.59791 0.813473 86
      vertex 2.5 2 86
      vertex 3.46871 0.415823 86
    endloop
  endfacet
  facet normal 0 0 1
    outer loop
      vertex 3.80697 1.17557 86
      vertex 2.5 2 86
      vertex 3.59791 0.813473 86
    endloop
  endfacet
  facet normal 0 0 1
    outer loop
      vertex 4.08674 1.48629 86
      vertex 2.5 2 86
      vertex 3.80697 1.17557 86
    endloop
  endfacet
  facet normal 0 0 1
    outer loop
      vertex 1.98904 5.21594 86
      vertex 7 7.5 86
      vertex 1.98904 5.63406 86
    endloop
  endfacet
  facet normal 0 0 1
    outer loop
      vertex 7 7.5 86
      vertex 1.90211 6.04303 86
      vertex 1.98904 5.63406 86
    endloop
  endfacet
  facet normal 0 0 1
    outer loop
      vertex 7 7.5 86
      vertex 1.73205 6.425 86
      vertex 1.90211 6.04303 86
    endloop
  endfacet
  facet normal -0 0 1
    outer loop
      vertex 1.5 7.5 86
      vertex 1.73205 6.425 86
      vertex 7 7.5 86
    endloop
  endfacet
  facet normal -0 0 1
    outer loop
      vertex 1.5 6.75 86
      vertex 1.73205 6.425 86
      vertex 1.5 7.5 86
    endloop
  endfacet
  facet normal 0 0 1
    outer loop
      vertex 1.73205 6.425 86
      vertex 1.5 6.75 86
      vertex 1.49592 6.75 86
    endloop
  endfacet
  facet normal 0 0 1
    outer loop
      vertex 6.75 -1.49592 86
      vertex 6.425 -1.73205 86
      vertex 6.75 -1.5 86
    endloop
  endfacet
  facet normal -0 0 1
    outer loop
      vertex 6.425 -1.73205 86
      vertex 7.5 -7 86
      vertex 7.5 -1.5 86
    endloop
  endfacet
  facet normal 0 0 1
    outer loop
      vertex 6.425 -1.73205 86
      vertex 7.5 -1.5 86
      vertex 6.75 -1.5 86
    endloop
  endfacet
  facet normal -0 0 1
    outer loop
      vertex 6.04303 -1.90211 86
      vertex 7.5 -7 86
      vertex 6.425 -1.73205 86
    endloop
  endfacet
  facet normal -0 0 1
    outer loop
      vertex 5.63406 -1.98904 86
      vertex 7.5 -7 86
      vertex 6.04303 -1.90211 86
    endloop
  endfacet
  facet normal -0 0 1
    outer loop
      vertex 5.21594 -1.98904 86
      vertex 7.5 -7 86
      vertex 5.63406 -1.98904 86
    endloop
  endfacet
  facet normal 0 0 1
    outer loop
      vertex 7.5 -7 86
      vertex 5.21594 -1.98904 86
      vertex 7 -7.5 86
    endloop
  endfacet
  facet normal 0 0 1
    outer loop
      vertex 1.98904 -5.21594 86
      vertex 5.21594 -1.98904 86
      vertex 4.80697 -1.90211 86
    endloop
  endfacet
  facet normal 0 0 1
    outer loop
      vertex 1.73205 -4.425 86
      vertex 4.425 -1.73205 86
      vertex 2 -2.5 86
    endloop
  endfacet
  facet normal 0 0 1
    outer loop
      vertex 2.5 -2 86
      vertex 4.425 -1.73205 86
      vertex 4.08674 -1.48629 86
    endloop
  endfacet
  facet normal 0 0 1
    outer loop
      vertex 2.5 -2 86
      vertex 4.08674 -1.48629 86
      vertex 3.80697 -1.17557 86
    endloop
  endfacet
  facet normal 0 0 1
    outer loop
      vertex 2.5 -2 86
      vertex 3.80697 -1.17557 86
      vertex 3.59791 -0.813473 86
    endloop
  endfacet
  facet normal 0 0 1
    outer loop
      vertex 2.5 -2 86
      vertex 3.43596 -0.104245 86
      vertex 3.425 0 86
    endloop
  endfacet
  facet normal 0 0 1
    outer loop
      vertex 2.5 -2 86
      vertex 3.425 0 86
      vertex 2.5 2 86
    endloop
  endfacet
  facet normal 0 0 1
    outer loop
      vertex 3.43596 -0.104245 86
      vertex 2.5 -2 86
      vertex 3.46871 -0.415823 86
    endloop
  endfacet
  facet normal 0 0 1
    outer loop
      vertex 3.46871 -0.415823 86
      vertex 2.5 -2 86
      vertex 3.59791 -0.813473 86
    endloop
  endfacet
  facet normal 0 0 1
    outer loop
      vertex 2 -2.5 86
      vertex 4.425 -1.73205 86
      vertex 2.5 -2 86
    endloop
  endfacet
  facet normal 0 0 1
    outer loop
      vertex 4.425 -1.73205 86
      vertex 1.90211 -4.80697 86
      vertex 4.80697 -1.90211 86
    endloop
  endfacet
  facet normal 0 0 1
    outer loop
      vertex 5.21594 -1.98904 86
      vertex 1.98904 -5.21594 86
      vertex 7 -7.5 86
    endloop
  endfacet
  facet normal -0 0 1
    outer loop
      vertex 1.98904 -5.63406 86
      vertex 7 -7.5 86
      vertex 1.98904 -5.21594 86
    endloop
  endfacet
  facet normal -0 0 1
    outer loop
      vertex 1.90211 -6.04303 86
      vertex 7 -7.5 86
      vertex 1.98904 -5.63406 86
    endloop
  endfacet
  facet normal -0 0 1
    outer loop
      vertex 1.73205 -6.425 86
      vertex 7 -7.5 86
      vertex 1.90211 -6.04303 86
    endloop
  endfacet
  facet normal 0 0 1
    outer loop
      vertex 1.5 -7.5 86
      vertex 1.73205 -6.425 86
      vertex 1.5 -6.75 86
    endloop
  endfacet
  facet normal 0 0 1
    outer loop
      vertex 1.73205 -6.425 86
      vertex 1.5 -7.5 86
      vertex 7 -7.5 86
    endloop
  endfacet
  facet normal 0 0 1
    outer loop
      vertex 4.425 1.73205 86
      vertex 2.5 2 86
      vertex 4.08674 1.48629 86
    endloop
  endfacet
  facet normal 0 0 1
    outer loop
      vertex 4.425 1.73205 86
      vertex 1.73205 4.425 86
      vertex 2.5 2 86
    endloop
  endfacet
  facet normal 0 0 1
    outer loop
      vertex 2.5 2 86
      vertex 1.73205 4.425 86
      vertex 2 2.5 86
    endloop
  endfacet
  facet normal -0 0 1
    outer loop
      vertex 1.48629 4.08674 86
      vertex 2 2.5 86
      vertex 1.73205 4.425 86
    endloop
  endfacet
  facet normal -0 0 1
    outer loop
      vertex 1.17557 3.80697 86
      vertex 2 2.5 86
      vertex 1.48629 4.08674 86
    endloop
  endfacet
  facet normal -0 0 1
    outer loop
      vertex 0.813473 3.59791 86
      vertex 2 2.5 86
      vertex 1.17557 3.80697 86
    endloop
  endfacet
  facet normal -0 0 1
    outer loop
      vertex 0.415823 3.46871 86
      vertex 2 2.5 86
      vertex 0.813473 3.59791 86
    endloop
  endfacet
  facet normal -0 0 1
    outer loop
      vertex 0.104245 3.43596 86
      vertex 2 2.5 86
      vertex 0.415823 3.46871 86
    endloop
  endfacet
  facet normal -0 0 1
    outer loop
      vertex 0 3.425 86
      vertex 2 2.5 86
      vertex 0.104245 3.43596 86
    endloop
  endfacet
  facet normal 0 0 1
    outer loop
      vertex -2 2.5 86
      vertex 0 3.425 86
      vertex -0.104245 3.43596 86
    endloop
  endfacet
  facet normal 0 0 1
    outer loop
      vertex -2 2.5 86
      vertex -0.104245 3.43596 86
      vertex -0.415823 3.46871 86
    endloop
  endfacet
  facet normal 0 0 1
    outer loop
      vertex -2 2.5 86
      vertex -0.415823 3.46871 86
      vertex -0.813473 3.59791 86
    endloop
  endfacet
  facet normal 0 0 1
    outer loop
      vertex 0 3.425 86
      vertex -2 2.5 86
      vertex 2 2.5 86
    endloop
  endfacet
  facet normal 0 0 1
    outer loop
      vertex -1.17557 3.80697 86
      vertex -2 2.5 86
      vertex -0.813473 3.59791 86
    endloop
  endfacet
  facet normal 0 0 1
    outer loop
      vertex -1.48629 4.08674 86
      vertex -2 2.5 86
      vertex -1.17557 3.80697 86
    endloop
  endfacet
  facet normal 0 0 1
    outer loop
      vertex -1.73205 4.425 86
      vertex -2 2.5 86
      vertex -1.48629 4.08674 86
    endloop
  endfacet
  facet normal 0 0 1
    outer loop
      vertex -1.90211 4.80697 86
      vertex -2 2.5 86
      vertex -1.73205 4.425 86
    endloop
  endfacet
  facet normal 0 0 1
    outer loop
      vertex -2 2.5 86
      vertex -1.90211 4.80697 86
      vertex -1.98904 5.21594 86
    endloop
  endfacet
  facet normal 0 0 1
    outer loop
      vertex -1.73205 -6.425 86
      vertex -1.5 -6.75 86
      vertex -1.49592 -6.75 86
    endloop
  endfacet
  facet normal 0 0 1
    outer loop
      vertex -1.73205 -6.425 86
      vertex -1.5 -7.5 86
      vertex -1.5 -6.75 86
    endloop
  endfacet
  facet normal 0 0 1
    outer loop
      vertex -7 -7.5 86
      vertex -1.73205 -6.425 86
      vertex -1.90211 -6.04303 86
    endloop
  endfacet
  facet normal 0 0 1
    outer loop
      vertex -4.425 -1.73205 86
      vertex -2 -2.5 86
      vertex -2.5 -2 86
    endloop
  endfacet
  facet normal -0 0 1
    outer loop
      vertex -3.43596 -0.104245 86
      vertex -2.5 -2 86
      vertex -3.425 0 86
    endloop
  endfacet
  facet normal -0 0 1
    outer loop
      vertex -3.46871 -0.415823 86
      vertex -2.5 -2 86
      vertex -3.43596 -0.104245 86
    endloop
  endfacet
  facet normal -0 0 1
    outer loop
      vertex -3.59791 -0.813473 86
      vertex -2.5 -2 86
      vertex -3.46871 -0.415823 86
    endloop
  endfacet
  facet normal -0 0 1
    outer loop
      vertex -3.80697 -1.17557 86
      vertex -2.5 -2 86
      vertex -3.59791 -0.813473 86
    endloop
  endfacet
  facet normal -0 0 1
    outer loop
      vertex -4.08674 -1.48629 86
      vertex -2.5 -2 86
      vertex -3.80697 -1.17557 86
    endloop
  endfacet
  facet normal -0 0 1
    outer loop
      vertex -4.425 -1.73205 86
      vertex -2.5 -2 86
      vertex -4.08674 -1.48629 86
    endloop
  endfacet
  facet normal 0 0 1
    outer loop
      vertex -2 -2.5 86
      vertex -4.425 -1.73205 86
      vertex -4.80697 -1.90211 86
    endloop
  endfacet
  facet normal -0 0 1
    outer loop
      vertex -5.21594 -1.98904 86
      vertex -1.98904 -5.21594 86
      vertex -4.80697 -1.90211 86
    endloop
  endfacet
  facet normal 0 0 1
    outer loop
      vertex -7 -7.5 86
      vertex -1.98904 -5.21594 86
      vertex -5.21594 -1.98904 86
    endloop
  endfacet
  facet normal 0 0 1
    outer loop
      vertex -1.98904 -5.21594 86
      vertex -7 -7.5 86
      vertex -1.98904 -5.63406 86
    endloop
  endfacet
  facet normal 0 0 1
    outer loop
      vertex -1.98904 -5.63406 86
      vertex -7 -7.5 86
      vertex -1.90211 -6.04303 86
    endloop
  endfacet
  facet normal 0 0 1
    outer loop
      vertex -7.5 -7 86
      vertex -5.21594 -1.98904 86
      vertex -5.63406 -1.98904 86
    endloop
  endfacet
  facet normal 0 0 1
    outer loop
      vertex -7.5 -7 86
      vertex -5.63406 -1.98904 86
      vertex -6.04303 -1.90211 86
    endloop
  endfacet
  facet normal 0 0 1
    outer loop
      vertex -7.5 -7 86
      vertex -6.04303 -1.90211 86
      vertex -6.425 -1.73205 86
    endloop
  endfacet
  facet normal -0 0 1
    outer loop
      vertex -6.75 -1.5 86
      vertex -6.425 -1.73205 86
      vertex -6.75 -1.49592 86
    endloop
  endfacet
  facet normal -0 0 1
    outer loop
      vertex -7.5 -1.5 86
      vertex -6.425 -1.73205 86
      vertex -6.75 -1.5 86
    endloop
  endfacet
  facet normal 0 0 1
    outer loop
      vertex -1.73205 -6.425 86
      vertex -7 -7.5 86
      vertex -1.5 -7.5 86
    endloop
  endfacet
  facet normal 0 0 1
    outer loop
      vertex -6.425 -1.73205 86
      vertex -7.5 -1.5 86
      vertex -7.5 -7 86
    endloop
  endfacet
  facet normal 0 0 1
    outer loop
      vertex -5.21594 -1.98904 86
      vertex -7.5 -7 86
      vertex -7 -7.5 86
    endloop
  endfacet
  facet normal 0 0 1
    outer loop
      vertex -6.425 1.73205 86
      vertex -6.75 1.5 86
      vertex -6.75 1.49592 86
    endloop
  endfacet
  facet normal 0 0 -1
    outer loop
      vertex -1.5 -7.5 0
      vertex -1.73205 -6.425 0
      vertex -1.5 -6.75 0
    endloop
  endfacet
  facet normal 0 0 -1
    outer loop
      vertex -7 -7.5 0
      vertex -1.73205 -6.425 0
      vertex -1.5 -7.5 0
    endloop
  endfacet
  facet normal 0 0 -1
    outer loop
      vertex -7 -7.5 0
      vertex -1.98904 -5.21594 0
      vertex -1.98904 -5.63406 0
    endloop
  endfacet
  facet normal 0 0 -1
    outer loop
      vertex -1.98904 -5.21594 0
      vertex -4.80697 -1.90211 0
      vertex -2 -2.5 0
    endloop
  endfacet
  facet normal 0 0 -1
    outer loop
      vertex -2.5 -2 0
      vertex -3.425 0 0
      vertex -2.5 2 0
    endloop
  endfacet
  facet normal 0 -0 -1
    outer loop
      vertex -4.425 -1.73205 0
      vertex -2 -2.5 0
      vertex -4.80697 -1.90211 0
    endloop
  endfacet
  facet normal 0 0 -1
    outer loop
      vertex -7 -7.5 0
      vertex -1.98904 -5.63406 0
      vertex -1.90211 -6.04303 0
    endloop
  endfacet
  facet normal 0 0 -1
    outer loop
      vertex -2.5 -2 0
      vertex -3.43596 -0.104245 0
      vertex -3.425 0 0
    endloop
  endfacet
  facet normal 0 0 -1
    outer loop
      vertex -2.5 -2 0
      vertex -3.46871 -0.415823 0
      vertex -3.43596 -0.104245 0
    endloop
  endfacet
  facet normal -0 0 -1
    outer loop
      vertex -1.73205 -6.425 0
      vertex -7 -7.5 0
      vertex -1.90211 -6.04303 0
    endloop
  endfacet
  facet normal 0 0 -1
    outer loop
      vertex -2.5 -2 0
      vertex -3.59791 -0.813473 0
      vertex -3.46871 -0.415823 0
    endloop
  endfacet
  facet normal 0 0 -1
    outer loop
      vertex -2.5 -2 0
      vertex -3.80697 -1.17557 0
      vertex -3.59791 -0.813473 0
    endloop
  endfacet
  facet normal 0 0 -1
    outer loop
      vertex -2.5 -2 0
      vertex -4.08674 -1.48629 0
      vertex -3.80697 -1.17557 0
    endloop
  endfacet
  facet normal 0 0 -1
    outer loop
      vertex -2.5 -2 0
      vertex -4.425 -1.73205 0
      vertex -4.08674 -1.48629 0
    endloop
  endfacet
  facet normal 0 0 -1
    outer loop
      vertex -2 -2.5 0
      vertex -4.425 -1.73205 0
      vertex -2.5 -2 0
    endloop
  endfacet
  facet normal -0 0 -1
    outer loop
      vertex -1.98904 -5.21594 0
      vertex -7 -7.5 0
      vertex -5.21594 -1.98904 0
    endloop
  endfacet
  facet normal 0 0 -1
    outer loop
      vertex -1.98904 -5.21594 0
      vertex -5.21594 -1.98904 0
      vertex -4.80697 -1.90211 0
    endloop
  endfacet
  facet normal 0 0 -1
    outer loop
      vertex -7.5 -7 0
      vertex -5.21594 -1.98904 0
      vertex -7 -7.5 0
    endloop
  endfacet
  facet normal -0 0 -1
    outer loop
      vertex -5.21594 -1.98904 0
      vertex -7.5 -7 0
      vertex -5.63406 -1.98904 0
    endloop
  endfacet
  facet normal -0 0 -1
    outer loop
      vertex -5.63406 -1.98904 0
      vertex -7.5 -7 0
      vertex -6.04303 -1.90211 0
    endloop
  endfacet
  facet normal -0 0 -1
    outer loop
      vertex -6.04303 -1.90211 0
      vertex -7.5 -7 0
      vertex -6.425 -1.73205 0
    endloop
  endfacet
  facet normal 0 0 -1
    outer loop
      vertex -7.5 -1.5 0
      vertex -6.425 -1.73205 0
      vertex -7.5 -7 0
    endloop
  endfacet
  facet normal 0 0 -1
    outer loop
      vertex -6.425 -1.73205 0
      vertex -7.5 -1.5 0
      vertex -6.75 -1.5 0
    endloop
  endfacet
  facet normal 0 0 -1
    outer loop
      vertex -1.49592 -6.75 0
      vertex -1.5 -6.75 0
      vertex -1.73205 -6.425 0
    endloop
  endfacet
  facet normal 0 0 -1
    outer loop
      vertex 1.73205 6.425 0
      vertex 1.49592 6.75 0
      vertex 1.5 6.75 0
    endloop
  endfacet
  facet normal 0 0 -1
    outer loop
      vertex 4.80697 1.90211 0
      vertex 1.90211 4.80697 0
      vertex 1.98904 5.21594 0
    endloop
  endfacet
  facet normal 0 0 -1
    outer loop
      vertex 4.425 1.73205 0
      vertex 1.73205 4.425 0
      vertex 1.90211 4.80697 0
    endloop
  endfacet
  facet normal 0 0 -1
    outer loop
      vertex 2 2.5 0
      vertex 1.48629 4.08674 0
      vertex 1.73205 4.425 0
    endloop
  endfacet
  facet normal 0 0 -1
    outer loop
      vertex 2 2.5 0
      vertex 1.17557 3.80697 0
      vertex 1.48629 4.08674 0
    endloop
  endfacet
  facet normal 0 0 -1
    outer loop
      vertex 2 2.5 0
      vertex 0.813473 3.59791 0
      vertex 1.17557 3.80697 0
    endloop
  endfacet
  facet normal 0 0 -1
    outer loop
      vertex 2 2.5 0
      vertex 0.415823 3.46871 0
      vertex 0.813473 3.59791 0
    endloop
  endfacet
  facet normal 0 0 -1
    outer loop
      vertex 2 2.5 0
      vertex 0.104245 3.43596 0
      vertex 0.415823 3.46871 0
    endloop
  endfacet
  facet normal 0 0 -1
    outer loop
      vertex 2 2.5 0
      vertex 0 3.425 0
      vertex 0.104245 3.43596 0
    endloop
  endfacet
  facet normal 0 0 -1
    outer loop
      vertex -2 2.5 0
      vertex 0 3.425 0
      vertex 2 2.5 0
    endloop
  endfacet
  facet normal -0 0 -1
    outer loop
      vertex 0 3.425 0
      vertex -2 2.5 0
      vertex -0.104245 3.43596 0
    endloop
  endfacet
  facet normal -0 0 -1
    outer loop
      vertex -0.104245 3.43596 0
      vertex -2 2.5 0
      vertex -0.415823 3.46871 0
    endloop
  endfacet
  facet normal -0 0 -1
    outer loop
      vertex -1.90211 4.80697 0
      vertex -4.80697 1.90211 0
      vertex -1.98904 5.21594 0
    endloop
  endfacet
  facet normal -0 0 -1
    outer loop
      vertex -1.73205 4.425 0
      vertex -4.80697 1.90211 0
      vertex -1.90211 4.80697 0
    endloop
  endfacet
  facet normal 0 0 -1
    outer loop
      vertex -4.80697 1.90211 0
      vertex -1.73205 4.425 0
      vertex -2 2.5 0
    endloop
  endfacet
  facet normal -0 0 -1
    outer loop
      vertex -1.48629 4.08674 0
      vertex -2 2.5 0
      vertex -1.73205 4.425 0
    endloop
  endfacet
  facet normal -0 0 -1
    outer loop
      vertex -1.17557 3.80697 0
      vertex -2 2.5 0
      vertex -1.48629 4.08674 0
    endloop
  endfacet
  facet normal -0 0 -1
    outer loop
      vertex -0.813473 3.59791 0
      vertex -2 2.5 0
      vertex -1.17557 3.80697 0
    endloop
  endfacet
  facet normal -0 0 -1
    outer loop
      vertex -0.415823 3.46871 0
      vertex -2 2.5 0
      vertex -0.813473 3.59791 0
    endloop
  endfacet
  facet normal 0 0 -1
    outer loop
      vertex 5.21594 -1.98904 0
      vertex 7.5 -7 0
      vertex 7 -7.5 0
    endloop
  endfacet
  facet normal 0 0 -1
    outer loop
      vertex 7.5 -7 0
      vertex 6.425 -1.73205 0
      vertex 7.5 -1.5 0
    endloop
  endfacet
  facet normal -0 0 -1
    outer loop
      vertex 6.75 -1.5 0
      vertex 6.425 -1.73205 0
      vertex 6.75 -1.49592 0
    endloop
  endfacet
  facet normal -0 0 -1
    outer loop
      vertex 7.5 -1.5 0
      vertex 6.425 -1.73205 0
      vertex 6.75 -1.5 0
    endloop
  endfacet
  facet normal 0 0 -1
    outer loop
      vertex 7.5 -7 0
      vertex 6.04303 -1.90211 0
      vertex 6.425 -1.73205 0
    endloop
  endfacet
  facet normal 0 0 -1
    outer loop
      vertex 7.5 -7 0
      vertex 5.63406 -1.98904 0
      vertex 6.04303 -1.90211 0
    endloop
  endfacet
  facet normal 0 0 -1
    outer loop
      vertex 7.5 -7 0
      vertex 5.21594 -1.98904 0
      vertex 5.63406 -1.98904 0
    endloop
  endfacet
  facet normal 0 0 -1
    outer loop
      vertex 1.98904 -5.21594 0
      vertex 5.21594 -1.98904 0
      vertex 7 -7.5 0
    endloop
  endfacet
  facet normal -0 0 -1
    outer loop
      vertex 5.21594 -1.98904 0
      vertex 1.98904 -5.21594 0
      vertex 4.80697 -1.90211 0
    endloop
  endfacet
  facet normal 0 0 -1
    outer loop
      vertex 1.90211 -4.80697 0
      vertex 4.80697 -1.90211 0
      vertex 1.98904 -5.21594 0
    endloop
  endfacet
  facet normal -0 0 -1
    outer loop
      vertex 4.80697 -1.90211 0
      vertex 1.90211 -4.80697 0
      vertex 4.425 -1.73205 0
    endloop
  endfacet
  facet normal 0 0 -1
    outer loop
      vertex 1.73205 -4.425 0
      vertex 4.425 -1.73205 0
      vertex 1.90211 -4.80697 0
    endloop
  endfacet
  facet normal 0 0 -1
    outer loop
      vertex 2.5 -2 0
      vertex 3.43596 -0.104245 0
      vertex 3.46871 -0.415823 0
    endloop
  endfacet
  facet normal -0 0 -1
    outer loop
      vertex 3.43596 -0.104245 0
      vertex 2.5 -2 0
      vertex 3.425 0 0
    endloop
  endfacet
  facet normal -0 0 -1
    outer loop
      vertex 3.59791 -0.813473 0
      vertex 2.5 -2 0
      vertex 3.46871 -0.415823 0
    endloop
  endfacet
  facet normal -0 0 -1
    outer loop
      vertex 3.80697 -1.17557 0
      vertex 2.5 -2 0
      vertex 3.59791 -0.813473 0
    endloop
  endfacet
  facet normal -0 0 -1
    outer loop
      vertex 4.08674 -1.48629 0
      vertex 2.5 -2 0
      vertex 3.80697 -1.17557 0
    endloop
  endfacet
  facet normal 0 0 -1
    outer loop
      vertex 1.98904 -5.21594 0
      vertex 7 -7.5 0
      vertex 1.98904 -5.63406 0
    endloop
  endfacet
  facet normal 0 0 -1
    outer loop
      vertex 7 -7.5 0
      vertex 1.90211 -6.04303 0
      vertex 1.98904 -5.63406 0
    endloop
  endfacet
  facet normal 0 0 -1
    outer loop
      vertex 7 -7.5 0
      vertex 1.73205 -6.425 0
      vertex 1.90211 -6.04303 0
    endloop
  endfacet
  facet normal 0 0 -1
    outer loop
      vertex 1.5 -7.5 0
      vertex 1.73205 -6.425 0
      vertex 7 -7.5 0
    endloop
  endfacet
  facet normal 0 0 -1
    outer loop
      vertex 1.5 -6.75 0
      vertex 1.73205 -6.425 0
      vertex 1.5 -7.5 0
    endloop
  endfacet
  facet normal 0 0 -1
    outer loop
      vertex 1.73205 -6.425 0
      vertex 1.5 -6.75 0
      vertex 1.49592 -6.75 0
    endloop
  endfacet
  facet normal 0 0 -1
    outer loop
      vertex 6.75 1.49592 0
      vertex 6.425 1.73205 0
      vertex 6.75 1.5 0
    endloop
  endfacet
  facet normal 0 0 -1
    outer loop
      vertex 6.425 1.73205 0
      vertex 7.5 7 0
      vertex 7.5 1.5 0
    endloop
  endfacet
  facet normal 0 0 -1
    outer loop
      vertex 6.425 1.73205 0
      vertex 7.5 1.5 0
      vertex 6.75 1.5 0
    endloop
  endfacet
  facet normal 0 0 -1
    outer loop
      vertex 6.04303 1.90211 0
      vertex 7.5 7 0
      vertex 6.425 1.73205 0
    endloop
  endfacet
  facet normal 0 0 -1
    outer loop
      vertex 5.63406 1.98904 0
      vertex 7.5 7 0
      vertex 6.04303 1.90211 0
    endloop
  endfacet
  facet normal 0 0 -1
    outer loop
      vertex 5.21594 1.98904 0
      vertex 7.5 7 0
      vertex 5.63406 1.98904 0
    endloop
  endfacet
  facet normal -0 0 -1
    outer loop
      vertex 7.5 7 0
      vertex 5.21594 1.98904 0
      vertex 7 7.5 0
    endloop
  endfacet
  facet normal 0 0 -1
    outer loop
      vertex 1.98904 5.21594 0
      vertex 5.21594 1.98904 0
      vertex 4.80697 1.90211 0
    endloop
  endfacet
  facet normal 0 0 -1
    outer loop
      vertex 1.73205 4.425 0
      vertex 4.425 1.73205 0
      vertex 2 2.5 0
    endloop
  endfacet
  facet normal 0 0 -1
    outer loop
      vertex 2.5 2 0
      vertex 4.425 1.73205 0
      vertex 4.08674 1.48629 0
    endloop
  endfacet
  facet normal 0 0 -1
    outer loop
      vertex 2.5 2 0
      vertex 4.08674 1.48629 0
      vertex 3.80697 1.17557 0
    endloop
  endfacet
  facet normal 0 0 -1
    outer loop
      vertex 2.5 2 0
      vertex 3.80697 1.17557 0
      vertex 3.59791 0.813473 0
    endloop
  endfacet
  facet normal 0 0 -1
    outer loop
      vertex 2.5 2 0
      vertex 3.43596 0.104245 0
      vertex 3.425 0 0
    endloop
  endfacet
  facet normal 0 0 -1
    outer loop
      vertex 2.5 2 0
      vertex 3.425 0 0
      vertex 2.5 -2 0
    endloop
  endfacet
  facet normal 0 0 -1
    outer loop
      vertex 3.43596 0.104245 0
      vertex 2.5 2 0
      vertex 3.46871 0.415823 0
    endloop
  endfacet
  facet normal 0 0 -1
    outer loop
      vertex 3.46871 0.415823 0
      vertex 2.5 2 0
      vertex 3.59791 0.813473 0
    endloop
  endfacet
  facet normal 0 0 -1
    outer loop
      vertex 2 2.5 0
      vertex 4.425 1.73205 0
      vertex 2.5 2 0
    endloop
  endfacet
  facet normal 0 0 -1
    outer loop
      vertex 4.425 1.73205 0
      vertex 1.90211 4.80697 0
      vertex 4.80697 1.90211 0
    endloop
  endfacet
  facet normal 0 0 -1
    outer loop
      vertex 5.21594 1.98904 0
      vertex 1.98904 5.21594 0
      vertex 7 7.5 0
    endloop
  endfacet
  facet normal 0 0 -1
    outer loop
      vertex 1.98904 5.63406 0
      vertex 7 7.5 0
      vertex 1.98904 5.21594 0
    endloop
  endfacet
  facet normal 0 0 -1
    outer loop
      vertex 1.90211 6.04303 0
      vertex 7 7.5 0
      vertex 1.98904 5.63406 0
    endloop
  endfacet
  facet normal 0 0 -1
    outer loop
      vertex 1.73205 6.425 0
      vertex 7 7.5 0
      vertex 1.90211 6.04303 0
    endloop
  endfacet
  facet normal 0 0 -1
    outer loop
      vertex 1.5 7.5 0
      vertex 1.73205 6.425 0
      vertex 1.5 6.75 0
    endloop
  endfacet
  facet normal 0 0 -1
    outer loop
      vertex 1.73205 6.425 0
      vertex 1.5 7.5 0
      vertex 7 7.5 0
    endloop
  endfacet
  facet normal -0 0 -1
    outer loop
      vertex 4.425 -1.73205 0
      vertex 2.5 -2 0
      vertex 4.08674 -1.48629 0
    endloop
  endfacet
  facet normal 0 0 -1
    outer loop
      vertex 4.425 -1.73205 0
      vertex 1.73205 -4.425 0
      vertex 2.5 -2 0
    endloop
  endfacet
  facet normal 0 0 -1
    outer loop
      vertex 2.5 -2 0
      vertex 1.73205 -4.425 0
      vertex 2 -2.5 0
    endloop
  endfacet
  facet normal 0 0 -1
    outer loop
      vertex 1.48629 -4.08674 0
      vertex 2 -2.5 0
      vertex 1.73205 -4.425 0
    endloop
  endfacet
  facet normal 0 0 -1
    outer loop
      vertex 1.17557 -3.80697 0
      vertex 2 -2.5 0
      vertex 1.48629 -4.08674 0
    endloop
  endfacet
  facet normal 0 0 -1
    outer loop
      vertex 0.813473 -3.59791 0
      vertex 2 -2.5 0
      vertex 1.17557 -3.80697 0
    endloop
  endfacet
  facet normal 0 0 -1
    outer loop
      vertex 0.415823 -3.46871 0
      vertex 2 -2.5 0
      vertex 0.813473 -3.59791 0
    endloop
  endfacet
  facet normal 0 0 -1
    outer loop
      vertex 0.104245 -3.43596 0
      vertex 2 -2.5 0
      vertex 0.415823 -3.46871 0
    endloop
  endfacet
  facet normal 0 0 -1
    outer loop
      vertex 0 -3.425 0
      vertex 2 -2.5 0
      vertex 0.104245 -3.43596 0
    endloop
  endfacet
  facet normal 0 0 -1
    outer loop
      vertex -2 -2.5 0
      vertex 0 -3.425 0
      vertex -0.104245 -3.43596 0
    endloop
  endfacet
  facet normal 0 0 -1
    outer loop
      vertex -2 -2.5 0
      vertex -0.104245 -3.43596 0
      vertex -0.415823 -3.46871 0
    endloop
  endfacet
  facet normal 0 0 -1
    outer loop
      vertex -2 -2.5 0
      vertex -0.415823 -3.46871 0
      vertex -0.813473 -3.59791 0
    endloop
  endfacet
  facet normal 0 0 -1
    outer loop
      vertex 0 -3.425 0
      vertex -2 -2.5 0
      vertex 2 -2.5 0
    endloop
  endfacet
  facet normal 0 0 -1
    outer loop
      vertex -1.17557 -3.80697 0
      vertex -2 -2.5 0
      vertex -0.813473 -3.59791 0
    endloop
  endfacet
  facet normal 0 0 -1
    outer loop
      vertex -1.48629 -4.08674 0
      vertex -2 -2.5 0
      vertex -1.17557 -3.80697 0
    endloop
  endfacet
  facet normal 0 0 -1
    outer loop
      vertex -1.73205 -4.425 0
      vertex -2 -2.5 0
      vertex -1.48629 -4.08674 0
    endloop
  endfacet
  facet normal 0 0 -1
    outer loop
      vertex -1.90211 -4.80697 0
      vertex -2 -2.5 0
      vertex -1.73205 -4.425 0
    endloop
  endfacet
  facet normal 0 0 -1
    outer loop
      vertex -2 -2.5 0
      vertex -1.90211 -4.80697 0
      vertex -1.98904 -5.21594 0
    endloop
  endfacet
  facet normal 0 0 -1
    outer loop
      vertex -1.73205 6.425 0
      vertex -1.5 6.75 0
      vertex -1.49592 6.75 0
    endloop
  endfacet
  facet normal 0 0 -1
    outer loop
      vertex -1.73205 6.425 0
      vertex -1.5 7.5 0
      vertex -1.5 6.75 0
    endloop
  endfacet
  facet normal 0 0 -1
    outer loop
      vertex -7 7.5 0
      vertex -1.73205 6.425 0
      vertex -1.90211 6.04303 0
    endloop
  endfacet
  facet normal 0 0 -1
    outer loop
      vertex -4.425 1.73205 0
      vertex -2 2.5 0
      vertex -2.5 2 0
    endloop
  endfacet
  facet normal 0 0 -1
    outer loop
      vertex -3.43596 0.104245 0
      vertex -2.5 2 0
      vertex -3.425 0 0
    endloop
  endfacet
  facet normal 0 0 -1
    outer loop
      vertex -3.46871 0.415823 0
      vertex -2.5 2 0
      vertex -3.43596 0.104245 0
    endloop
  endfacet
  facet normal 0 0 -1
    outer loop
      vertex -3.59791 0.813473 0
      vertex -2.5 2 0
      vertex -3.46871 0.415823 0
    endloop
  endfacet
  facet normal 0 0 -1
    outer loop
      vertex -3.80697 1.17557 0
      vertex -2.5 2 0
      vertex -3.59791 0.813473 0
    endloop
  endfacet
  facet normal 0 0 -1
    outer loop
      vertex -4.08674 1.48629 0
      vertex -2.5 2 0
      vertex -3.80697 1.17557 0
    endloop
  endfacet
  facet normal 0 0 -1
    outer loop
      vertex -4.425 1.73205 0
      vertex -2.5 2 0
      vertex -4.08674 1.48629 0
    endloop
  endfacet
  facet normal 0 0 -1
    outer loop
      vertex -2 2.5 0
      vertex -4.425 1.73205 0
      vertex -4.80697 1.90211 0
    endloop
  endfacet
  facet normal 0 0 -1
    outer loop
      vertex -5.21594 1.98904 0
      vertex -1.98904 5.21594 0
      vertex -4.80697 1.90211 0
    endloop
  endfacet
  facet normal 0 0 -1
    outer loop
      vertex -7 7.5 0
      vertex -1.98904 5.21594 0
      vertex -5.21594 1.98904 0
    endloop
  endfacet
  facet normal 0 0 -1
    outer loop
      vertex -1.98904 5.21594 0
      vertex -7 7.5 0
      vertex -1.98904 5.63406 0
    endloop
  endfacet
  facet normal 0 0 -1
    outer loop
      vertex -1.98904 5.63406 0
      vertex -7 7.5 0
      vertex -1.90211 6.04303 0
    endloop
  endfacet
  facet normal 0 0 -1
    outer loop
      vertex -7.5 7 0
      vertex -5.21594 1.98904 0
      vertex -5.63406 1.98904 0
    endloop
  endfacet
  facet normal 0 0 -1
    outer loop
      vertex -7.5 7 0
      vertex -5.63406 1.98904 0
      vertex -6.04303 1.90211 0
    endloop
  endfacet
  facet normal 0 0 -1
    outer loop
      vertex -7.5 7 0
      vertex -6.04303 1.90211 0
      vertex -6.425 1.73205 0
    endloop
  endfacet
  facet normal 0 0 -1
    outer loop
      vertex -6.75 1.5 0
      vertex -6.425 1.73205 0
      vertex -6.75 1.49592 0
    endloop
  endfacet
  facet normal 0 0 -1
    outer loop
      vertex -7.5 1.5 0
      vertex -6.425 1.73205 0
      vertex -6.75 1.5 0
    endloop
  endfacet
  facet normal 0 0 -1
    outer loop
      vertex -1.73205 6.425 0
      vertex -7 7.5 0
      vertex -1.5 7.5 0
    endloop
  endfacet
  facet normal -0 0 -1
    outer loop
      vertex -6.425 1.73205 0
      vertex -7.5 1.5 0
      vertex -7.5 7 0
    endloop
  endfacet
  facet normal 0 0 -1
    outer loop
      vertex -5.21594 1.98904 0
      vertex -7.5 7 0
      vertex -7 7.5 0
    endloop
  endfacet
  facet normal 0 0 -1
    outer loop
      vertex -6.425 -1.73205 0
      vertex -6.75 -1.5 0
      vertex -6.75 -1.49592 0
    endloop
  endfacet
  facet normal -1 0 0
    outer loop
      vertex -7.5 -7 0
      vertex -7.5 -1.5 86
      vertex -7.5 -1.5 0
    endloop
  endfacet
  facet normal -1 -0 0
    outer loop
      vertex -7.5 -1.5 86
      vertex -7.5 -7 0
      vertex -7.5 -7 86
    endloop
  endfacet
  facet normal -1 0 0
    outer loop
      vertex -7.5 1.5 0
      vertex -7.5 7 86
      vertex -7.5 7 0
    endloop
  endfacet
  facet normal -1 -0 0
    outer loop
      vertex -7.5 7 86
      vertex -7.5 1.5 0
      vertex -7.5 1.5 86
    endloop
  endfacet
  facet normal 0 1 -0
    outer loop
      vertex -1.5 7.5 0
      vertex -7 7.5 86
      vertex -1.5 7.5 86
    endloop
  endfacet
  facet normal 0 1 0
    outer loop
      vertex -7 7.5 86
      vertex -1.5 7.5 0
      vertex -7 7.5 0
    endloop
  endfacet
  facet normal 0 1 -0
    outer loop
      vertex 7 7.5 0
      vertex 1.5 7.5 86
      vertex 7 7.5 86
    endloop
  endfacet
  facet normal 0 1 0
    outer loop
      vertex 1.5 7.5 86
      vertex 7 7.5 0
      vertex 1.5 7.5 0
    endloop
  endfacet
  facet normal 0 -1 0
    outer loop
      vertex -7 -7.5 0
      vertex -1.5 -7.5 86
      vertex -7 -7.5 86
    endloop
  endfacet
  facet normal 0 -1 -0
    outer loop
      vertex -1.5 -7.5 86
      vertex -7 -7.5 0
      vertex -1.5 -7.5 0
    endloop
  endfacet
  facet normal 0 -1 0
    outer loop
      vertex 1.5 -7.5 0
      vertex 7 -7.5 86
      vertex 1.5 -7.5 86
    endloop
  endfacet
  facet normal 0 -1 -0
    outer loop
      vertex 7 -7.5 86
      vertex 1.5 -7.5 0
      vertex 7 -7.5 0
    endloop
  endfacet
  facet normal -0.707107 -0.707107 0
    outer loop
      vertex 2.5 2 81.375
      vertex 2 2.5 86
      vertex 2 2.5 81.375
    endloop
  endfacet
  facet normal -0.707107 -0.707107 0
    outer loop
      vertex 2 2.5 86
      vertex 2.5 2 81.375
      vertex 2.5 2 86
    endloop
  endfacet
  facet normal 0.707107 -0.707107 0
    outer loop
      vertex -2.5 2 86
      vertex -2 2.5 81.375
      vertex -2 2.5 86
    endloop
  endfacet
  facet normal 0.707107 -0.707107 0
    outer loop
      vertex -2 2.5 81.375
      vertex -2.5 2 86
      vertex -2.5 2 81.375
    endloop
  endfacet
  facet normal 0 0.70717 0.707043
    outer loop
      vertex 2 -2.33333 81.2083
      vertex -2 -2.5 81.375
      vertex 2 -2.5 81.375
    endloop
  endfacet
  facet normal 0 0.70717 0.707043
    outer loop
      vertex 2 -2.33333 81.2083
      vertex -2 -2.33333 81.2083
      vertex -2 -2.5 81.375
    endloop
  endfacet
  facet normal 0 0.707075 0.707139
    outer loop
      vertex 2 -2 80.875
      vertex -2 -2.33333 81.2083
      vertex 2 -2.33333 81.2083
    endloop
  endfacet
  facet normal 0 0.707075 0.707139
    outer loop
      vertex -2 -2.33333 81.2083
      vertex 2 -2 80.875
      vertex -2 -2 80.875
    endloop
  endfacet
  facet normal 0.707075 0 0.707139
    outer loop
      vertex -2.33333 2 81.2083
      vertex -2.33333 -2 81.2083
      vertex -2 2 80.875
    endloop
  endfacet
  facet normal 0.70717 0 0.707043
    outer loop
      vertex -2.5 2 81.375
      vertex -2.33333 -2 81.2083
      vertex -2.33333 2 81.2083
    endloop
  endfacet
  facet normal 0.70717 0 0.707043
    outer loop
      vertex -2.33333 -2 81.2083
      vertex -2.5 2 81.375
      vertex -2.5 -2 81.375
    endloop
  endfacet
  facet normal 0.707075 0 0.707139
    outer loop
      vertex -2 2 80.875
      vertex -2.33333 -2 81.2083
      vertex -2 -2 80.875
    endloop
  endfacet
  facet normal 0.707107 0.707107 0
    outer loop
      vertex -2 -2.5 86
      vertex -2.5 -2 81.375
      vertex -2.5 -2 86
    endloop
  endfacet
  facet normal 0.707107 0.707107 0
    outer loop
      vertex -2.5 -2 81.375
      vertex -2 -2.5 86
      vertex -2 -2.5 81.375
    endloop
  endfacet
  facet normal 0 -0.70717 0.707043
    outer loop
      vertex -2 2.33333 81.2083
      vertex 2 2.5 81.375
      vertex -2 2.5 81.375
    endloop
  endfacet
  facet normal 0 -0.70717 0.707043
    outer loop
      vertex -2 2.33333 81.2083
      vertex 2 2.33333 81.2083
      vertex 2 2.5 81.375
    endloop
  endfacet
  facet normal 0 -0.707075 0.707139
    outer loop
      vertex -2 2 80.875
      vertex 2 2.33333 81.2083
      vertex -2 2.33333 81.2083
    endloop
  endfacet
  facet normal 0 -0.707075 0.707139
    outer loop
      vertex 2 2.33333 81.2083
      vertex -2 2 80.875
      vertex 2 2 80.875
    endloop
  endfacet
  facet normal -0.707075 0 0.707139
    outer loop
      vertex 2 2 80.875
      vertex 2 -2 80.875
      vertex 2.33333 2 81.2083
    endloop
  endfacet
  facet normal -0.707075 0 0.707139
    outer loop
      vertex 2.33333 -2 81.2083
      vertex 2.33333 2 81.2083
      vertex 2 -2 80.875
    endloop
  endfacet
  facet normal -0.70717 0 0.707043
    outer loop
      vertex 2.33333 2 81.2083
      vertex 2.33333 -2 81.2083
      vertex 2.5 2 81.375
    endloop
  endfacet
  facet normal -0.70717 0 0.707043
    outer loop
      vertex 2.5 2 81.375
      vertex 2.33333 -2 81.2083
      vertex 2.5 -2 81.375
    endloop
  endfacet
  facet normal -0.707107 0.707107 0
    outer loop
      vertex 2 -2.5 81.375
      vertex 2.5 -2 86
      vertex 2.5 -2 81.375
    endloop
  endfacet
  facet normal -0.707107 0.707107 0
    outer loop
      vertex 2.5 -2 86
      vertex 2 -2.5 81.375
      vertex 2 -2.5 86
    endloop
  endfacet
  facet normal 0.577333 0.577333 0.577385
    outer loop
      vertex -2 -2 80.875
      vertex -2.33333 -2 81.2083
      vertex -2 -2.33333 81.2083
    endloop
  endfacet
  facet normal 0.577385 0.577385 0.577281
    outer loop
      vertex -2.33333 -2 81.2083
      vertex -2 -2.5 81.375
      vertex -2 -2.33333 81.2083
    endloop
  endfacet
  facet normal 0.577385 0.577385 0.577281
    outer loop
      vertex -2.33333 -2 81.2083
      vertex -2.5 -2 81.375
      vertex -2 -2.5 81.375
    endloop
  endfacet
  facet normal -0.577385 0.577385 0.577281
    outer loop
      vertex 2.33333 -2 81.2083
      vertex 2 -2.5 81.375
      vertex 2.5 -2 81.375
    endloop
  endfacet
  facet normal -0.577385 0.577385 0.577281
    outer loop
      vertex 2 -2.33333 81.2083
      vertex 2 -2.5 81.375
      vertex 2.33333 -2 81.2083
    endloop
  endfacet
  facet normal -0.577333 0.577333 0.577385
    outer loop
      vertex 2.33333 -2 81.2083
      vertex 2 -2 80.875
      vertex 2 -2.33333 81.2083
    endloop
  endfacet
  facet normal 0.577333 -0.577333 0.577385
    outer loop
      vertex -2.33333 2 81.2083
      vertex -2 2 80.875
      vertex -2 2.33333 81.2083
    endloop
  endfacet
  facet normal 0.577385 -0.577385 0.577281
    outer loop
      vertex -2 2.5 81.375
      vertex -2.33333 2 81.2083
      vertex -2 2.33333 81.2083
    endloop
  endfacet
  facet normal 0.577385 -0.577385 0.577281
    outer loop
      vertex -2.5 2 81.375
      vertex -2.33333 2 81.2083
      vertex -2 2.5 81.375
    endloop
  endfacet
  facet normal -0.577385 -0.577385 0.577281
    outer loop
      vertex 2 2.5 81.375
      vertex 2.33333 2 81.2083
      vertex 2.5 2 81.375
    endloop
  endfacet
  facet normal -0.577385 -0.577385 0.577281
    outer loop
      vertex 2 2.5 81.375
      vertex 2 2.33333 81.2083
      vertex 2.33333 2 81.2083
    endloop
  endfacet
  facet normal -0.577333 -0.577333 0.577385
    outer loop
      vertex 2 2 80.875
      vertex 2.33333 2 81.2083
      vertex 2 2.33333 81.2083
    endloop
  endfacet
  facet normal -1 0 0
    outer loop
      vertex 2.5 -2 81.375
      vertex 2.5 2 86
      vertex 2.5 2 81.375
    endloop
  endfacet
  facet normal -1 0 0
    outer loop
      vertex 2.5 -2 81.375
      vertex 2.5 -2 86
      vertex 2.5 2 86
    endloop
  endfacet
  facet normal -0 0 1
    outer loop
      vertex -2 2 80.875
      vertex 2 -2 80.875
      vertex 2 2 80.875
    endloop
  endfacet
  facet normal 0 0 1
    outer loop
      vertex -2 2 80.875
      vertex -2 -2 80.875
      vertex 2 -2 80.875
    endloop
  endfacet
  facet normal 1 0 0
    outer loop
      vertex -2.5 2 86
      vertex -2.5 -2 81.375
      vertex -2.5 2 81.375
    endloop
  endfacet
  facet normal 1 -0 0
    outer loop
      vertex -2.5 -2 86
      vertex -2.5 -2 81.375
      vertex -2.5 2 86
    endloop
  endfacet
  facet normal 0 -1 0
    outer loop
      vertex -2 2.5 86
      vertex -2 2.5 81.375
      vertex 2 2.5 86
    endloop
  endfacet
  facet normal 0 -1 0
    outer loop
      vertex 2 2.5 81.375
      vertex 2 2.5 86
      vertex -2 2.5 81.375
    endloop
  endfacet
  facet normal 0 1 0
    outer loop
      vertex 2 -2.5 86
      vertex 2 -2.5 81.375
      vertex -2 -2.5 86
    endloop
  endfacet
  facet normal 0 1 0
    outer loop
      vertex -2 -2.5 81.375
      vertex -2 -2.5 86
      vertex 2 -2.5 81.375
    endloop
  endfacet
  facet normal -0.707107 0.707107 0
    outer loop
      vertex 2 -2.5 0
      vertex 2.5 -2 4.5
      vertex 2.5 -2 0
    endloop
  endfacet
  facet normal -0.707107 0.707107 0
    outer loop
      vertex 2.5 -2 4.5
      vertex 2 -2.5 0
      vertex 2 -2.5 4.5
    endloop
  endfacet
  facet normal 0.707107 0.707107 0
    outer loop
      vertex -2 -2.5 4.5
      vertex -2.5 -2 0
      vertex -2.5 -2 4.5
    endloop
  endfacet
  facet normal 0.707107 0.707107 0
    outer loop
      vertex -2.5 -2 0
      vertex -2 -2.5 4.5
      vertex -2 -2.5 0
    endloop
  endfacet
  facet normal 0 -0.707107 -0.707107
    outer loop
      vertex -2 2.33333 4.66667
      vertex 2 2 5
      vertex -2 2 5
    endloop
  endfacet
  facet normal 0 -0.707107 -0.707107
    outer loop
      vertex -2 2.33333 4.66667
      vertex 2 2.33333 4.66667
      vertex 2 2 5
    endloop
  endfacet
  facet normal 0 -0.707107 -0.707107
    outer loop
      vertex -2 2.5 4.5
      vertex 2 2.33333 4.66667
      vertex -2 2.33333 4.66667
    endloop
  endfacet
  facet normal 0 -0.707107 -0.707107
    outer loop
      vertex 2 2.33333 4.66667
      vertex -2 2.5 4.5
      vertex 2 2.5 4.5
    endloop
  endfacet
  facet normal 0.707107 0 -0.707107
    outer loop
      vertex -2 2 5
      vertex -2 -2 5
      vertex -2.33333 2 4.66667
    endloop
  endfacet
  facet normal 0.707107 0 -0.707107
    outer loop
      vertex -2.33333 -2 4.66667
      vertex -2.33333 2 4.66667
      vertex -2 -2 5
    endloop
  endfacet
  facet normal 0.707107 0 -0.707107
    outer loop
      vertex -2.33333 2 4.66667
      vertex -2.33333 -2 4.66667
      vertex -2.5 2 4.5
    endloop
  endfacet
  facet normal 0.707107 0 -0.707107
    outer loop
      vertex -2.5 2 4.5
      vertex -2.33333 -2 4.66667
      vertex -2.5 -2 4.5
    endloop
  endfacet
  facet normal 0.707107 -0.707107 0
    outer loop
      vertex -2.5 2 4.5
      vertex -2 2.5 0
      vertex -2 2.5 4.5
    endloop
  endfacet
  facet normal 0.707107 -0.707107 0
    outer loop
      vertex -2 2.5 0
      vertex -2.5 2 4.5
      vertex -2.5 2 0
    endloop
  endfacet
  facet normal 0 0.707107 -0.707107
    outer loop
      vertex 2 -2.33333 4.66667
      vertex -2 -2 5
      vertex 2 -2 5
    endloop
  endfacet
  facet normal 0 0.707107 -0.707107
    outer loop
      vertex 2 -2.33333 4.66667
      vertex -2 -2.33333 4.66667
      vertex -2 -2 5
    endloop
  endfacet
  facet normal 0 0.707107 -0.707107
    outer loop
      vertex 2 -2.5 4.5
      vertex -2 -2.33333 4.66667
      vertex 2 -2.33333 4.66667
    endloop
  endfacet
  facet normal 0 0.707107 -0.707107
    outer loop
      vertex -2 -2.33333 4.66667
      vertex 2 -2.5 4.5
      vertex -2 -2.5 4.5
    endloop
  endfacet
  facet normal -0.707107 -0 -0.707107
    outer loop
      vertex 2.33333 2 4.66667
      vertex 2.33333 -2 4.66667
      vertex 2 2 5
    endloop
  endfacet
  facet normal -0.707107 0 -0.707107
    outer loop
      vertex 2.5 2 4.5
      vertex 2.33333 -2 4.66667
      vertex 2.33333 2 4.66667
    endloop
  endfacet
  facet normal -0.707107 0 -0.707107
    outer loop
      vertex 2.33333 -2 4.66667
      vertex 2.5 2 4.5
      vertex 2.5 -2 4.5
    endloop
  endfacet
  facet normal -0.707107 -0 -0.707107
    outer loop
      vertex 2 2 5
      vertex 2.33333 -2 4.66667
      vertex 2 -2 5
    endloop
  endfacet
  facet normal -0.707107 -0.707107 0
    outer loop
      vertex 2.5 2 0
      vertex 2 2.5 4.5
      vertex 2 2.5 0
    endloop
  endfacet
  facet normal -0.707107 -0.707107 0
    outer loop
      vertex 2 2.5 4.5
      vertex 2.5 2 0
      vertex 2.5 2 4.5
    endloop
  endfacet
  facet normal 0.57735 -0.57735 -0.57735
    outer loop
      vertex -2 2 5
      vertex -2.33333 2 4.66667
      vertex -2 2.33333 4.66667
    endloop
  endfacet
  facet normal 0.57735 -0.57735 -0.57735
    outer loop
      vertex -2.33333 2 4.66667
      vertex -2 2.5 4.5
      vertex -2 2.33333 4.66667
    endloop
  endfacet
  facet normal 0.57735 -0.57735 -0.57735
    outer loop
      vertex -2.33333 2 4.66667
      vertex -2.5 2 4.5
      vertex -2 2.5 4.5
    endloop
  endfacet
  facet normal -0.57735 -0.57735 -0.57735
    outer loop
      vertex 2.5 2 4.5
      vertex 2 2.33333 4.66667
      vertex 2 2.5 4.5
    endloop
  endfacet
  facet normal -0.57735 -0.57735 -0.57735
    outer loop
      vertex 2.5 2 4.5
      vertex 2.33333 2 4.66667
      vertex 2 2.33333 4.66667
    endloop
  endfacet
  facet normal -0.57735 -0.57735 -0.57735
    outer loop
      vertex 2.33333 2 4.66667
      vertex 2 2 5
      vertex 2 2.33333 4.66667
    endloop
  endfacet
  facet normal 0.57735 0.57735 -0.57735
    outer loop
      vertex -2.33333 -2 4.66667
      vertex -2 -2 5
      vertex -2 -2.33333 4.66667
    endloop
  endfacet
  facet normal 0.57735 0.57735 -0.57735
    outer loop
      vertex -2 -2.33333 4.66667
      vertex -2.5 -2 4.5
      vertex -2.33333 -2 4.66667
    endloop
  endfacet
  facet normal 0.57735 0.57735 -0.57735
    outer loop
      vertex -2 -2.33333 4.66667
      vertex -2 -2.5 4.5
      vertex -2.5 -2 4.5
    endloop
  endfacet
  facet normal -0.57735 0.57735 -0.57735
    outer loop
      vertex 2.33333 -2 4.66667
      vertex 2 -2.5 4.5
      vertex 2 -2.33333 4.66667
    endloop
  endfacet
  facet normal -0.57735 0.57735 -0.57735
    outer loop
      vertex 2.33333 -2 4.66667
      vertex 2.5 -2 4.5
      vertex 2 -2.5 4.5
    endloop
  endfacet
  facet normal -0.57735 0.57735 -0.57735
    outer loop
      vertex 2 -2 5
      vertex 2.33333 -2 4.66667
      vertex 2 -2.33333 4.66667
    endloop
  endfacet
  facet normal -1 0 0
    outer loop
      vertex 2.5 -2 4.5
      vertex 2.5 2 4.5
      vertex 2.5 2 0
    endloop
  endfacet
  facet normal -1 0 0
    outer loop
      vertex 2.5 -2 4.5
      vertex 2.5 2 0
      vertex 2.5 -2 0
    endloop
  endfacet
  facet normal 0 0 -1
    outer loop
      vertex -2 -2 5
      vertex 2 2 5
      vertex 2 -2 5
    endloop
  endfacet
  facet normal 0 0 -1
    outer loop
      vertex -2 -2 5
      vertex -2 2 5
      vertex 2 2 5
    endloop
  endfacet
  facet normal 1 0 0
    outer loop
      vertex -2.5 2 4.5
      vertex -2.5 -2 4.5
      vertex -2.5 2 0
    endloop
  endfacet
  facet normal 1 0 0
    outer loop
      vertex -2.5 2 0
      vertex -2.5 -2 4.5
      vertex -2.5 -2 0
    endloop
  endfacet
  facet normal 0 1 -0
    outer loop
      vertex 2 -2.5 0
      vertex -2 -2.5 4.5
      vertex 2 -2.5 4.5
    endloop
  endfacet
  facet normal 0 1 0
    outer loop
      vertex -2 -2.5 4.5
      vertex 2 -2.5 0
      vertex -2 -2.5 0
    endloop
  endfacet
  facet normal 0 -1 0
    outer loop
      vertex -2 2.5 0
      vertex 2 2.5 4.5
      vertex -2 2.5 4.5
    endloop
  endfacet
  facet normal 0 -1 -0
    outer loop
      vertex 2 2.5 4.5
      vertex -2 2.5 0
      vertex 2 2.5 0
    endloop
  endfacet
  facet normal 0 -1 0
    outer loop
      vertex 6.75 1.5 0
      vertex 7.5 1.5 86
      vertex 6.75 1.5 86
    endloop
  endfacet
  facet normal 0 -1 -0
    outer loop
      vertex 7.5 1.5 86
      vertex 6.75 1.5 0
      vertex 7.5 1.5 0
    endloop
  endfacet
  facet normal 0 1 -0
    outer loop
      vertex 7.5 -1.5 0
      vertex 6.75 -1.5 86
      vertex 7.5 -1.5 86
    endloop
  endfacet
  facet normal 0 1 0
    outer loop
      vertex 6.75 -1.5 86
      vertex 7.5 -1.5 0
      vertex 6.75 -1.5 0
    endloop
  endfacet
  facet normal 1 -0 0
    outer loop
      vertex 6.75 1.49592 86
      vertex 6.75 1.5 0
      vertex 6.75 1.5 86
    endloop
  endfacet
  facet normal 1 0 0
    outer loop
      vertex 6.75 1.5 0
      vertex 6.75 1.49592 86
      vertex 6.75 1.49592 0
    endloop
  endfacet
  facet normal 1 -0 0
    outer loop
      vertex 6.75 -1.5 86
      vertex 6.75 -1.49592 0
      vertex 6.75 -1.49592 86
    endloop
  endfacet
  facet normal 1 0 0
    outer loop
      vertex 6.75 -1.49592 0
      vertex 6.75 -1.5 86
      vertex 6.75 -1.5 0
    endloop
  endfacet
  facet normal 0.406729 0.913549 -0
    outer loop
      vertex 4.80697 -1.90211 0
      vertex 4.425 -1.73205 86
      vertex 4.80697 -1.90211 86
    endloop
  endfacet
  facet normal 0.406729 0.913549 0
    outer loop
      vertex 4.425 -1.73205 86
      vertex 4.80697 -1.90211 0
      vertex 4.425 -1.73205 0
    endloop
  endfacet
  facet normal 0.743149 0.669126 0
    outer loop
      vertex 4.08674 -1.48629 86
      vertex 3.80697 -1.17557 0
      vertex 3.80697 -1.17557 86
    endloop
  endfacet
  facet normal 0.743149 0.669126 0
    outer loop
      vertex 3.80697 -1.17557 0
      vertex 4.08674 -1.48629 86
      vertex 4.08674 -1.48629 0
    endloop
  endfacet
  facet normal -0.406729 -0.913549 0
    outer loop
      vertex 6.04303 1.90211 0
      vertex 6.425 1.73205 86
      vertex 6.04303 1.90211 86
    endloop
  endfacet
  facet normal -0.406729 -0.913549 -0
    outer loop
      vertex 6.425 1.73205 86
      vertex 6.04303 1.90211 0
      vertex 6.425 1.73205 0
    endloop
  endfacet
  facet normal 0.95106 0.309008 0
    outer loop
      vertex 3.59791 -0.813473 86
      vertex 3.46871 -0.415823 0
      vertex 3.46871 -0.415823 86
    endloop
  endfacet
  facet normal 0.95106 0.309008 0
    outer loop
      vertex 3.46871 -0.415823 0
      vertex 3.59791 -0.813473 86
      vertex 3.59791 -0.813473 0
    endloop
  endfacet
  facet normal 0.587785 -0.809017 0
    outer loop
      vertex 4.08674 1.48629 0
      vertex 4.425 1.73205 86
      vertex 4.08674 1.48629 86
    endloop
  endfacet
  facet normal 0.587785 -0.809017 0
    outer loop
      vertex 4.425 1.73205 86
      vertex 4.08674 1.48629 0
      vertex 4.425 1.73205 0
    endloop
  endfacet
  facet normal -0.587791 -0.809013 0
    outer loop
      vertex 6.425 1.73205 0
      vertex 6.75 1.49592 86
      vertex 6.425 1.73205 86
    endloop
  endfacet
  facet normal -0.587791 -0.809013 -0
    outer loop
      vertex 6.75 1.49592 86
      vertex 6.425 1.73205 0
      vertex 6.75 1.49592 0
    endloop
  endfacet
  facet normal 0.994521 -0.104534 0
    outer loop
      vertex 3.43596 0.104245 86
      vertex 3.46871 0.415823 0
      vertex 3.46871 0.415823 86
    endloop
  endfacet
  facet normal 0.994521 -0.104534 0
    outer loop
      vertex 3.46871 0.415823 0
      vertex 3.43596 0.104245 86
      vertex 3.43596 0.104245 0
    endloop
  endfacet
  facet normal 0.994519 -0.104561 0
    outer loop
      vertex 3.425 0 86
      vertex 3.43596 0.104245 0
      vertex 3.43596 0.104245 86
    endloop
  endfacet
  facet normal 0.994519 -0.104561 0
    outer loop
      vertex 3.43596 0.104245 0
      vertex 3.425 0 86
      vertex 3.425 0 0
    endloop
  endfacet
  facet normal -0.207913 0.978147 0
    outer loop
      vertex 6.04303 -1.90211 0
      vertex 5.63406 -1.98904 86
      vertex 6.04303 -1.90211 86
    endloop
  endfacet
  facet normal -0.207913 0.978147 0
    outer loop
      vertex 5.63406 -1.98904 86
      vertex 6.04303 -1.90211 0
      vertex 5.63406 -1.98904 0
    endloop
  endfacet
  facet normal 0.994519 0.104561 0
    outer loop
      vertex 3.43596 -0.104245 86
      vertex 3.425 0 0
      vertex 3.425 0 86
    endloop
  endfacet
  facet normal 0.994519 0.104561 0
    outer loop
      vertex 3.425 0 0
      vertex 3.43596 -0.104245 86
      vertex 3.43596 -0.104245 0
    endloop
  endfacet
  facet normal 0.994521 0.104534 0
    outer loop
      vertex 3.46871 -0.415823 86
      vertex 3.43596 -0.104245 0
      vertex 3.43596 -0.104245 86
    endloop
  endfacet
  facet normal 0.994521 0.104534 0
    outer loop
      vertex 3.43596 -0.104245 0
      vertex 3.46871 -0.415823 86
      vertex 3.46871 -0.415823 0
    endloop
  endfacet
  facet normal 0.95106 -0.309008 0
    outer loop
      vertex 3.46871 0.415823 86
      vertex 3.59791 0.813473 0
      vertex 3.59791 0.813473 86
    endloop
  endfacet
  facet normal 0.95106 -0.309008 0
    outer loop
      vertex 3.59791 0.813473 0
      vertex 3.46871 0.415823 86
      vertex 3.46871 0.415823 0
    endloop
  endfacet
  facet normal 0.207913 -0.978147 0
    outer loop
      vertex 4.80697 1.90211 0
      vertex 5.21594 1.98904 86
      vertex 4.80697 1.90211 86
    endloop
  endfacet
  facet normal 0.207913 -0.978147 0
    outer loop
      vertex 5.21594 1.98904 86
      vertex 4.80697 1.90211 0
      vertex 5.21594 1.98904 0
    endloop
  endfacet
  facet normal -0.207913 -0.978147 0
    outer loop
      vertex 5.63406 1.98904 0
      vertex 6.04303 1.90211 86
      vertex 5.63406 1.98904 86
    endloop
  endfacet
  facet normal -0.207913 -0.978147 -0
    outer loop
      vertex 6.04303 1.90211 86
      vertex 5.63406 1.98904 0
      vertex 6.04303 1.90211 0
    endloop
  endfacet
  facet normal 0.406729 -0.913549 0
    outer loop
      vertex 4.425 1.73205 0
      vertex 4.80697 1.90211 86
      vertex 4.425 1.73205 86
    endloop
  endfacet
  facet normal 0.406729 -0.913549 0
    outer loop
      vertex 4.80697 1.90211 86
      vertex 4.425 1.73205 0
      vertex 4.80697 1.90211 0
    endloop
  endfacet
  facet normal -0.406729 0.913549 0
    outer loop
      vertex 6.425 -1.73205 0
      vertex 6.04303 -1.90211 86
      vertex 6.425 -1.73205 86
    endloop
  endfacet
  facet normal -0.406729 0.913549 0
    outer loop
      vertex 6.04303 -1.90211 86
      vertex 6.425 -1.73205 0
      vertex 6.04303 -1.90211 0
    endloop
  endfacet
  facet normal 0.743149 -0.669126 0
    outer loop
      vertex 3.80697 1.17557 86
      vertex 4.08674 1.48629 0
      vertex 4.08674 1.48629 86
    endloop
  endfacet
  facet normal 0.743149 -0.669126 0
    outer loop
      vertex 4.08674 1.48629 0
      vertex 3.80697 1.17557 86
      vertex 3.80697 1.17557 0
    endloop
  endfacet
  facet normal 0.207913 0.978147 -0
    outer loop
      vertex 5.21594 -1.98904 0
      vertex 4.80697 -1.90211 86
      vertex 5.21594 -1.98904 86
    endloop
  endfacet
  facet normal 0.207913 0.978147 0
    outer loop
      vertex 4.80697 -1.90211 86
      vertex 5.21594 -1.98904 0
      vertex 4.80697 -1.90211 0
    endloop
  endfacet
  facet normal 0.866022 0.500006 0
    outer loop
      vertex 3.80697 -1.17557 86
      vertex 3.59791 -0.813473 0
      vertex 3.59791 -0.813473 86
    endloop
  endfacet
  facet normal 0.866022 0.500006 0
    outer loop
      vertex 3.59791 -0.813473 0
      vertex 3.80697 -1.17557 86
      vertex 3.80697 -1.17557 0
    endloop
  endfacet
  facet normal 0.866022 -0.500006 0
    outer loop
      vertex 3.59791 0.813473 86
      vertex 3.80697 1.17557 0
      vertex 3.80697 1.17557 86
    endloop
  endfacet
  facet normal 0.866022 -0.500006 0
    outer loop
      vertex 3.80697 1.17557 0
      vertex 3.59791 0.813473 86
      vertex 3.59791 0.813473 0
    endloop
  endfacet
  facet normal 0 1 -0
    outer loop
      vertex 5.63406 -1.98904 0
      vertex 5.21594 -1.98904 86
      vertex 5.63406 -1.98904 86
    endloop
  endfacet
  facet normal 0 1 0
    outer loop
      vertex 5.21594 -1.98904 86
      vertex 5.63406 -1.98904 0
      vertex 5.21594 -1.98904 0
    endloop
  endfacet
  facet normal -0.587791 0.809013 0
    outer loop
      vertex 6.75 -1.49592 0
      vertex 6.425 -1.73205 86
      vertex 6.75 -1.49592 86
    endloop
  endfacet
  facet normal -0.587791 0.809013 0
    outer loop
      vertex 6.425 -1.73205 86
      vertex 6.75 -1.49592 0
      vertex 6.425 -1.73205 0
    endloop
  endfacet
  facet normal 0 -1 0
    outer loop
      vertex 5.21594 1.98904 0
      vertex 5.63406 1.98904 86
      vertex 5.21594 1.98904 86
    endloop
  endfacet
  facet normal 0 -1 -0
    outer loop
      vertex 5.63406 1.98904 86
      vertex 5.21594 1.98904 0
      vertex 5.63406 1.98904 0
    endloop
  endfacet
  facet normal 0.587785 0.809017 -0
    outer loop
      vertex 4.425 -1.73205 0
      vertex 4.08674 -1.48629 86
      vertex 4.425 -1.73205 86
    endloop
  endfacet
  facet normal 0.587785 0.809017 0
    outer loop
      vertex 4.08674 -1.48629 86
      vertex 4.425 -1.73205 0
      vertex 4.08674 -1.48629 0
    endloop
  endfacet
  facet normal 0 -1 0
    outer loop
      vertex -7.5 1.5 0
      vertex -6.75 1.5 86
      vertex -7.5 1.5 86
    endloop
  endfacet
  facet normal 0 -1 -0
    outer loop
      vertex -6.75 1.5 86
      vertex -7.5 1.5 0
      vertex -6.75 1.5 0
    endloop
  endfacet
  facet normal 0 1 -0
    outer loop
      vertex -6.75 -1.5 0
      vertex -7.5 -1.5 86
      vertex -6.75 -1.5 86
    endloop
  endfacet
  facet normal 0 1 0
    outer loop
      vertex -7.5 -1.5 86
      vertex -6.75 -1.5 0
      vertex -7.5 -1.5 0
    endloop
  endfacet
  facet normal -1 0 0
    outer loop
      vertex -6.75 1.49592 0
      vertex -6.75 1.5 86
      vertex -6.75 1.5 0
    endloop
  endfacet
  facet normal -1 -0 0
    outer loop
      vertex -6.75 1.5 86
      vertex -6.75 1.49592 0
      vertex -6.75 1.49592 86
    endloop
  endfacet
  facet normal -1 0 0
    outer loop
      vertex -6.75 -1.5 0
      vertex -6.75 -1.49592 86
      vertex -6.75 -1.49592 0
    endloop
  endfacet
  facet normal -1 -0 0
    outer loop
      vertex -6.75 -1.49592 86
      vertex -6.75 -1.5 0
      vertex -6.75 -1.5 86
    endloop
  endfacet
  facet normal -0.406729 0.913549 0
    outer loop
      vertex -4.425 -1.73205 0
      vertex -4.80697 -1.90211 86
      vertex -4.425 -1.73205 86
    endloop
  endfacet
  facet normal -0.406729 0.913549 0
    outer loop
      vertex -4.80697 -1.90211 86
      vertex -4.425 -1.73205 0
      vertex -4.80697 -1.90211 0
    endloop
  endfacet
  facet normal -0.743149 0.669126 0
    outer loop
      vertex -4.08674 -1.48629 0
      vertex -3.80697 -1.17557 86
      vertex -3.80697 -1.17557 0
    endloop
  endfacet
  facet normal -0.743149 0.669126 0
    outer loop
      vertex -3.80697 -1.17557 86
      vertex -4.08674 -1.48629 0
      vertex -4.08674 -1.48629 86
    endloop
  endfacet
  facet normal 0.406729 -0.913549 0
    outer loop
      vertex -6.425 1.73205 0
      vertex -6.04303 1.90211 86
      vertex -6.425 1.73205 86
    endloop
  endfacet
  facet normal 0.406729 -0.913549 0
    outer loop
      vertex -6.04303 1.90211 86
      vertex -6.425 1.73205 0
      vertex -6.04303 1.90211 0
    endloop
  endfacet
  facet normal -0.95106 0.309008 0
    outer loop
      vertex -3.59791 -0.813473 0
      vertex -3.46871 -0.415823 86
      vertex -3.46871 -0.415823 0
    endloop
  endfacet
  facet normal -0.95106 0.309008 0
    outer loop
      vertex -3.46871 -0.415823 86
      vertex -3.59791 -0.813473 0
      vertex -3.59791 -0.813473 86
    endloop
  endfacet
  facet normal -0.587785 -0.809017 0
    outer loop
      vertex -4.425 1.73205 0
      vertex -4.08674 1.48629 86
      vertex -4.425 1.73205 86
    endloop
  endfacet
  facet normal -0.587785 -0.809017 -0
    outer loop
      vertex -4.08674 1.48629 86
      vertex -4.425 1.73205 0
      vertex -4.08674 1.48629 0
    endloop
  endfacet
  facet normal 0.587791 -0.809013 0
    outer loop
      vertex -6.75 1.49592 0
      vertex -6.425 1.73205 86
      vertex -6.75 1.49592 86
    endloop
  endfacet
  facet normal 0.587791 -0.809013 0
    outer loop
      vertex -6.425 1.73205 86
      vertex -6.75 1.49592 0
      vertex -6.425 1.73205 0
    endloop
  endfacet
  facet normal -0.994521 -0.104534 0
    outer loop
      vertex -3.43596 0.104245 0
      vertex -3.46871 0.415823 86
      vertex -3.46871 0.415823 0
    endloop
  endfacet
  facet normal -0.994521 -0.104534 0
    outer loop
      vertex -3.46871 0.415823 86
      vertex -3.43596 0.104245 0
      vertex -3.43596 0.104245 86
    endloop
  endfacet
  facet normal -0.994519 -0.104561 0
    outer loop
      vertex -3.425 0 0
      vertex -3.43596 0.104245 86
      vertex -3.43596 0.104245 0
    endloop
  endfacet
  facet normal -0.994519 -0.104561 0
    outer loop
      vertex -3.43596 0.104245 86
      vertex -3.425 0 0
      vertex -3.425 0 86
    endloop
  endfacet
  facet normal 0.207913 0.978147 -0
    outer loop
      vertex -5.63406 -1.98904 0
      vertex -6.04303 -1.90211 86
      vertex -5.63406 -1.98904 86
    endloop
  endfacet
  facet normal 0.207913 0.978147 0
    outer loop
      vertex -6.04303 -1.90211 86
      vertex -5.63406 -1.98904 0
      vertex -6.04303 -1.90211 0
    endloop
  endfacet
  facet normal -0.994519 0.104561 0
    outer loop
      vertex -3.43596 -0.104245 0
      vertex -3.425 0 86
      vertex -3.425 0 0
    endloop
  endfacet
  facet normal -0.994519 0.104561 0
    outer loop
      vertex -3.425 0 86
      vertex -3.43596 -0.104245 0
      vertex -3.43596 -0.104245 86
    endloop
  endfacet
  facet normal -0.994521 0.104534 0
    outer loop
      vertex -3.46871 -0.415823 0
      vertex -3.43596 -0.104245 86
      vertex -3.43596 -0.104245 0
    endloop
  endfacet
  facet normal -0.994521 0.104534 0
    outer loop
      vertex -3.43596 -0.104245 86
      vertex -3.46871 -0.415823 0
      vertex -3.46871 -0.415823 86
    endloop
  endfacet
  facet normal -0.95106 -0.309008 0
    outer loop
      vertex -3.46871 0.415823 0
      vertex -3.59791 0.813473 86
      vertex -3.59791 0.813473 0
    endloop
  endfacet
  facet normal -0.95106 -0.309008 0
    outer loop
      vertex -3.59791 0.813473 86
      vertex -3.46871 0.415823 0
      vertex -3.46871 0.415823 86
    endloop
  endfacet
  facet normal -0.207913 -0.978147 0
    outer loop
      vertex -5.21594 1.98904 0
      vertex -4.80697 1.90211 86
      vertex -5.21594 1.98904 86
    endloop
  endfacet
  facet normal -0.207913 -0.978147 -0
    outer loop
      vertex -4.80697 1.90211 86
      vertex -5.21594 1.98904 0
      vertex -4.80697 1.90211 0
    endloop
  endfacet
  facet normal 0.207913 -0.978147 0
    outer loop
      vertex -6.04303 1.90211 0
      vertex -5.63406 1.98904 86
      vertex -6.04303 1.90211 86
    endloop
  endfacet
  facet normal 0.207913 -0.978147 0
    outer loop
      vertex -5.63406 1.98904 86
      vertex -6.04303 1.90211 0
      vertex -5.63406 1.98904 0
    endloop
  endfacet
  facet normal -0.406729 -0.913549 0
    outer loop
      vertex -4.80697 1.90211 0
      vertex -4.425 1.73205 86
      vertex -4.80697 1.90211 86
    endloop
  endfacet
  facet normal -0.406729 -0.913549 -0
    outer loop
      vertex -4.425 1.73205 86
      vertex -4.80697 1.90211 0
      vertex -4.425 1.73205 0
    endloop
  endfacet
  facet normal 0.406729 0.913549 -0
    outer loop
      vertex -6.04303 -1.90211 0
      vertex -6.425 -1.73205 86
      vertex -6.04303 -1.90211 86
    endloop
  endfacet
  facet normal 0.406729 0.913549 0
    outer loop
      vertex -6.425 -1.73205 86
      vertex -6.04303 -1.90211 0
      vertex -6.425 -1.73205 0
    endloop
  endfacet
  facet normal -0.743149 -0.669126 0
    outer loop
      vertex -3.80697 1.17557 0
      vertex -4.08674 1.48629 86
      vertex -4.08674 1.48629 0
    endloop
  endfacet
  facet normal -0.743149 -0.669126 0
    outer loop
      vertex -4.08674 1.48629 86
      vertex -3.80697 1.17557 0
      vertex -3.80697 1.17557 86
    endloop
  endfacet
  facet normal -0.207913 0.978147 0
    outer loop
      vertex -4.80697 -1.90211 0
      vertex -5.21594 -1.98904 86
      vertex -4.80697 -1.90211 86
    endloop
  endfacet
  facet normal -0.207913 0.978147 0
    outer loop
      vertex -5.21594 -1.98904 86
      vertex -4.80697 -1.90211 0
      vertex -5.21594 -1.98904 0
    endloop
  endfacet
  facet normal -0.866022 0.500006 0
    outer loop
      vertex -3.80697 -1.17557 0
      vertex -3.59791 -0.813473 86
      vertex -3.59791 -0.813473 0
    endloop
  endfacet
  facet normal -0.866022 0.500006 0
    outer loop
      vertex -3.59791 -0.813473 86
      vertex -3.80697 -1.17557 0
      vertex -3.80697 -1.17557 86
    endloop
  endfacet
  facet normal -0.866022 -0.500006 0
    outer loop
      vertex -3.59791 0.813473 0
      vertex -3.80697 1.17557 86
      vertex -3.80697 1.17557 0
    endloop
  endfacet
  facet normal -0.866022 -0.500006 0
    outer loop
      vertex -3.80697 1.17557 86
      vertex -3.59791 0.813473 0
      vertex -3.59791 0.813473 86
    endloop
  endfacet
  facet normal 0 1 -0
    outer loop
      vertex -5.21594 -1.98904 0
      vertex -5.63406 -1.98904 86
      vertex -5.21594 -1.98904 86
    endloop
  endfacet
  facet normal 0 1 0
    outer loop
      vertex -5.63406 -1.98904 86
      vertex -5.21594 -1.98904 0
      vertex -5.63406 -1.98904 0
    endloop
  endfacet
  facet normal 0.587791 0.809013 -0
    outer loop
      vertex -6.425 -1.73205 0
      vertex -6.75 -1.49592 86
      vertex -6.425 -1.73205 86
    endloop
  endfacet
  facet normal 0.587791 0.809013 0
    outer loop
      vertex -6.75 -1.49592 86
      vertex -6.425 -1.73205 0
      vertex -6.75 -1.49592 0
    endloop
  endfacet
  facet normal 0 -1 0
    outer loop
      vertex -5.63406 1.98904 0
      vertex -5.21594 1.98904 86
      vertex -5.63406 1.98904 86
    endloop
  endfacet
  facet normal 0 -1 -0
    outer loop
      vertex -5.21594 1.98904 86
      vertex -5.63406 1.98904 0
      vertex -5.21594 1.98904 0
    endloop
  endfacet
  facet normal -0.587785 0.809017 0
    outer loop
      vertex -4.08674 -1.48629 0
      vertex -4.425 -1.73205 86
      vertex -4.08674 -1.48629 86
    endloop
  endfacet
  facet normal -0.587785 0.809017 0
    outer loop
      vertex -4.425 -1.73205 86
      vertex -4.08674 -1.48629 0
      vertex -4.425 -1.73205 0
    endloop
  endfacet
  facet normal -1 0 0
    outer loop
      vertex 1.5 6.75 0
      vertex 1.5 7.5 86
      vertex 1.5 7.5 0
    endloop
  endfacet
  facet normal -1 -0 0
    outer loop
      vertex 1.5 7.5 86
      vertex 1.5 6.75 0
      vertex 1.5 6.75 86
    endloop
  endfacet
  facet normal 1 -0 0
    outer loop
      vertex -1.5 6.75 86
      vertex -1.5 7.5 0
      vertex -1.5 7.5 86
    endloop
  endfacet
  facet normal 1 0 0
    outer loop
      vertex -1.5 7.5 0
      vertex -1.5 6.75 86
      vertex -1.5 6.75 0
    endloop
  endfacet
  facet normal 0 1 -0
    outer loop
      vertex 1.5 6.75 0
      vertex 1.49592 6.75 86
      vertex 1.5 6.75 86
    endloop
  endfacet
  facet normal 0 1 0
    outer loop
      vertex 1.49592 6.75 86
      vertex 1.5 6.75 0
      vertex 1.49592 6.75 0
    endloop
  endfacet
  facet normal 0 1 -0
    outer loop
      vertex -1.49592 6.75 0
      vertex -1.5 6.75 86
      vertex -1.49592 6.75 86
    endloop
  endfacet
  facet normal 0 1 0
    outer loop
      vertex -1.5 6.75 86
      vertex -1.49592 6.75 0
      vertex -1.5 6.75 0
    endloop
  endfacet
  facet normal 0.913549 0.406729 0
    outer loop
      vertex -1.73205 4.425 86
      vertex -1.90211 4.80697 0
      vertex -1.90211 4.80697 86
    endloop
  endfacet
  facet normal 0.913549 0.406729 0
    outer loop
      vertex -1.90211 4.80697 0
      vertex -1.73205 4.425 86
      vertex -1.73205 4.425 0
    endloop
  endfacet
  facet normal 0.669126 0.743149 -0
    outer loop
      vertex -1.17557 3.80697 0
      vertex -1.48629 4.08674 86
      vertex -1.17557 3.80697 86
    endloop
  endfacet
  facet normal 0.669126 0.743149 0
    outer loop
      vertex -1.48629 4.08674 86
      vertex -1.17557 3.80697 0
      vertex -1.48629 4.08674 0
    endloop
  endfacet
  facet normal -0.913549 -0.406729 0
    outer loop
      vertex 1.90211 6.04303 0
      vertex 1.73205 6.425 86
      vertex 1.73205 6.425 0
    endloop
  endfacet
  facet normal -0.913549 -0.406729 0
    outer loop
      vertex 1.73205 6.425 86
      vertex 1.90211 6.04303 0
      vertex 1.90211 6.04303 86
    endloop
  endfacet
  facet normal 0.309008 0.95106 -0
    outer loop
      vertex -0.415823 3.46871 0
      vertex -0.813473 3.59791 86
      vertex -0.415823 3.46871 86
    endloop
  endfacet
  facet normal 0.309008 0.95106 0
    outer loop
      vertex -0.813473 3.59791 86
      vertex -0.415823 3.46871 0
      vertex -0.813473 3.59791 0
    endloop
  endfacet
  facet normal -0.809017 0.587785 0
    outer loop
      vertex 1.48629 4.08674 0
      vertex 1.73205 4.425 86
      vertex 1.73205 4.425 0
    endloop
  endfacet
  facet normal -0.809017 0.587785 0
    outer loop
      vertex 1.73205 4.425 86
      vertex 1.48629 4.08674 0
      vertex 1.48629 4.08674 86
    endloop
  endfacet
  facet normal -0.809013 -0.587791 0
    outer loop
      vertex 1.73205 6.425 0
      vertex 1.49592 6.75 86
      vertex 1.49592 6.75 0
    endloop
  endfacet
  facet normal -0.809013 -0.587791 0
    outer loop
      vertex 1.49592 6.75 86
      vertex 1.73205 6.425 0
      vertex 1.73205 6.425 86
    endloop
  endfacet
  facet normal -0.104534 0.994521 0
    outer loop
      vertex 0.415823 3.46871 0
      vertex 0.104245 3.43596 86
      vertex 0.415823 3.46871 86
    endloop
  endfacet
  facet normal -0.104534 0.994521 0
    outer loop
      vertex 0.104245 3.43596 86
      vertex 0.415823 3.46871 0
      vertex 0.104245 3.43596 0
    endloop
  endfacet
  facet normal -0.104561 0.994519 0
    outer loop
      vertex 0.104245 3.43596 0
      vertex 0 3.425 86
      vertex 0.104245 3.43596 86
    endloop
  endfacet
  facet normal -0.104561 0.994519 0
    outer loop
      vertex 0 3.425 86
      vertex 0.104245 3.43596 0
      vertex 0 3.425 0
    endloop
  endfacet
  facet normal 0.978147 -0.207913 0
    outer loop
      vertex -1.98904 5.63406 86
      vertex -1.90211 6.04303 0
      vertex -1.90211 6.04303 86
    endloop
  endfacet
  facet normal 0.978147 -0.207913 0
    outer loop
      vertex -1.90211 6.04303 0
      vertex -1.98904 5.63406 86
      vertex -1.98904 5.63406 0
    endloop
  endfacet
  facet normal 0.104561 0.994519 -0
    outer loop
      vertex 0 3.425 0
      vertex -0.104245 3.43596 86
      vertex 0 3.425 86
    endloop
  endfacet
  facet normal 0.104561 0.994519 0
    outer loop
      vertex -0.104245 3.43596 86
      vertex 0 3.425 0
      vertex -0.104245 3.43596 0
    endloop
  endfacet
  facet normal 0.104534 0.994521 -0
    outer loop
      vertex -0.104245 3.43596 0
      vertex -0.415823 3.46871 86
      vertex -0.104245 3.43596 86
    endloop
  endfacet
  facet normal 0.104534 0.994521 0
    outer loop
      vertex -0.415823 3.46871 86
      vertex -0.104245 3.43596 0
      vertex -0.415823 3.46871 0
    endloop
  endfacet
  facet normal -0.309008 0.95106 0
    outer loop
      vertex 0.813473 3.59791 0
      vertex 0.415823 3.46871 86
      vertex 0.813473 3.59791 86
    endloop
  endfacet
  facet normal -0.309008 0.95106 0
    outer loop
      vertex 0.415823 3.46871 86
      vertex 0.813473 3.59791 0
      vertex 0.415823 3.46871 0
    endloop
  endfacet
  facet normal -0.978147 0.207913 0
    outer loop
      vertex 1.90211 4.80697 0
      vertex 1.98904 5.21594 86
      vertex 1.98904 5.21594 0
    endloop
  endfacet
  facet normal -0.978147 0.207913 0
    outer loop
      vertex 1.98904 5.21594 86
      vertex 1.90211 4.80697 0
      vertex 1.90211 4.80697 86
    endloop
  endfacet
  facet normal -0.978147 -0.207913 0
    outer loop
      vertex 1.98904 5.63406 0
      vertex 1.90211 6.04303 86
      vertex 1.90211 6.04303 0
    endloop
  endfacet
  facet normal -0.978147 -0.207913 0
    outer loop
      vertex 1.90211 6.04303 86
      vertex 1.98904 5.63406 0
      vertex 1.98904 5.63406 86
    endloop
  endfacet
  facet normal -0.913549 0.406729 0
    outer loop
      vertex 1.73205 4.425 0
      vertex 1.90211 4.80697 86
      vertex 1.90211 4.80697 0
    endloop
  endfacet
  facet normal -0.913549 0.406729 0
    outer loop
      vertex 1.90211 4.80697 86
      vertex 1.73205 4.425 0
      vertex 1.73205 4.425 86
    endloop
  endfacet
  facet normal 0.913549 -0.406729 0
    outer loop
      vertex -1.90211 6.04303 86
      vertex -1.73205 6.425 0
      vertex -1.73205 6.425 86
    endloop
  endfacet
  facet normal 0.913549 -0.406729 0
    outer loop
      vertex -1.73205 6.425 0
      vertex -1.90211 6.04303 86
      vertex -1.90211 6.04303 0
    endloop
  endfacet
  facet normal -0.669126 0.743149 0
    outer loop
      vertex 1.48629 4.08674 0
      vertex 1.17557 3.80697 86
      vertex 1.48629 4.08674 86
    endloop
  endfacet
  facet normal -0.669126 0.743149 0
    outer loop
      vertex 1.17557 3.80697 86
      vertex 1.48629 4.08674 0
      vertex 1.17557 3.80697 0
    endloop
  endfacet
  facet normal 0.978147 0.207913 0
    outer loop
      vertex -1.90211 4.80697 86
      vertex -1.98904 5.21594 0
      vertex -1.98904 5.21594 86
    endloop
  endfacet
  facet normal 0.978147 0.207913 0
    outer loop
      vertex -1.98904 5.21594 0
      vertex -1.90211 4.80697 86
      vertex -1.90211 4.80697 0
    endloop
  endfacet
  facet normal 0.500006 0.866022 -0
    outer loop
      vertex -0.813473 3.59791 0
      vertex -1.17557 3.80697 86
      vertex -0.813473 3.59791 86
    endloop
  endfacet
  facet normal 0.500006 0.866022 0
    outer loop
      vertex -1.17557 3.80697 86
      vertex -0.813473 3.59791 0
      vertex -1.17557 3.80697 0
    endloop
  endfacet
  facet normal -0.500006 0.866022 0
    outer loop
      vertex 1.17557 3.80697 0
      vertex 0.813473 3.59791 86
      vertex 1.17557 3.80697 86
    endloop
  endfacet
  facet normal -0.500006 0.866022 0
    outer loop
      vertex 0.813473 3.59791 86
      vertex 1.17557 3.80697 0
      vertex 0.813473 3.59791 0
    endloop
  endfacet
  facet normal 1 -0 0
    outer loop
      vertex -1.98904 5.21594 86
      vertex -1.98904 5.63406 0
      vertex -1.98904 5.63406 86
    endloop
  endfacet
  facet normal 1 0 0
    outer loop
      vertex -1.98904 5.63406 0
      vertex -1.98904 5.21594 86
      vertex -1.98904 5.21594 0
    endloop
  endfacet
  facet normal 0.809013 -0.587791 0
    outer loop
      vertex -1.73205 6.425 86
      vertex -1.49592 6.75 0
      vertex -1.49592 6.75 86
    endloop
  endfacet
  facet normal 0.809013 -0.587791 0
    outer loop
      vertex -1.49592 6.75 0
      vertex -1.73205 6.425 86
      vertex -1.73205 6.425 0
    endloop
  endfacet
  facet normal -1 0 0
    outer loop
      vertex 1.98904 5.21594 0
      vertex 1.98904 5.63406 86
      vertex 1.98904 5.63406 0
    endloop
  endfacet
  facet normal -1 -0 0
    outer loop
      vertex 1.98904 5.63406 86
      vertex 1.98904 5.21594 0
      vertex 1.98904 5.21594 86
    endloop
  endfacet
  facet normal 0.809017 0.587785 0
    outer loop
      vertex -1.48629 4.08674 86
      vertex -1.73205 4.425 0
      vertex -1.73205 4.425 86
    endloop
  endfacet
  facet normal 0.809017 0.587785 0
    outer loop
      vertex -1.73205 4.425 0
      vertex -1.48629 4.08674 86
      vertex -1.48629 4.08674 0
    endloop
  endfacet
  facet normal 1 -0 0
    outer loop
      vertex -1.5 -7.5 86
      vertex -1.5 -6.75 0
      vertex -1.5 -6.75 86
    endloop
  endfacet
  facet normal 1 0 0
    outer loop
      vertex -1.5 -6.75 0
      vertex -1.5 -7.5 86
      vertex -1.5 -7.5 0
    endloop
  endfacet
  facet normal -1 0 0
    outer loop
      vertex 1.5 -7.5 0
      vertex 1.5 -6.75 86
      vertex 1.5 -6.75 0
    endloop
  endfacet
  facet normal -1 -0 0
    outer loop
      vertex 1.5 -6.75 86
      vertex 1.5 -7.5 0
      vertex 1.5 -7.5 86
    endloop
  endfacet
  facet normal 0 -1 0
    outer loop
      vertex -1.5 -6.75 0
      vertex -1.49592 -6.75 86
      vertex -1.5 -6.75 86
    endloop
  endfacet
  facet normal 0 -1 -0
    outer loop
      vertex -1.49592 -6.75 86
      vertex -1.5 -6.75 0
      vertex -1.49592 -6.75 0
    endloop
  endfacet
  facet normal 0 -1 0
    outer loop
      vertex 1.49592 -6.75 0
      vertex 1.5 -6.75 86
      vertex 1.49592 -6.75 86
    endloop
  endfacet
  facet normal 0 -1 -0
    outer loop
      vertex 1.5 -6.75 86
      vertex 1.49592 -6.75 0
      vertex 1.5 -6.75 0
    endloop
  endfacet
  facet normal -0.913549 -0.406729 0
    outer loop
      vertex 1.90211 -4.80697 0
      vertex 1.73205 -4.425 86
      vertex 1.73205 -4.425 0
    endloop
  endfacet
  facet normal -0.913549 -0.406729 0
    outer loop
      vertex 1.73205 -4.425 86
      vertex 1.90211 -4.80697 0
      vertex 1.90211 -4.80697 86
    endloop
  endfacet
  facet normal -0.669126 -0.743149 0
    outer loop
      vertex 1.17557 -3.80697 0
      vertex 1.48629 -4.08674 86
      vertex 1.17557 -3.80697 86
    endloop
  endfacet
  facet normal -0.669126 -0.743149 -0
    outer loop
      vertex 1.48629 -4.08674 86
      vertex 1.17557 -3.80697 0
      vertex 1.48629 -4.08674 0
    endloop
  endfacet
  facet normal 0.913549 0.406729 0
    outer loop
      vertex -1.73205 -6.425 86
      vertex -1.90211 -6.04303 0
      vertex -1.90211 -6.04303 86
    endloop
  endfacet
  facet normal 0.913549 0.406729 0
    outer loop
      vertex -1.90211 -6.04303 0
      vertex -1.73205 -6.425 86
      vertex -1.73205 -6.425 0
    endloop
  endfacet
  facet normal -0.309008 -0.95106 0
    outer loop
      vertex 0.415823 -3.46871 0
      vertex 0.813473 -3.59791 86
      vertex 0.415823 -3.46871 86
    endloop
  endfacet
  facet normal -0.309008 -0.95106 -0
    outer loop
      vertex 0.813473 -3.59791 86
      vertex 0.415823 -3.46871 0
      vertex 0.813473 -3.59791 0
    endloop
  endfacet
  facet normal 0.809017 -0.587785 0
    outer loop
      vertex -1.73205 -4.425 86
      vertex -1.48629 -4.08674 0
      vertex -1.48629 -4.08674 86
    endloop
  endfacet
  facet normal 0.809017 -0.587785 0
    outer loop
      vertex -1.48629 -4.08674 0
      vertex -1.73205 -4.425 86
      vertex -1.73205 -4.425 0
    endloop
  endfacet
  facet normal 0.809013 0.587791 0
    outer loop
      vertex -1.49592 -6.75 86
      vertex -1.73205 -6.425 0
      vertex -1.73205 -6.425 86
    endloop
  endfacet
  facet normal 0.809013 0.587791 0
    outer loop
      vertex -1.73205 -6.425 0
      vertex -1.49592 -6.75 86
      vertex -1.49592 -6.75 0
    endloop
  endfacet
  facet normal 0.104534 -0.994521 0
    outer loop
      vertex -0.415823 -3.46871 0
      vertex -0.104245 -3.43596 86
      vertex -0.415823 -3.46871 86
    endloop
  endfacet
  facet normal 0.104534 -0.994521 0
    outer loop
      vertex -0.104245 -3.43596 86
      vertex -0.415823 -3.46871 0
      vertex -0.104245 -3.43596 0
    endloop
  endfacet
  facet normal 0.104561 -0.994519 0
    outer loop
      vertex -0.104245 -3.43596 0
      vertex 0 -3.425 86
      vertex -0.104245 -3.43596 86
    endloop
  endfacet
  facet normal 0.104561 -0.994519 0
    outer loop
      vertex 0 -3.425 86
      vertex -0.104245 -3.43596 0
      vertex 0 -3.425 0
    endloop
  endfacet
  facet normal -0.978147 0.207913 0
    outer loop
      vertex 1.90211 -6.04303 0
      vertex 1.98904 -5.63406 86
      vertex 1.98904 -5.63406 0
    endloop
  endfacet
  facet normal -0.978147 0.207913 0
    outer loop
      vertex 1.98904 -5.63406 86
      vertex 1.90211 -6.04303 0
      vertex 1.90211 -6.04303 86
    endloop
  endfacet
  facet normal -0.104561 -0.994519 0
    outer loop
      vertex 0 -3.425 0
      vertex 0.104245 -3.43596 86
      vertex 0 -3.425 86
    endloop
  endfacet
  facet normal -0.104561 -0.994519 -0
    outer loop
      vertex 0.104245 -3.43596 86
      vertex 0 -3.425 0
      vertex 0.104245 -3.43596 0
    endloop
  endfacet
  facet normal -0.104534 -0.994521 0
    outer loop
      vertex 0.104245 -3.43596 0
      vertex 0.415823 -3.46871 86
      vertex 0.104245 -3.43596 86
    endloop
  endfacet
  facet normal -0.104534 -0.994521 -0
    outer loop
      vertex 0.415823 -3.46871 86
      vertex 0.104245 -3.43596 0
      vertex 0.415823 -3.46871 0
    endloop
  endfacet
  facet normal 0.309008 -0.95106 0
    outer loop
      vertex -0.813473 -3.59791 0
      vertex -0.415823 -3.46871 86
      vertex -0.813473 -3.59791 86
    endloop
  endfacet
  facet normal 0.309008 -0.95106 0
    outer loop
      vertex -0.415823 -3.46871 86
      vertex -0.813473 -3.59791 0
      vertex -0.415823 -3.46871 0
    endloop
  endfacet
  facet normal 0.978147 -0.207913 0
    outer loop
      vertex -1.98904 -5.21594 86
      vertex -1.90211 -4.80697 0
      vertex -1.90211 -4.80697 86
    endloop
  endfacet
  facet normal 0.978147 -0.207913 0
    outer loop
      vertex -1.90211 -4.80697 0
      vertex -1.98904 -5.21594 86
      vertex -1.98904 -5.21594 0
    endloop
  endfacet
  facet normal 0.978147 0.207913 0
    outer loop
      vertex -1.90211 -6.04303 86
      vertex -1.98904 -5.63406 0
      vertex -1.98904 -5.63406 86
    endloop
  endfacet
  facet normal 0.978147 0.207913 0
    outer loop
      vertex -1.98904 -5.63406 0
      vertex -1.90211 -6.04303 86
      vertex -1.90211 -6.04303 0
    endloop
  endfacet
  facet normal 0.913549 -0.406729 0
    outer loop
      vertex -1.90211 -4.80697 86
      vertex -1.73205 -4.425 0
      vertex -1.73205 -4.425 86
    endloop
  endfacet
  facet normal 0.913549 -0.406729 0
    outer loop
      vertex -1.73205 -4.425 0
      vertex -1.90211 -4.80697 86
      vertex -1.90211 -4.80697 0
    endloop
  endfacet
  facet normal -0.913549 0.406729 0
    outer loop
      vertex 1.73205 -6.425 0
      vertex 1.90211 -6.04303 86
      vertex 1.90211 -6.04303 0
    endloop
  endfacet
  facet normal -0.913549 0.406729 0
    outer loop
      vertex 1.90211 -6.04303 86
      vertex 1.73205 -6.425 0
      vertex 1.73205 -6.425 86
    endloop
  endfacet
  facet normal 0.669126 -0.743149 0
    outer loop
      vertex -1.48629 -4.08674 0
      vertex -1.17557 -3.80697 86
      vertex -1.48629 -4.08674 86
    endloop
  endfacet
  facet normal 0.669126 -0.743149 0
    outer loop
      vertex -1.17557 -3.80697 86
      vertex -1.48629 -4.08674 0
      vertex -1.17557 -3.80697 0
    endloop
  endfacet
  facet normal -0.978147 -0.207913 0
    outer loop
      vertex 1.98904 -5.21594 0
      vertex 1.90211 -4.80697 86
      vertex 1.90211 -4.80697 0
    endloop
  endfacet
  facet normal -0.978147 -0.207913 0
    outer loop
      vertex 1.90211 -4.80697 86
      vertex 1.98904 -5.21594 0
      vertex 1.98904 -5.21594 86
    endloop
  endfacet
  facet normal -0.500006 -0.866022 0
    outer loop
      vertex 0.813473 -3.59791 0
      vertex 1.17557 -3.80697 86
      vertex 0.813473 -3.59791 86
    endloop
  endfacet
  facet normal -0.500006 -0.866022 -0
    outer loop
      vertex 1.17557 -3.80697 86
      vertex 0.813473 -3.59791 0
      vertex 1.17557 -3.80697 0
    endloop
  endfacet
  facet normal 0.500006 -0.866022 0
    outer loop
      vertex -1.17557 -3.80697 0
      vertex -0.813473 -3.59791 86
      vertex -1.17557 -3.80697 86
    endloop
  endfacet
  facet normal 0.500006 -0.866022 0
    outer loop
      vertex -0.813473 -3.59791 86
      vertex -1.17557 -3.80697 0
      vertex -0.813473 -3.59791 0
    endloop
  endfacet
  facet normal -1 0 0
    outer loop
      vertex 1.98904 -5.63406 0
      vertex 1.98904 -5.21594 86
      vertex 1.98904 -5.21594 0
    endloop
  endfacet
  facet normal -1 -0 0
    outer loop
      vertex 1.98904 -5.21594 86
      vertex 1.98904 -5.63406 0
      vertex 1.98904 -5.63406 86
    endloop
  endfacet
  facet normal -0.809013 0.587791 0
    outer loop
      vertex 1.49592 -6.75 0
      vertex 1.73205 -6.425 86
      vertex 1.73205 -6.425 0
    endloop
  endfacet
  facet normal -0.809013 0.587791 0
    outer loop
      vertex 1.73205 -6.425 86
      vertex 1.49592 -6.75 0
      vertex 1.49592 -6.75 86
    endloop
  endfacet
  facet normal 1 -0 0
    outer loop
      vertex -1.98904 -5.63406 86
      vertex -1.98904 -5.21594 0
      vertex -1.98904 -5.21594 86
    endloop
  endfacet
  facet normal 1 0 0
    outer loop
      vertex -1.98904 -5.21594 0
      vertex -1.98904 -5.63406 86
      vertex -1.98904 -5.63406 0
    endloop
  endfacet
  facet normal -0.809017 -0.587785 0
    outer loop
      vertex 1.73205 -4.425 0
      vertex 1.48629 -4.08674 86
      vertex 1.48629 -4.08674 0
    endloop
  endfacet
  facet normal -0.809017 -0.587785 0
    outer loop
      vertex 1.48629 -4.08674 86
      vertex 1.73205 -4.425 0
      vertex 1.73205 -4.425 86
    endloop
  endfacet
endsolid OpenSCAD_Model
