solid OpenSCAD_Model
  facet normal 0.707107 0.707107 0
    outer loop
      vertex 7.5 7 116
      vertex 7 7.5 0
      vertex 7 7.5 116
    endloop
  endfacet
  facet normal 0.707107 0.707107 0
    outer loop
      vertex 7 7.5 0
      vertex 7.5 7 116
      vertex 7.5 7 0
    endloop
  endfacet
  facet normal -0.707107 0.707107 0
    outer loop
      vertex -7.5 7 0
      vertex -7 7.5 116
      vertex -7 7.5 0
    endloop
  endfacet
  facet normal -0.707107 0.707107 0
    outer loop
      vertex -7 7.5 116
      vertex -7.5 7 0
      vertex -7.5 7 116
    endloop
  endfacet
  facet normal -0.707107 -0.707107 0
    outer loop
      vertex -7 -7.5 0
      vertex -7.5 -7 116
      vertex -7.5 -7 0
    endloop
  endfacet
  facet normal -0.707107 -0.707107 0
    outer loop
      vertex -7.5 -7 116
      vertex -7 -7.5 0
      vertex -7 -7.5 116
    endloop
  endfacet
  facet normal 0.707107 -0.707107 0
    outer loop
      vertex 7 -7.5 116
      vertex 7.5 -7 0
      vertex 7.5 -7 116
    endloop
  endfacet
  facet normal 0.707107 -0.707107 0
    outer loop
      vertex 7.5 -7 0
      vertex 7 -7.5 116
      vertex 7 -7.5 0
    endloop
  endfacet
  facet normal 1 -0 0
    outer loop
      vertex 7.5 -7 116
      vertex 7.5 -1.5 0
      vertex 7.5 -1.5 116
    endloop
  endfacet
  facet normal 1 0 0
    outer loop
      vertex 7.5 -1.5 0
      vertex 7.5 -7 116
      vertex 7.5 -7 0
    endloop
  endfacet
  facet normal 1 -0 0
    outer loop
      vertex 7.5 1.5 116
      vertex 7.5 7 0
      vertex 7.5 7 116
    endloop
  endfacet
  facet normal 1 0 0
    outer loop
      vertex 7.5 7 0
      vertex 7.5 1.5 116
      vertex 7.5 1.5 0
    endloop
  endfacet
  facet normal 0 0 1
    outer loop
      vertex -1.5 7.5 116
      vertex -1.73205 6.425 116
      vertex -1.5 6.75 116
    endloop
  endfacet
  facet normal -0 0 1
    outer loop
      vertex -7 7.5 116
      vertex -1.73205 6.425 116
      vertex -1.5 7.5 116
    endloop
  endfacet
  facet normal 0 0 1
    outer loop
      vertex -7 7.5 116
      vertex -1.98904 5.21594 116
      vertex -1.98904 5.63406 116
    endloop
  endfacet
  facet normal 0 0 1
    outer loop
      vertex -1.98904 5.21594 116
      vertex -4.80697 1.90211 116
      vertex -2 2.5 116
    endloop
  endfacet
  facet normal 0 0 1
    outer loop
      vertex -2.5 2 116
      vertex -3.425 0 116
      vertex -2.5 -2 116
    endloop
  endfacet
  facet normal 0 -0 1
    outer loop
      vertex -4.425 1.73205 116
      vertex -2 2.5 116
      vertex -4.80697 1.90211 116
    endloop
  endfacet
  facet normal 0 0 1
    outer loop
      vertex -7 7.5 116
      vertex -1.98904 5.63406 116
      vertex -1.90211 6.04303 116
    endloop
  endfacet
  facet normal 0 0 1
    outer loop
      vertex -2.5 2 116
      vertex -3.43596 0.104245 116
      vertex -3.425 0 116
    endloop
  endfacet
  facet normal 0 0 1
    outer loop
      vertex -2.5 2 116
      vertex -3.46871 0.415823 116
      vertex -3.43596 0.104245 116
    endloop
  endfacet
  facet normal 0 0 1
    outer loop
      vertex -1.73205 6.425 116
      vertex -7 7.5 116
      vertex -1.90211 6.04303 116
    endloop
  endfacet
  facet normal 0 0 1
    outer loop
      vertex -2.5 2 116
      vertex -3.59791 0.813473 116
      vertex -3.46871 0.415823 116
    endloop
  endfacet
  facet normal 0 0 1
    outer loop
      vertex -2.5 2 116
      vertex -3.80697 1.17557 116
      vertex -3.59791 0.813473 116
    endloop
  endfacet
  facet normal 0 0 1
    outer loop
      vertex -2.5 2 116
      vertex -4.08674 1.48629 116
      vertex -3.80697 1.17557 116
    endloop
  endfacet
  facet normal 0 0 1
    outer loop
      vertex -2.5 2 116
      vertex -4.425 1.73205 116
      vertex -4.08674 1.48629 116
    endloop
  endfacet
  facet normal 0 0 1
    outer loop
      vertex -2 2.5 116
      vertex -4.425 1.73205 116
      vertex -2.5 2 116
    endloop
  endfacet
  facet normal 0 0 1
    outer loop
      vertex -1.98904 5.21594 116
      vertex -7 7.5 116
      vertex -5.21594 1.98904 116
    endloop
  endfacet
  facet normal 0 0 1
    outer loop
      vertex -1.98904 5.21594 116
      vertex -5.21594 1.98904 116
      vertex -4.80697 1.90211 116
    endloop
  endfacet
  facet normal -0 0 1
    outer loop
      vertex -7.5 7 116
      vertex -5.21594 1.98904 116
      vertex -7 7.5 116
    endloop
  endfacet
  facet normal 0 0 1
    outer loop
      vertex -5.21594 1.98904 116
      vertex -7.5 7 116
      vertex -5.63406 1.98904 116
    endloop
  endfacet
  facet normal 0 0 1
    outer loop
      vertex -5.63406 1.98904 116
      vertex -7.5 7 116
      vertex -6.04303 1.90211 116
    endloop
  endfacet
  facet normal 0 0 1
    outer loop
      vertex -6.04303 1.90211 116
      vertex -7.5 7 116
      vertex -6.425 1.73205 116
    endloop
  endfacet
  facet normal 0 0 1
    outer loop
      vertex -7.5 1.5 116
      vertex -6.425 1.73205 116
      vertex -7.5 7 116
    endloop
  endfacet
  facet normal 0 0 1
    outer loop
      vertex -6.425 1.73205 116
      vertex -7.5 1.5 116
      vertex -6.75 1.5 116
    endloop
  endfacet
  facet normal 0 0 1
    outer loop
      vertex -1.49592 6.75 116
      vertex -1.5 6.75 116
      vertex -1.73205 6.425 116
    endloop
  endfacet
  facet normal 0 0 1
    outer loop
      vertex 1.73205 -6.425 116
      vertex 1.49592 -6.75 116
      vertex 1.5 -6.75 116
    endloop
  endfacet
  facet normal 0 0 1
    outer loop
      vertex 4.80697 -1.90211 116
      vertex 1.90211 -4.80697 116
      vertex 1.98904 -5.21594 116
    endloop
  endfacet
  facet normal 0 0 1
    outer loop
      vertex 4.425 -1.73205 116
      vertex 1.73205 -4.425 116
      vertex 1.90211 -4.80697 116
    endloop
  endfacet
  facet normal 0 0 1
    outer loop
      vertex 2 -2.5 116
      vertex 1.48629 -4.08674 116
      vertex 1.73205 -4.425 116
    endloop
  endfacet
  facet normal 0 0 1
    outer loop
      vertex 2 -2.5 116
      vertex 1.17557 -3.80697 116
      vertex 1.48629 -4.08674 116
    endloop
  endfacet
  facet normal 0 0 1
    outer loop
      vertex 2 -2.5 116
      vertex 0.813473 -3.59791 116
      vertex 1.17557 -3.80697 116
    endloop
  endfacet
  facet normal 0 0 1
    outer loop
      vertex 2 -2.5 116
      vertex 0.415823 -3.46871 116
      vertex 0.813473 -3.59791 116
    endloop
  endfacet
  facet normal 0 0 1
    outer loop
      vertex 2 -2.5 116
      vertex 0.104245 -3.43596 116
      vertex 0.415823 -3.46871 116
    endloop
  endfacet
  facet normal 0 0 1
    outer loop
      vertex 2 -2.5 116
      vertex 0 -3.425 116
      vertex 0.104245 -3.43596 116
    endloop
  endfacet
  facet normal -0 0 1
    outer loop
      vertex -2 -2.5 116
      vertex 0 -3.425 116
      vertex 2 -2.5 116
    endloop
  endfacet
  facet normal 0 0 1
    outer loop
      vertex 0 -3.425 116
      vertex -2 -2.5 116
      vertex -0.104245 -3.43596 116
    endloop
  endfacet
  facet normal 0 0 1
    outer loop
      vertex -0.104245 -3.43596 116
      vertex -2 -2.5 116
      vertex -0.415823 -3.46871 116
    endloop
  endfacet
  facet normal 0 0 1
    outer loop
      vertex -1.90211 -4.80697 116
      vertex -4.80697 -1.90211 116
      vertex -1.98904 -5.21594 116
    endloop
  endfacet
  facet normal 0 0 1
    outer loop
      vertex -1.73205 -4.425 116
      vertex -4.80697 -1.90211 116
      vertex -1.90211 -4.80697 116
    endloop
  endfacet
  facet normal 0 0 1
    outer loop
      vertex -4.80697 -1.90211 116
      vertex -1.73205 -4.425 116
      vertex -2 -2.5 116
    endloop
  endfacet
  facet normal 0 0 1
    outer loop
      vertex -1.48629 -4.08674 116
      vertex -2 -2.5 116
      vertex -1.73205 -4.425 116
    endloop
  endfacet
  facet normal 0 0 1
    outer loop
      vertex -1.17557 -3.80697 116
      vertex -2 -2.5 116
      vertex -1.48629 -4.08674 116
    endloop
  endfacet
  facet normal 0 0 1
    outer loop
      vertex -0.813473 -3.59791 116
      vertex -2 -2.5 116
      vertex -1.17557 -3.80697 116
    endloop
  endfacet
  facet normal 0 0 1
    outer loop
      vertex -0.415823 -3.46871 116
      vertex -2 -2.5 116
      vertex -0.813473 -3.59791 116
    endloop
  endfacet
  facet normal 0 0 1
    outer loop
      vertex 5.21594 1.98904 116
      vertex 7.5 7 116
      vertex 7 7.5 116
    endloop
  endfacet
  facet normal 0 0 1
    outer loop
      vertex 7.5 7 116
      vertex 6.425 1.73205 116
      vertex 7.5 1.5 116
    endloop
  endfacet
  facet normal 0 0 1
    outer loop
      vertex 6.75 1.5 116
      vertex 6.425 1.73205 116
      vertex 6.75 1.49592 116
    endloop
  endfacet
  facet normal 0 0 1
    outer loop
      vertex 7.5 1.5 116
      vertex 6.425 1.73205 116
      vertex 6.75 1.5 116
    endloop
  endfacet
  facet normal 0 0 1
    outer loop
      vertex 7.5 7 116
      vertex 6.04303 1.90211 116
      vertex 6.425 1.73205 116
    endloop
  endfacet
  facet normal 0 0 1
    outer loop
      vertex 7.5 7 116
      vertex 5.63406 1.98904 116
      vertex 6.04303 1.90211 116
    endloop
  endfacet
  facet normal 0 0 1
    outer loop
      vertex 7.5 7 116
      vertex 5.21594 1.98904 116
      vertex 5.63406 1.98904 116
    endloop
  endfacet
  facet normal -0 0 1
    outer loop
      vertex 1.98904 5.21594 116
      vertex 5.21594 1.98904 116
      vertex 7 7.5 116
    endloop
  endfacet
  facet normal 0 0 1
    outer loop
      vertex 5.21594 1.98904 116
      vertex 1.98904 5.21594 116
      vertex 4.80697 1.90211 116
    endloop
  endfacet
  facet normal -0 0 1
    outer loop
      vertex 1.90211 4.80697 116
      vertex 4.80697 1.90211 116
      vertex 1.98904 5.21594 116
    endloop
  endfacet
  facet normal 0 0 1
    outer loop
      vertex 4.80697 1.90211 116
      vertex 1.90211 4.80697 116
      vertex 4.425 1.73205 116
    endloop
  endfacet
  facet normal -0 0 1
    outer loop
      vertex 1.73205 4.425 116
      vertex 4.425 1.73205 116
      vertex 1.90211 4.80697 116
    endloop
  endfacet
  facet normal 0 0 1
    outer loop
      vertex 2.5 2 116
      vertex 3.43596 0.104245 116
      vertex 3.46871 0.415823 116
    endloop
  endfacet
  facet normal 0 0 1
    outer loop
      vertex 3.43596 0.104245 116
      vertex 2.5 2 116
      vertex 3.425 0 116
    endloop
  endfacet
  facet normal 0 0 1
    outer loop
      vertex 3.59791 0.813473 116
      vertex 2.5 2 116
      vertex 3.46871 0.415823 116
    endloop
  endfacet
  facet normal 0 0 1
    outer loop
      vertex 3.80697 1.17557 116
      vertex 2.5 2 116
      vertex 3.59791 0.813473 116
    endloop
  endfacet
  facet normal 0 0 1
    outer loop
      vertex 4.08674 1.48629 116
      vertex 2.5 2 116
      vertex 3.80697 1.17557 116
    endloop
  endfacet
  facet normal 0 0 1
    outer loop
      vertex 1.98904 5.21594 116
      vertex 7 7.5 116
      vertex 1.98904 5.63406 116
    endloop
  endfacet
  facet normal 0 0 1
    outer loop
      vertex 7 7.5 116
      vertex 1.90211 6.04303 116
      vertex 1.98904 5.63406 116
    endloop
  endfacet
  facet normal 0 0 1
    outer loop
      vertex 7 7.5 116
      vertex 1.73205 6.425 116
      vertex 1.90211 6.04303 116
    endloop
  endfacet
  facet normal -0 0 1
    outer loop
      vertex 1.5 7.5 116
      vertex 1.73205 6.425 116
      vertex 7 7.5 116
    endloop
  endfacet
  facet normal -0 0 1
    outer loop
      vertex 1.5 6.75 116
      vertex 1.73205 6.425 116
      vertex 1.5 7.5 116
    endloop
  endfacet
  facet normal 0 0 1
    outer loop
      vertex 1.73205 6.425 116
      vertex 1.5 6.75 116
      vertex 1.49592 6.75 116
    endloop
  endfacet
  facet normal 0 0 1
    outer loop
      vertex 6.75 -1.49592 116
      vertex 6.425 -1.73205 116
      vertex 6.75 -1.5 116
    endloop
  endfacet
  facet normal -0 0 1
    outer loop
      vertex 6.425 -1.73205 116
      vertex 7.5 -7 116
      vertex 7.5 -1.5 116
    endloop
  endfacet
  facet normal 0 0 1
    outer loop
      vertex 6.425 -1.73205 116
      vertex 7.5 -1.5 116
      vertex 6.75 -1.5 116
    endloop
  endfacet
  facet normal -0 0 1
    outer loop
      vertex 6.04303 -1.90211 116
      vertex 7.5 -7 116
      vertex 6.425 -1.73205 116
    endloop
  endfacet
  facet normal -0 0 1
    outer loop
      vertex 5.63406 -1.98904 116
      vertex 7.5 -7 116
      vertex 6.04303 -1.90211 116
    endloop
  endfacet
  facet normal -0 0 1
    outer loop
      vertex 5.21594 -1.98904 116
      vertex 7.5 -7 116
      vertex 5.63406 -1.98904 116
    endloop
  endfacet
  facet normal 0 0 1
    outer loop
      vertex 7.5 -7 116
      vertex 5.21594 -1.98904 116
      vertex 7 -7.5 116
    endloop
  endfacet
  facet normal 0 0 1
    outer loop
      vertex 1.98904 -5.21594 116
      vertex 5.21594 -1.98904 116
      vertex 4.80697 -1.90211 116
    endloop
  endfacet
  facet normal 0 0 1
    outer loop
      vertex 1.73205 -4.425 116
      vertex 4.425 -1.73205 116
      vertex 2 -2.5 116
    endloop
  endfacet
  facet normal 0 0 1
    outer loop
      vertex 2.5 -2 116
      vertex 4.425 -1.73205 116
      vertex 4.08674 -1.48629 116
    endloop
  endfacet
  facet normal 0 0 1
    outer loop
      vertex 2.5 -2 116
      vertex 4.08674 -1.48629 116
      vertex 3.80697 -1.17557 116
    endloop
  endfacet
  facet normal 0 0 1
    outer loop
      vertex 2.5 -2 116
      vertex 3.80697 -1.17557 116
      vertex 3.59791 -0.813473 116
    endloop
  endfacet
  facet normal 0 0 1
    outer loop
      vertex 2.5 -2 116
      vertex 3.43596 -0.104245 116
      vertex 3.425 0 116
    endloop
  endfacet
  facet normal 0 0 1
    outer loop
      vertex 2.5 -2 116
      vertex 3.425 0 116
      vertex 2.5 2 116
    endloop
  endfacet
  facet normal 0 0 1
    outer loop
      vertex 3.43596 -0.104245 116
      vertex 2.5 -2 116
      vertex 3.46871 -0.415823 116
    endloop
  endfacet
  facet normal 0 0 1
    outer loop
      vertex 3.46871 -0.415823 116
      vertex 2.5 -2 116
      vertex 3.59791 -0.813473 116
    endloop
  endfacet
  facet normal 0 0 1
    outer loop
      vertex 2 -2.5 116
      vertex 4.425 -1.73205 116
      vertex 2.5 -2 116
    endloop
  endfacet
  facet normal 0 0 1
    outer loop
      vertex 4.425 -1.73205 116
      vertex 1.90211 -4.80697 116
      vertex 4.80697 -1.90211 116
    endloop
  endfacet
  facet normal 0 0 1
    outer loop
      vertex 5.21594 -1.98904 116
      vertex 1.98904 -5.21594 116
      vertex 7 -7.5 116
    endloop
  endfacet
  facet normal -0 0 1
    outer loop
      vertex 1.98904 -5.63406 116
      vertex 7 -7.5 116
      vertex 1.98904 -5.21594 116
    endloop
  endfacet
  facet normal -0 0 1
    outer loop
      vertex 1.90211 -6.04303 116
      vertex 7 -7.5 116
      vertex 1.98904 -5.63406 116
    endloop
  endfacet
  facet normal -0 0 1
    outer loop
      vertex 1.73205 -6.425 116
      vertex 7 -7.5 116
      vertex 1.90211 -6.04303 116
    endloop
  endfacet
  facet normal 0 0 1
    outer loop
      vertex 1.5 -7.5 116
      vertex 1.73205 -6.425 116
      vertex 1.5 -6.75 116
    endloop
  endfacet
  facet normal 0 0 1
    outer loop
      vertex 1.73205 -6.425 116
      vertex 1.5 -7.5 116
      vertex 7 -7.5 116
    endloop
  endfacet
  facet normal 0 0 1
    outer loop
      vertex 4.425 1.73205 116
      vertex 2.5 2 116
      vertex 4.08674 1.48629 116
    endloop
  endfacet
  facet normal 0 0 1
    outer loop
      vertex 4.425 1.73205 116
      vertex 1.73205 4.425 116
      vertex 2.5 2 116
    endloop
  endfacet
  facet normal 0 0 1
    outer loop
      vertex 2.5 2 116
      vertex 1.73205 4.425 116
      vertex 2 2.5 116
    endloop
  endfacet
  facet normal -0 0 1
    outer loop
      vertex 1.48629 4.08674 116
      vertex 2 2.5 116
      vertex 1.73205 4.425 116
    endloop
  endfacet
  facet normal -0 0 1
    outer loop
      vertex 1.17557 3.80697 116
      vertex 2 2.5 116
      vertex 1.48629 4.08674 116
    endloop
  endfacet
  facet normal -0 0 1
    outer loop
      vertex 0.813473 3.59791 116
      vertex 2 2.5 116
      vertex 1.17557 3.80697 116
    endloop
  endfacet
  facet normal -0 0 1
    outer loop
      vertex 0.415823 3.46871 116
      vertex 2 2.5 116
      vertex 0.813473 3.59791 116
    endloop
  endfacet
  facet normal -0 0 1
    outer loop
      vertex 0.104245 3.43596 116
      vertex 2 2.5 116
      vertex 0.415823 3.46871 116
    endloop
  endfacet
  facet normal -0 0 1
    outer loop
      vertex 0 3.425 116
      vertex 2 2.5 116
      vertex 0.104245 3.43596 116
    endloop
  endfacet
  facet normal 0 0 1
    outer loop
      vertex -2 2.5 116
      vertex 0 3.425 116
      vertex -0.104245 3.43596 116
    endloop
  endfacet
  facet normal 0 0 1
    outer loop
      vertex -2 2.5 116
      vertex -0.104245 3.43596 116
      vertex -0.415823 3.46871 116
    endloop
  endfacet
  facet normal 0 0 1
    outer loop
      vertex -2 2.5 116
      vertex -0.415823 3.46871 116
      vertex -0.813473 3.59791 116
    endloop
  endfacet
  facet normal 0 0 1
    outer loop
      vertex 0 3.425 116
      vertex -2 2.5 116
      vertex 2 2.5 116
    endloop
  endfacet
  facet normal 0 0 1
    outer loop
      vertex -1.17557 3.80697 116
      vertex -2 2.5 116
      vertex -0.813473 3.59791 116
    endloop
  endfacet
  facet normal 0 0 1
    outer loop
      vertex -1.48629 4.08674 116
      vertex -2 2.5 116
      vertex -1.17557 3.80697 116
    endloop
  endfacet
  facet normal 0 0 1
    outer loop
      vertex -1.73205 4.425 116
      vertex -2 2.5 116
      vertex -1.48629 4.08674 116
    endloop
  endfacet
  facet normal 0 0 1
    outer loop
      vertex -1.90211 4.80697 116
      vertex -2 2.5 116
      vertex -1.73205 4.425 116
    endloop
  endfacet
  facet normal 0 0 1
    outer loop
      vertex -2 2.5 116
      vertex -1.90211 4.80697 116
      vertex -1.98904 5.21594 116
    endloop
  endfacet
  facet normal 0 0 1
    outer loop
      vertex -1.73205 -6.425 116
      vertex -1.5 -6.75 116
      vertex -1.49592 -6.75 116
    endloop
  endfacet
  facet normal 0 0 1
    outer loop
      vertex -1.73205 -6.425 116
      vertex -1.5 -7.5 116
      vertex -1.5 -6.75 116
    endloop
  endfacet
  facet normal 0 0 1
    outer loop
      vertex -7 -7.5 116
      vertex -1.73205 -6.425 116
      vertex -1.90211 -6.04303 116
    endloop
  endfacet
  facet normal 0 0 1
    outer loop
      vertex -4.425 -1.73205 116
      vertex -2 -2.5 116
      vertex -2.5 -2 116
    endloop
  endfacet
  facet normal -0 0 1
    outer loop
      vertex -3.43596 -0.104245 116
      vertex -2.5 -2 116
      vertex -3.425 0 116
    endloop
  endfacet
  facet normal -0 0 1
    outer loop
      vertex -3.46871 -0.415823 116
      vertex -2.5 -2 116
      vertex -3.43596 -0.104245 116
    endloop
  endfacet
  facet normal -0 0 1
    outer loop
      vertex -3.59791 -0.813473 116
      vertex -2.5 -2 116
      vertex -3.46871 -0.415823 116
    endloop
  endfacet
  facet normal -0 0 1
    outer loop
      vertex -3.80697 -1.17557 116
      vertex -2.5 -2 116
      vertex -3.59791 -0.813473 116
    endloop
  endfacet
  facet normal -0 0 1
    outer loop
      vertex -4.08674 -1.48629 116
      vertex -2.5 -2 116
      vertex -3.80697 -1.17557 116
    endloop
  endfacet
  facet normal -0 0 1
    outer loop
      vertex -4.425 -1.73205 116
      vertex -2.5 -2 116
      vertex -4.08674 -1.48629 116
    endloop
  endfacet
  facet normal 0 0 1
    outer loop
      vertex -2 -2.5 116
      vertex -4.425 -1.73205 116
      vertex -4.80697 -1.90211 116
    endloop
  endfacet
  facet normal -0 0 1
    outer loop
      vertex -5.21594 -1.98904 116
      vertex -1.98904 -5.21594 116
      vertex -4.80697 -1.90211 116
    endloop
  endfacet
  facet normal 0 0 1
    outer loop
      vertex -7 -7.5 116
      vertex -1.98904 -5.21594 116
      vertex -5.21594 -1.98904 116
    endloop
  endfacet
  facet normal 0 0 1
    outer loop
      vertex -1.98904 -5.21594 116
      vertex -7 -7.5 116
      vertex -1.98904 -5.63406 116
    endloop
  endfacet
  facet normal 0 0 1
    outer loop
      vertex -1.98904 -5.63406 116
      vertex -7 -7.5 116
      vertex -1.90211 -6.04303 116
    endloop
  endfacet
  facet normal 0 0 1
    outer loop
      vertex -7.5 -7 116
      vertex -5.21594 -1.98904 116
      vertex -5.63406 -1.98904 116
    endloop
  endfacet
  facet normal 0 0 1
    outer loop
      vertex -7.5 -7 116
      vertex -5.63406 -1.98904 116
      vertex -6.04303 -1.90211 116
    endloop
  endfacet
  facet normal 0 0 1
    outer loop
      vertex -7.5 -7 116
      vertex -6.04303 -1.90211 116
      vertex -6.425 -1.73205 116
    endloop
  endfacet
  facet normal -0 0 1
    outer loop
      vertex -6.75 -1.5 116
      vertex -6.425 -1.73205 116
      vertex -6.75 -1.49592 116
    endloop
  endfacet
  facet normal -0 0 1
    outer loop
      vertex -7.5 -1.5 116
      vertex -6.425 -1.73205 116
      vertex -6.75 -1.5 116
    endloop
  endfacet
  facet normal 0 0 1
    outer loop
      vertex -1.73205 -6.425 116
      vertex -7 -7.5 116
      vertex -1.5 -7.5 116
    endloop
  endfacet
  facet normal 0 0 1
    outer loop
      vertex -6.425 -1.73205 116
      vertex -7.5 -1.5 116
      vertex -7.5 -7 116
    endloop
  endfacet
  facet normal 0 0 1
    outer loop
      vertex -5.21594 -1.98904 116
      vertex -7.5 -7 116
      vertex -7 -7.5 116
    endloop
  endfacet
  facet normal 0 0 1
    outer loop
      vertex -6.425 1.73205 116
      vertex -6.75 1.5 116
      vertex -6.75 1.49592 116
    endloop
  endfacet
  facet normal 0 0 -1
    outer loop
      vertex -1.5 -7.5 0
      vertex -1.73205 -6.425 0
      vertex -1.5 -6.75 0
    endloop
  endfacet
  facet normal 0 0 -1
    outer loop
      vertex -7 -7.5 0
      vertex -1.73205 -6.425 0
      vertex -1.5 -7.5 0
    endloop
  endfacet
  facet normal 0 0 -1
    outer loop
      vertex -7 -7.5 0
      vertex -1.98904 -5.21594 0
      vertex -1.98904 -5.63406 0
    endloop
  endfacet
  facet normal 0 0 -1
    outer loop
      vertex -1.98904 -5.21594 0
      vertex -4.80697 -1.90211 0
      vertex -2 -2.5 0
    endloop
  endfacet
  facet normal 0 0 -1
    outer loop
      vertex -2.5 -2 0
      vertex -3.425 0 0
      vertex -2.5 2 0
    endloop
  endfacet
  facet normal 0 -0 -1
    outer loop
      vertex -4.425 -1.73205 0
      vertex -2 -2.5 0
      vertex -4.80697 -1.90211 0
    endloop
  endfacet
  facet normal 0 0 -1
    outer loop
      vertex -7 -7.5 0
      vertex -1.98904 -5.63406 0
      vertex -1.90211 -6.04303 0
    endloop
  endfacet
  facet normal 0 0 -1
    outer loop
      vertex -2.5 -2 0
      vertex -3.43596 -0.104245 0
      vertex -3.425 0 0
    endloop
  endfacet
  facet normal 0 0 -1
    outer loop
      vertex -2.5 -2 0
      vertex -3.46871 -0.415823 0
      vertex -3.43596 -0.104245 0
    endloop
  endfacet
  facet normal -0 0 -1
    outer loop
      vertex -1.73205 -6.425 0
      vertex -7 -7.5 0
      vertex -1.90211 -6.04303 0
    endloop
  endfacet
  facet normal 0 0 -1
    outer loop
      vertex -2.5 -2 0
      vertex -3.59791 -0.813473 0
      vertex -3.46871 -0.415823 0
    endloop
  endfacet
  facet normal 0 0 -1
    outer loop
      vertex -2.5 -2 0
      vertex -3.80697 -1.17557 0
      vertex -3.59791 -0.813473 0
    endloop
  endfacet
  facet normal 0 0 -1
    outer loop
      vertex -2.5 -2 0
      vertex -4.08674 -1.48629 0
      vertex -3.80697 -1.17557 0
    endloop
  endfacet
  facet normal 0 0 -1
    outer loop
      vertex -2.5 -2 0
      vertex -4.425 -1.73205 0
      vertex -4.08674 -1.48629 0
    endloop
  endfacet
  facet normal 0 0 -1
    outer loop
      vertex -2 -2.5 0
      vertex -4.425 -1.73205 0
      vertex -2.5 -2 0
    endloop
  endfacet
  facet normal -0 0 -1
    outer loop
      vertex -1.98904 -5.21594 0
      vertex -7 -7.5 0
      vertex -5.21594 -1.98904 0
    endloop
  endfacet
  facet normal 0 0 -1
    outer loop
      vertex -1.98904 -5.21594 0
      vertex -5.21594 -1.98904 0
      vertex -4.80697 -1.90211 0
    endloop
  endfacet
  facet normal 0 0 -1
    outer loop
      vertex -7.5 -7 0
      vertex -5.21594 -1.98904 0
      vertex -7 -7.5 0
    endloop
  endfacet
  facet normal -0 0 -1
    outer loop
      vertex -5.21594 -1.98904 0
      vertex -7.5 -7 0
      vertex -5.63406 -1.98904 0
    endloop
  endfacet
  facet normal -0 0 -1
    outer loop
      vertex -5.63406 -1.98904 0
      vertex -7.5 -7 0
      vertex -6.04303 -1.90211 0
    endloop
  endfacet
  facet normal -0 0 -1
    outer loop
      vertex -6.04303 -1.90211 0
      vertex -7.5 -7 0
      vertex -6.425 -1.73205 0
    endloop
  endfacet
  facet normal 0 0 -1
    outer loop
      vertex -7.5 -1.5 0
      vertex -6.425 -1.73205 0
      vertex -7.5 -7 0
    endloop
  endfacet
  facet normal 0 0 -1
    outer loop
      vertex -6.425 -1.73205 0
      vertex -7.5 -1.5 0
      vertex -6.75 -1.5 0
    endloop
  endfacet
  facet normal 0 0 -1
    outer loop
      vertex -1.49592 -6.75 0
      vertex -1.5 -6.75 0
      vertex -1.73205 -6.425 0
    endloop
  endfacet
  facet normal 0 0 -1
    outer loop
      vertex 1.73205 6.425 0
      vertex 1.49592 6.75 0
      vertex 1.5 6.75 0
    endloop
  endfacet
  facet normal 0 0 -1
    outer loop
      vertex 4.80697 1.90211 0
      vertex 1.90211 4.80697 0
      vertex 1.98904 5.21594 0
    endloop
  endfacet
  facet normal 0 0 -1
    outer loop
      vertex 4.425 1.73205 0
      vertex 1.73205 4.425 0
      vertex 1.90211 4.80697 0
    endloop
  endfacet
  facet normal 0 0 -1
    outer loop
      vertex 2 2.5 0
      vertex 1.48629 4.08674 0
      vertex 1.73205 4.425 0
    endloop
  endfacet
  facet normal 0 0 -1
    outer loop
      vertex 2 2.5 0
      vertex 1.17557 3.80697 0
      vertex 1.48629 4.08674 0
    endloop
  endfacet
  facet normal 0 0 -1
    outer loop
      vertex 2 2.5 0
      vertex 0.813473 3.59791 0
      vertex 1.17557 3.80697 0
    endloop
  endfacet
  facet normal 0 0 -1
    outer loop
      vertex 2 2.5 0
      vertex 0.415823 3.46871 0
      vertex 0.813473 3.59791 0
    endloop
  endfacet
  facet normal 0 0 -1
    outer loop
      vertex 2 2.5 0
      vertex 0.104245 3.43596 0
      vertex 0.415823 3.46871 0
    endloop
  endfacet
  facet normal 0 0 -1
    outer loop
      vertex 2 2.5 0
      vertex 0 3.425 0
      vertex 0.104245 3.43596 0
    endloop
  endfacet
  facet normal 0 0 -1
    outer loop
      vertex -2 2.5 0
      vertex 0 3.425 0
      vertex 2 2.5 0
    endloop
  endfacet
  facet normal -0 0 -1
    outer loop
      vertex 0 3.425 0
      vertex -2 2.5 0
      vertex -0.104245 3.43596 0
    endloop
  endfacet
  facet normal -0 0 -1
    outer loop
      vertex -0.104245 3.43596 0
      vertex -2 2.5 0
      vertex -0.415823 3.46871 0
    endloop
  endfacet
  facet normal -0 0 -1
    outer loop
      vertex -1.90211 4.80697 0
      vertex -4.80697 1.90211 0
      vertex -1.98904 5.21594 0
    endloop
  endfacet
  facet normal -0 0 -1
    outer loop
      vertex -1.73205 4.425 0
      vertex -4.80697 1.90211 0
      vertex -1.90211 4.80697 0
    endloop
  endfacet
  facet normal 0 0 -1
    outer loop
      vertex -4.80697 1.90211 0
      vertex -1.73205 4.425 0
      vertex -2 2.5 0
    endloop
  endfacet
  facet normal -0 0 -1
    outer loop
      vertex -1.48629 4.08674 0
      vertex -2 2.5 0
      vertex -1.73205 4.425 0
    endloop
  endfacet
  facet normal -0 0 -1
    outer loop
      vertex -1.17557 3.80697 0
      vertex -2 2.5 0
      vertex -1.48629 4.08674 0
    endloop
  endfacet
  facet normal -0 0 -1
    outer loop
      vertex -0.813473 3.59791 0
      vertex -2 2.5 0
      vertex -1.17557 3.80697 0
    endloop
  endfacet
  facet normal -0 0 -1
    outer loop
      vertex -0.415823 3.46871 0
      vertex -2 2.5 0
      vertex -0.813473 3.59791 0
    endloop
  endfacet
  facet normal 0 0 -1
    outer loop
      vertex 5.21594 -1.98904 0
      vertex 7.5 -7 0
      vertex 7 -7.5 0
    endloop
  endfacet
  facet normal 0 0 -1
    outer loop
      vertex 7.5 -7 0
      vertex 6.425 -1.73205 0
      vertex 7.5 -1.5 0
    endloop
  endfacet
  facet normal -0 0 -1
    outer loop
      vertex 6.75 -1.5 0
      vertex 6.425 -1.73205 0
      vertex 6.75 -1.49592 0
    endloop
  endfacet
  facet normal -0 0 -1
    outer loop
      vertex 7.5 -1.5 0
      vertex 6.425 -1.73205 0
      vertex 6.75 -1.5 0
    endloop
  endfacet
  facet normal 0 0 -1
    outer loop
      vertex 7.5 -7 0
      vertex 6.04303 -1.90211 0
      vertex 6.425 -1.73205 0
    endloop
  endfacet
  facet normal 0 0 -1
    outer loop
      vertex 7.5 -7 0
      vertex 5.63406 -1.98904 0
      vertex 6.04303 -1.90211 0
    endloop
  endfacet
  facet normal 0 0 -1
    outer loop
      vertex 7.5 -7 0
      vertex 5.21594 -1.98904 0
      vertex 5.63406 -1.98904 0
    endloop
  endfacet
  facet normal 0 0 -1
    outer loop
      vertex 1.98904 -5.21594 0
      vertex 5.21594 -1.98904 0
      vertex 7 -7.5 0
    endloop
  endfacet
  facet normal -0 0 -1
    outer loop
      vertex 5.21594 -1.98904 0
      vertex 1.98904 -5.21594 0
      vertex 4.80697 -1.90211 0
    endloop
  endfacet
  facet normal 0 0 -1
    outer loop
      vertex 1.90211 -4.80697 0
      vertex 4.80697 -1.90211 0
      vertex 1.98904 -5.21594 0
    endloop
  endfacet
  facet normal -0 0 -1
    outer loop
      vertex 4.80697 -1.90211 0
      vertex 1.90211 -4.80697 0
      vertex 4.425 -1.73205 0
    endloop
  endfacet
  facet normal 0 0 -1
    outer loop
      vertex 1.73205 -4.425 0
      vertex 4.425 -1.73205 0
      vertex 1.90211 -4.80697 0
    endloop
  endfacet
  facet normal 0 0 -1
    outer loop
      vertex 2.5 -2 0
      vertex 3.43596 -0.104245 0
      vertex 3.46871 -0.415823 0
    endloop
  endfacet
  facet normal -0 0 -1
    outer loop
      vertex 3.43596 -0.104245 0
      vertex 2.5 -2 0
      vertex 3.425 0 0
    endloop
  endfacet
  facet normal -0 0 -1
    outer loop
      vertex 3.59791 -0.813473 0
      vertex 2.5 -2 0
      vertex 3.46871 -0.415823 0
    endloop
  endfacet
  facet normal -0 0 -1
    outer loop
      vertex 3.80697 -1.17557 0
      vertex 2.5 -2 0
      vertex 3.59791 -0.813473 0
    endloop
  endfacet
  facet normal -0 0 -1
    outer loop
      vertex 4.08674 -1.48629 0
      vertex 2.5 -2 0
      vertex 3.80697 -1.17557 0
    endloop
  endfacet
  facet normal 0 0 -1
    outer loop
      vertex 1.98904 -5.21594 0
      vertex 7 -7.5 0
      vertex 1.98904 -5.63406 0
    endloop
  endfacet
  facet normal 0 0 -1
    outer loop
      vertex 7 -7.5 0
      vertex 1.90211 -6.04303 0
      vertex 1.98904 -5.63406 0
    endloop
  endfacet
  facet normal 0 0 -1
    outer loop
      vertex 7 -7.5 0
      vertex 1.73205 -6.425 0
      vertex 1.90211 -6.04303 0
    endloop
  endfacet
  facet normal 0 0 -1
    outer loop
      vertex 1.5 -7.5 0
      vertex 1.73205 -6.425 0
      vertex 7 -7.5 0
    endloop
  endfacet
  facet normal 0 0 -1
    outer loop
      vertex 1.5 -6.75 0
      vertex 1.73205 -6.425 0
      vertex 1.5 -7.5 0
    endloop
  endfacet
  facet normal 0 0 -1
    outer loop
      vertex 1.73205 -6.425 0
      vertex 1.5 -6.75 0
      vertex 1.49592 -6.75 0
    endloop
  endfacet
  facet normal 0 0 -1
    outer loop
      vertex 6.75 1.49592 0
      vertex 6.425 1.73205 0
      vertex 6.75 1.5 0
    endloop
  endfacet
  facet normal 0 0 -1
    outer loop
      vertex 6.425 1.73205 0
      vertex 7.5 7 0
      vertex 7.5 1.5 0
    endloop
  endfacet
  facet normal 0 0 -1
    outer loop
      vertex 6.425 1.73205 0
      vertex 7.5 1.5 0
      vertex 6.75 1.5 0
    endloop
  endfacet
  facet normal 0 0 -1
    outer loop
      vertex 6.04303 1.90211 0
      vertex 7.5 7 0
      vertex 6.425 1.73205 0
    endloop
  endfacet
  facet normal 0 0 -1
    outer loop
      vertex 5.63406 1.98904 0
      vertex 7.5 7 0
      vertex 6.04303 1.90211 0
    endloop
  endfacet
  facet normal 0 0 -1
    outer loop
      vertex 5.21594 1.98904 0
      vertex 7.5 7 0
      vertex 5.63406 1.98904 0
    endloop
  endfacet
  facet normal -0 0 -1
    outer loop
      vertex 7.5 7 0
      vertex 5.21594 1.98904 0
      vertex 7 7.5 0
    endloop
  endfacet
  facet normal 0 0 -1
    outer loop
      vertex 1.98904 5.21594 0
      vertex 5.21594 1.98904 0
      vertex 4.80697 1.90211 0
    endloop
  endfacet
  facet normal 0 0 -1
    outer loop
      vertex 1.73205 4.425 0
      vertex 4.425 1.73205 0
      vertex 2 2.5 0
    endloop
  endfacet
  facet normal 0 0 -1
    outer loop
      vertex 2.5 2 0
      vertex 4.425 1.73205 0
      vertex 4.08674 1.48629 0
    endloop
  endfacet
  facet normal 0 0 -1
    outer loop
      vertex 2.5 2 0
      vertex 4.08674 1.48629 0
      vertex 3.80697 1.17557 0
    endloop
  endfacet
  facet normal 0 0 -1
    outer loop
      vertex 2.5 2 0
      vertex 3.80697 1.17557 0
      vertex 3.59791 0.813473 0
    endloop
  endfacet
  facet normal 0 0 -1
    outer loop
      vertex 2.5 2 0
      vertex 3.43596 0.104245 0
      vertex 3.425 0 0
    endloop
  endfacet
  facet normal 0 0 -1
    outer loop
      vertex 2.5 2 0
      vertex 3.425 0 0
      vertex 2.5 -2 0
    endloop
  endfacet
  facet normal 0 0 -1
    outer loop
      vertex 3.43596 0.104245 0
      vertex 2.5 2 0
      vertex 3.46871 0.415823 0
    endloop
  endfacet
  facet normal 0 0 -1
    outer loop
      vertex 3.46871 0.415823 0
      vertex 2.5 2 0
      vertex 3.59791 0.813473 0
    endloop
  endfacet
  facet normal 0 0 -1
    outer loop
      vertex 2 2.5 0
      vertex 4.425 1.73205 0
      vertex 2.5 2 0
    endloop
  endfacet
  facet normal 0 0 -1
    outer loop
      vertex 4.425 1.73205 0
      vertex 1.90211 4.80697 0
      vertex 4.80697 1.90211 0
    endloop
  endfacet
  facet normal 0 0 -1
    outer loop
      vertex 5.21594 1.98904 0
      vertex 1.98904 5.21594 0
      vertex 7 7.5 0
    endloop
  endfacet
  facet normal 0 0 -1
    outer loop
      vertex 1.98904 5.63406 0
      vertex 7 7.5 0
      vertex 1.98904 5.21594 0
    endloop
  endfacet
  facet normal 0 0 -1
    outer loop
      vertex 1.90211 6.04303 0
      vertex 7 7.5 0
      vertex 1.98904 5.63406 0
    endloop
  endfacet
  facet normal 0 0 -1
    outer loop
      vertex 1.73205 6.425 0
      vertex 7 7.5 0
      vertex 1.90211 6.04303 0
    endloop
  endfacet
  facet normal 0 0 -1
    outer loop
      vertex 1.5 7.5 0
      vertex 1.73205 6.425 0
      vertex 1.5 6.75 0
    endloop
  endfacet
  facet normal 0 0 -1
    outer loop
      vertex 1.73205 6.425 0
      vertex 1.5 7.5 0
      vertex 7 7.5 0
    endloop
  endfacet
  facet normal -0 0 -1
    outer loop
      vertex 4.425 -1.73205 0
      vertex 2.5 -2 0
      vertex 4.08674 -1.48629 0
    endloop
  endfacet
  facet normal 0 0 -1
    outer loop
      vertex 4.425 -1.73205 0
      vertex 1.73205 -4.425 0
      vertex 2.5 -2 0
    endloop
  endfacet
  facet normal 0 0 -1
    outer loop
      vertex 2.5 -2 0
      vertex 1.73205 -4.425 0
      vertex 2 -2.5 0
    endloop
  endfacet
  facet normal 0 0 -1
    outer loop
      vertex 1.48629 -4.08674 0
      vertex 2 -2.5 0
      vertex 1.73205 -4.425 0
    endloop
  endfacet
  facet normal 0 0 -1
    outer loop
      vertex 1.17557 -3.80697 0
      vertex 2 -2.5 0
      vertex 1.48629 -4.08674 0
    endloop
  endfacet
  facet normal 0 0 -1
    outer loop
      vertex 0.813473 -3.59791 0
      vertex 2 -2.5 0
      vertex 1.17557 -3.80697 0
    endloop
  endfacet
  facet normal 0 0 -1
    outer loop
      vertex 0.415823 -3.46871 0
      vertex 2 -2.5 0
      vertex 0.813473 -3.59791 0
    endloop
  endfacet
  facet normal 0 0 -1
    outer loop
      vertex 0.104245 -3.43596 0
      vertex 2 -2.5 0
      vertex 0.415823 -3.46871 0
    endloop
  endfacet
  facet normal 0 0 -1
    outer loop
      vertex 0 -3.425 0
      vertex 2 -2.5 0
      vertex 0.104245 -3.43596 0
    endloop
  endfacet
  facet normal 0 0 -1
    outer loop
      vertex -2 -2.5 0
      vertex 0 -3.425 0
      vertex -0.104245 -3.43596 0
    endloop
  endfacet
  facet normal 0 0 -1
    outer loop
      vertex -2 -2.5 0
      vertex -0.104245 -3.43596 0
      vertex -0.415823 -3.46871 0
    endloop
  endfacet
  facet normal 0 0 -1
    outer loop
      vertex -2 -2.5 0
      vertex -0.415823 -3.46871 0
      vertex -0.813473 -3.59791 0
    endloop
  endfacet
  facet normal 0 0 -1
    outer loop
      vertex 0 -3.425 0
      vertex -2 -2.5 0
      vertex 2 -2.5 0
    endloop
  endfacet
  facet normal 0 0 -1
    outer loop
      vertex -1.17557 -3.80697 0
      vertex -2 -2.5 0
      vertex -0.813473 -3.59791 0
    endloop
  endfacet
  facet normal 0 0 -1
    outer loop
      vertex -1.48629 -4.08674 0
      vertex -2 -2.5 0
      vertex -1.17557 -3.80697 0
    endloop
  endfacet
  facet normal 0 0 -1
    outer loop
      vertex -1.73205 -4.425 0
      vertex -2 -2.5 0
      vertex -1.48629 -4.08674 0
    endloop
  endfacet
  facet normal 0 0 -1
    outer loop
      vertex -1.90211 -4.80697 0
      vertex -2 -2.5 0
      vertex -1.73205 -4.425 0
    endloop
  endfacet
  facet normal 0 0 -1
    outer loop
      vertex -2 -2.5 0
      vertex -1.90211 -4.80697 0
      vertex -1.98904 -5.21594 0
    endloop
  endfacet
  facet normal 0 0 -1
    outer loop
      vertex -1.73205 6.425 0
      vertex -1.5 6.75 0
      vertex -1.49592 6.75 0
    endloop
  endfacet
  facet normal 0 0 -1
    outer loop
      vertex -1.73205 6.425 0
      vertex -1.5 7.5 0
      vertex -1.5 6.75 0
    endloop
  endfacet
  facet normal 0 0 -1
    outer loop
      vertex -7 7.5 0
      vertex -1.73205 6.425 0
      vertex -1.90211 6.04303 0
    endloop
  endfacet
  facet normal 0 0 -1
    outer loop
      vertex -4.425 1.73205 0
      vertex -2 2.5 0
      vertex -2.5 2 0
    endloop
  endfacet
  facet normal 0 0 -1
    outer loop
      vertex -3.43596 0.104245 0
      vertex -2.5 2 0
      vertex -3.425 0 0
    endloop
  endfacet
  facet normal 0 0 -1
    outer loop
      vertex -3.46871 0.415823 0
      vertex -2.5 2 0
      vertex -3.43596 0.104245 0
    endloop
  endfacet
  facet normal 0 0 -1
    outer loop
      vertex -3.59791 0.813473 0
      vertex -2.5 2 0
      vertex -3.46871 0.415823 0
    endloop
  endfacet
  facet normal 0 0 -1
    outer loop
      vertex -3.80697 1.17557 0
      vertex -2.5 2 0
      vertex -3.59791 0.813473 0
    endloop
  endfacet
  facet normal 0 0 -1
    outer loop
      vertex -4.08674 1.48629 0
      vertex -2.5 2 0
      vertex -3.80697 1.17557 0
    endloop
  endfacet
  facet normal 0 0 -1
    outer loop
      vertex -4.425 1.73205 0
      vertex -2.5 2 0
      vertex -4.08674 1.48629 0
    endloop
  endfacet
  facet normal 0 0 -1
    outer loop
      vertex -2 2.5 0
      vertex -4.425 1.73205 0
      vertex -4.80697 1.90211 0
    endloop
  endfacet
  facet normal 0 0 -1
    outer loop
      vertex -5.21594 1.98904 0
      vertex -1.98904 5.21594 0
      vertex -4.80697 1.90211 0
    endloop
  endfacet
  facet normal 0 0 -1
    outer loop
      vertex -7 7.5 0
      vertex -1.98904 5.21594 0
      vertex -5.21594 1.98904 0
    endloop
  endfacet
  facet normal 0 0 -1
    outer loop
      vertex -1.98904 5.21594 0
      vertex -7 7.5 0
      vertex -1.98904 5.63406 0
    endloop
  endfacet
  facet normal 0 0 -1
    outer loop
      vertex -1.98904 5.63406 0
      vertex -7 7.5 0
      vertex -1.90211 6.04303 0
    endloop
  endfacet
  facet normal 0 0 -1
    outer loop
      vertex -7.5 7 0
      vertex -5.21594 1.98904 0
      vertex -5.63406 1.98904 0
    endloop
  endfacet
  facet normal 0 0 -1
    outer loop
      vertex -7.5 7 0
      vertex -5.63406 1.98904 0
      vertex -6.04303 1.90211 0
    endloop
  endfacet
  facet normal 0 0 -1
    outer loop
      vertex -7.5 7 0
      vertex -6.04303 1.90211 0
      vertex -6.425 1.73205 0
    endloop
  endfacet
  facet normal 0 0 -1
    outer loop
      vertex -6.75 1.5 0
      vertex -6.425 1.73205 0
      vertex -6.75 1.49592 0
    endloop
  endfacet
  facet normal 0 0 -1
    outer loop
      vertex -7.5 1.5 0
      vertex -6.425 1.73205 0
      vertex -6.75 1.5 0
    endloop
  endfacet
  facet normal 0 0 -1
    outer loop
      vertex -1.73205 6.425 0
      vertex -7 7.5 0
      vertex -1.5 7.5 0
    endloop
  endfacet
  facet normal -0 0 -1
    outer loop
      vertex -6.425 1.73205 0
      vertex -7.5 1.5 0
      vertex -7.5 7 0
    endloop
  endfacet
  facet normal 0 0 -1
    outer loop
      vertex -5.21594 1.98904 0
      vertex -7.5 7 0
      vertex -7 7.5 0
    endloop
  endfacet
  facet normal 0 0 -1
    outer loop
      vertex -6.425 -1.73205 0
      vertex -6.75 -1.5 0
      vertex -6.75 -1.49592 0
    endloop
  endfacet
  facet normal -1 0 0
    outer loop
      vertex -7.5 -7 0
      vertex -7.5 -1.5 116
      vertex -7.5 -1.5 0
    endloop
  endfacet
  facet normal -1 -0 0
    outer loop
      vertex -7.5 -1.5 116
      vertex -7.5 -7 0
      vertex -7.5 -7 116
    endloop
  endfacet
  facet normal -1 0 0
    outer loop
      vertex -7.5 1.5 0
      vertex -7.5 7 116
      vertex -7.5 7 0
    endloop
  endfacet
  facet normal -1 -0 0
    outer loop
      vertex -7.5 7 116
      vertex -7.5 1.5 0
      vertex -7.5 1.5 116
    endloop
  endfacet
  facet normal 0 1 -0
    outer loop
      vertex -1.5 7.5 0
      vertex -7 7.5 116
      vertex -1.5 7.5 116
    endloop
  endfacet
  facet normal 0 1 0
    outer loop
      vertex -7 7.5 116
      vertex -1.5 7.5 0
      vertex -7 7.5 0
    endloop
  endfacet
  facet normal 0 1 -0
    outer loop
      vertex 7 7.5 0
      vertex 1.5 7.5 116
      vertex 7 7.5 116
    endloop
  endfacet
  facet normal 0 1 0
    outer loop
      vertex 1.5 7.5 116
      vertex 7 7.5 0
      vertex 1.5 7.5 0
    endloop
  endfacet
  facet normal 0 -1 0
    outer loop
      vertex -7 -7.5 0
      vertex -1.5 -7.5 116
      vertex -7 -7.5 116
    endloop
  endfacet
  facet normal 0 -1 -0
    outer loop
      vertex -1.5 -7.5 116
      vertex -7 -7.5 0
      vertex -1.5 -7.5 0
    endloop
  endfacet
  facet normal 0 -1 0
    outer loop
      vertex 1.5 -7.5 0
      vertex 7 -7.5 116
      vertex 1.5 -7.5 116
    endloop
  endfacet
  facet normal 0 -1 -0
    outer loop
      vertex 7 -7.5 116
      vertex 1.5 -7.5 0
      vertex 7 -7.5 0
    endloop
  endfacet
  facet normal -0.707107 -0.707107 0
    outer loop
      vertex 2.5 2 111.375
      vertex 2 2.5 116
      vertex 2 2.5 111.375
    endloop
  endfacet
  facet normal -0.707107 -0.707107 0
    outer loop
      vertex 2 2.5 116
      vertex 2.5 2 111.375
      vertex 2.5 2 116
    endloop
  endfacet
  facet normal 0.707107 -0.707107 0
    outer loop
      vertex -2.5 2 116
      vertex -2 2.5 111.375
      vertex -2 2.5 116
    endloop
  endfacet
  facet normal 0.707107 -0.707107 0
    outer loop
      vertex -2 2.5 111.375
      vertex -2.5 2 116
      vertex -2.5 2 111.375
    endloop
  endfacet
  facet normal 0 0.707806 0.706407
    outer loop
      vertex 2 -2.33333 111.208
      vertex -2 -2.5 111.375
      vertex 2 -2.5 111.375
    endloop
  endfacet
  facet normal 0 0.707806 0.706407
    outer loop
      vertex 2 -2.33333 111.208
      vertex -2 -2.33333 111.208
      vertex -2 -2.5 111.375
    endloop
  endfacet
  facet normal 0 0.706756 0.707457
    outer loop
      vertex 2 -2 110.875
      vertex -2 -2.33333 111.208
      vertex 2 -2.33333 111.208
    endloop
  endfacet
  facet normal 0 0.706756 0.707457
    outer loop
      vertex -2 -2.33333 111.208
      vertex 2 -2 110.875
      vertex -2 -2 110.875
    endloop
  endfacet
  facet normal 0.706756 0 0.707457
    outer loop
      vertex -2.33333 2 111.208
      vertex -2.33333 -2 111.208
      vertex -2 2 110.875
    endloop
  endfacet
  facet normal 0.707806 0 0.706407
    outer loop
      vertex -2.5 2 111.375
      vertex -2.33333 -2 111.208
      vertex -2.33333 2 111.208
    endloop
  endfacet
  facet normal 0.707806 0 0.706407
    outer loop
      vertex -2.33333 -2 111.208
      vertex -2.5 2 111.375
      vertex -2.5 -2 111.375
    endloop
  endfacet
  facet normal 0.706756 0 0.707457
    outer loop
      vertex -2 2 110.875
      vertex -2.33333 -2 111.208
      vertex -2 -2 110.875
    endloop
  endfacet
  facet normal 0.707107 0.707107 0
    outer loop
      vertex -2 -2.5 116
      vertex -2.5 -2 111.375
      vertex -2.5 -2 116
    endloop
  endfacet
  facet normal 0.707107 0.707107 0
    outer loop
      vertex -2.5 -2 111.375
      vertex -2 -2.5 116
      vertex -2 -2.5 111.375
    endloop
  endfacet
  facet normal 0 -0.707806 0.706407
    outer loop
      vertex -2 2.33333 111.208
      vertex 2 2.5 111.375
      vertex -2 2.5 111.375
    endloop
  endfacet
  facet normal 0 -0.707806 0.706407
    outer loop
      vertex -2 2.33333 111.208
      vertex 2 2.33333 111.208
      vertex 2 2.5 111.375
    endloop
  endfacet
  facet normal 0 -0.706756 0.707457
    outer loop
      vertex -2 2 110.875
      vertex 2 2.33333 111.208
      vertex -2 2.33333 111.208
    endloop
  endfacet
  facet normal 0 -0.706756 0.707457
    outer loop
      vertex 2 2.33333 111.208
      vertex -2 2 110.875
      vertex 2 2 110.875
    endloop
  endfacet
  facet normal -0.706756 0 0.707457
    outer loop
      vertex 2 2 110.875
      vertex 2 -2 110.875
      vertex 2.33333 2 111.208
    endloop
  endfacet
  facet normal -0.706756 0 0.707457
    outer loop
      vertex 2.33333 -2 111.208
      vertex 2.33333 2 111.208
      vertex 2 -2 110.875
    endloop
  endfacet
  facet normal -0.707806 0 0.706407
    outer loop
      vertex 2.33333 2 111.208
      vertex 2.33333 -2 111.208
      vertex 2.5 2 111.375
    endloop
  endfacet
  facet normal -0.707806 0 0.706407
    outer loop
      vertex 2.5 2 111.375
      vertex 2.33333 -2 111.208
      vertex 2.5 -2 111.375
    endloop
  endfacet
  facet normal -0.707107 0.707107 0
    outer loop
      vertex 2 -2.5 111.375
      vertex 2.5 -2 116
      vertex 2.5 -2 111.375
    endloop
  endfacet
  facet normal -0.707107 0.707107 0
    outer loop
      vertex 2.5 -2 116
      vertex 2 -2.5 111.375
      vertex 2 -2.5 116
    endloop
  endfacet
  facet normal 0.57716 0.57716 0.577732
    outer loop
      vertex -2 -2 110.875
      vertex -2.33333 -2 111.208
      vertex -2 -2.33333 111.208
    endloop
  endfacet
  facet normal 0.577731 0.577731 0.576589
    outer loop
      vertex -2.33333 -2 111.208
      vertex -2 -2.5 111.375
      vertex -2 -2.33333 111.208
    endloop
  endfacet
  facet normal 0.577731 0.577731 0.576589
    outer loop
      vertex -2.33333 -2 111.208
      vertex -2.5 -2 111.375
      vertex -2 -2.5 111.375
    endloop
  endfacet
  facet normal -0.577731 0.577731 0.576589
    outer loop
      vertex 2.33333 -2 111.208
      vertex 2 -2.5 111.375
      vertex 2.5 -2 111.375
    endloop
  endfacet
  facet normal -0.577731 0.577731 0.576589
    outer loop
      vertex 2 -2.33333 111.208
      vertex 2 -2.5 111.375
      vertex 2.33333 -2 111.208
    endloop
  endfacet
  facet normal -0.57716 0.57716 0.577732
    outer loop
      vertex 2.33333 -2 111.208
      vertex 2 -2 110.875
      vertex 2 -2.33333 111.208
    endloop
  endfacet
  facet normal 0.57716 -0.57716 0.577732
    outer loop
      vertex -2.33333 2 111.208
      vertex -2 2 110.875
      vertex -2 2.33333 111.208
    endloop
  endfacet
  facet normal 0.577731 -0.577731 0.576589
    outer loop
      vertex -2 2.5 111.375
      vertex -2.33333 2 111.208
      vertex -2 2.33333 111.208
    endloop
  endfacet
  facet normal 0.577731 -0.577731 0.576589
    outer loop
      vertex -2.5 2 111.375
      vertex -2.33333 2 111.208
      vertex -2 2.5 111.375
    endloop
  endfacet
  facet normal -0.577731 -0.577731 0.576589
    outer loop
      vertex 2 2.5 111.375
      vertex 2.33333 2 111.208
      vertex 2.5 2 111.375
    endloop
  endfacet
  facet normal -0.577731 -0.577731 0.576589
    outer loop
      vertex 2 2.5 111.375
      vertex 2 2.33333 111.208
      vertex 2.33333 2 111.208
    endloop
  endfacet
  facet normal -0.57716 -0.57716 0.577732
    outer loop
      vertex 2 2 110.875
      vertex 2.33333 2 111.208
      vertex 2 2.33333 111.208
    endloop
  endfacet
  facet normal -1 0 0
    outer loop
      vertex 2.5 -2 111.375
      vertex 2.5 2 116
      vertex 2.5 2 111.375
    endloop
  endfacet
  facet normal -1 0 0
    outer loop
      vertex 2.5 -2 111.375
      vertex 2.5 -2 116
      vertex 2.5 2 116
    endloop
  endfacet
  facet normal -0 0 1
    outer loop
      vertex -2 2 110.875
      vertex 2 -2 110.875
      vertex 2 2 110.875
    endloop
  endfacet
  facet normal 0 0 1
    outer loop
      vertex -2 2 110.875
      vertex -2 -2 110.875
      vertex 2 -2 110.875
    endloop
  endfacet
  facet normal 1 0 0
    outer loop
      vertex -2.5 2 116
      vertex -2.5 -2 111.375
      vertex -2.5 2 111.375
    endloop
  endfacet
  facet normal 1 -0 0
    outer loop
      vertex -2.5 -2 116
      vertex -2.5 -2 111.375
      vertex -2.5 2 116
    endloop
  endfacet
  facet normal 0 -1 0
    outer loop
      vertex -2 2.5 116
      vertex -2 2.5 111.375
      vertex 2 2.5 116
    endloop
  endfacet
  facet normal 0 -1 0
    outer loop
      vertex 2 2.5 111.375
      vertex 2 2.5 116
      vertex -2 2.5 111.375
    endloop
  endfacet
  facet normal 0 1 0
    outer loop
      vertex 2 -2.5 116
      vertex 2 -2.5 111.375
      vertex -2 -2.5 116
    endloop
  endfacet
  facet normal 0 1 0
    outer loop
      vertex -2 -2.5 111.375
      vertex -2 -2.5 116
      vertex 2 -2.5 111.375
    endloop
  endfacet
  facet normal -0.707107 0.707107 0
    outer loop
      vertex 2 -2.5 0
      vertex 2.5 -2 4.5
      vertex 2.5 -2 0
    endloop
  endfacet
  facet normal -0.707107 0.707107 0
    outer loop
      vertex 2.5 -2 4.5
      vertex 2 -2.5 0
      vertex 2 -2.5 4.5
    endloop
  endfacet
  facet normal 0.707107 0.707107 0
    outer loop
      vertex -2 -2.5 4.5
      vertex -2.5 -2 0
      vertex -2.5 -2 4.5
    endloop
  endfacet
  facet normal 0.707107 0.707107 0
    outer loop
      vertex -2.5 -2 0
      vertex -2 -2.5 4.5
      vertex -2 -2.5 0
    endloop
  endfacet
  facet normal 0 -0.707107 -0.707107
    outer loop
      vertex -2 2.33333 4.66667
      vertex 2 2 5
      vertex -2 2 5
    endloop
  endfacet
  facet normal 0 -0.707107 -0.707107
    outer loop
      vertex -2 2.33333 4.66667
      vertex 2 2.33333 4.66667
      vertex 2 2 5
    endloop
  endfacet
  facet normal 0 -0.707107 -0.707107
    outer loop
      vertex -2 2.5 4.5
      vertex 2 2.33333 4.66667
      vertex -2 2.33333 4.66667
    endloop
  endfacet
  facet normal 0 -0.707107 -0.707107
    outer loop
      vertex 2 2.33333 4.66667
      vertex -2 2.5 4.5
      vertex 2 2.5 4.5
    endloop
  endfacet
  facet normal 0.707107 0 -0.707107
    outer loop
      vertex -2 2 5
      vertex -2 -2 5
      vertex -2.33333 2 4.66667
    endloop
  endfacet
  facet normal 0.707107 0 -0.707107
    outer loop
      vertex -2.33333 -2 4.66667
      vertex -2.33333 2 4.66667
      vertex -2 -2 5
    endloop
  endfacet
  facet normal 0.707107 0 -0.707107
    outer loop
      vertex -2.33333 2 4.66667
      vertex -2.33333 -2 4.66667
      vertex -2.5 2 4.5
    endloop
  endfacet
  facet normal 0.707107 0 -0.707107
    outer loop
      vertex -2.5 2 4.5
      vertex -2.33333 -2 4.66667
      vertex -2.5 -2 4.5
    endloop
  endfacet
  facet normal 0.707107 -0.707107 0
    outer loop
      vertex -2.5 2 4.5
      vertex -2 2.5 0
      vertex -2 2.5 4.5
    endloop
  endfacet
  facet normal 0.707107 -0.707107 0
    outer loop
      vertex -2 2.5 0
      vertex -2.5 2 4.5
      vertex -2.5 2 0
    endloop
  endfacet
  facet normal 0 0.707107 -0.707107
    outer loop
      vertex 2 -2.33333 4.66667
      vertex -2 -2 5
      vertex 2 -2 5
    endloop
  endfacet
  facet normal 0 0.707107 -0.707107
    outer loop
      vertex 2 -2.33333 4.66667
      vertex -2 -2.33333 4.66667
      vertex -2 -2 5
    endloop
  endfacet
  facet normal 0 0.707107 -0.707107
    outer loop
      vertex 2 -2.5 4.5
      vertex -2 -2.33333 4.66667
      vertex 2 -2.33333 4.66667
    endloop
  endfacet
  facet normal 0 0.707107 -0.707107
    outer loop
      vertex -2 -2.33333 4.66667
      vertex 2 -2.5 4.5
      vertex -2 -2.5 4.5
    endloop
  endfacet
  facet normal -0.707107 -0 -0.707107
    outer loop
      vertex 2.33333 2 4.66667
      vertex 2.33333 -2 4.66667
      vertex 2 2 5
    endloop
  endfacet
  facet normal -0.707107 0 -0.707107
    outer loop
      vertex 2.5 2 4.5
      vertex 2.33333 -2 4.66667
      vertex 2.33333 2 4.66667
    endloop
  endfacet
  facet normal -0.707107 0 -0.707107
    outer loop
      vertex 2.33333 -2 4.66667
      vertex 2.5 2 4.5
      vertex 2.5 -2 4.5
    endloop
  endfacet
  facet normal -0.707107 -0 -0.707107
    outer loop
      vertex 2 2 5
      vertex 2.33333 -2 4.66667
      vertex 2 -2 5
    endloop
  endfacet
  facet normal -0.707107 -0.707107 0
    outer loop
      vertex 2.5 2 0
      vertex 2 2.5 4.5
      vertex 2 2.5 0
    endloop
  endfacet
  facet normal -0.707107 -0.707107 0
    outer loop
      vertex 2 2.5 4.5
      vertex 2.5 2 0
      vertex 2.5 2 4.5
    endloop
  endfacet
  facet normal 0.57735 -0.57735 -0.57735
    outer loop
      vertex -2 2 5
      vertex -2.33333 2 4.66667
      vertex -2 2.33333 4.66667
    endloop
  endfacet
  facet normal 0.57735 -0.57735 -0.57735
    outer loop
      vertex -2.33333 2 4.66667
      vertex -2 2.5 4.5
      vertex -2 2.33333 4.66667
    endloop
  endfacet
  facet normal 0.57735 -0.57735 -0.57735
    outer loop
      vertex -2.33333 2 4.66667
      vertex -2.5 2 4.5
      vertex -2 2.5 4.5
    endloop
  endfacet
  facet normal -0.57735 -0.57735 -0.57735
    outer loop
      vertex 2.5 2 4.5
      vertex 2 2.33333 4.66667
      vertex 2 2.5 4.5
    endloop
  endfacet
  facet normal -0.57735 -0.57735 -0.57735
    outer loop
      vertex 2.5 2 4.5
      vertex 2.33333 2 4.66667
      vertex 2 2.33333 4.66667
    endloop
  endfacet
  facet normal -0.57735 -0.57735 -0.57735
    outer loop
      vertex 2.33333 2 4.66667
      vertex 2 2 5
      vertex 2 2.33333 4.66667
    endloop
  endfacet
  facet normal 0.57735 0.57735 -0.57735
    outer loop
      vertex -2.33333 -2 4.66667
      vertex -2 -2 5
      vertex -2 -2.33333 4.66667
    endloop
  endfacet
  facet normal 0.57735 0.57735 -0.57735
    outer loop
      vertex -2 -2.33333 4.66667
      vertex -2.5 -2 4.5
      vertex -2.33333 -2 4.66667
    endloop
  endfacet
  facet normal 0.57735 0.57735 -0.57735
    outer loop
      vertex -2 -2.33333 4.66667
      vertex -2 -2.5 4.5
      vertex -2.5 -2 4.5
    endloop
  endfacet
  facet normal -0.57735 0.57735 -0.57735
    outer loop
      vertex 2.33333 -2 4.66667
      vertex 2 -2.5 4.5
      vertex 2 -2.33333 4.66667
    endloop
  endfacet
  facet normal -0.57735 0.57735 -0.57735
    outer loop
      vertex 2.33333 -2 4.66667
      vertex 2.5 -2 4.5
      vertex 2 -2.5 4.5
    endloop
  endfacet
  facet normal -0.57735 0.57735 -0.57735
    outer loop
      vertex 2 -2 5
      vertex 2.33333 -2 4.66667
      vertex 2 -2.33333 4.66667
    endloop
  endfacet
  facet normal -1 0 0
    outer loop
      vertex 2.5 -2 4.5
      vertex 2.5 2 4.5
      vertex 2.5 2 0
    endloop
  endfacet
  facet normal -1 0 0
    outer loop
      vertex 2.5 -2 4.5
      vertex 2.5 2 0
      vertex 2.5 -2 0
    endloop
  endfacet
  facet normal 0 0 -1
    outer loop
      vertex -2 -2 5
      vertex 2 2 5
      vertex 2 -2 5
    endloop
  endfacet
  facet normal 0 0 -1
    outer loop
      vertex -2 -2 5
      vertex -2 2 5
      vertex 2 2 5
    endloop
  endfacet
  facet normal 1 0 0
    outer loop
      vertex -2.5 2 4.5
      vertex -2.5 -2 4.5
      vertex -2.5 2 0
    endloop
  endfacet
  facet normal 1 0 0
    outer loop
      vertex -2.5 2 0
      vertex -2.5 -2 4.5
      vertex -2.5 -2 0
    endloop
  endfacet
  facet normal 0 1 -0
    outer loop
      vertex 2 -2.5 0
      vertex -2 -2.5 4.5
      vertex 2 -2.5 4.5
    endloop
  endfacet
  facet normal 0 1 0
    outer loop
      vertex -2 -2.5 4.5
      vertex 2 -2.5 0
      vertex -2 -2.5 0
    endloop
  endfacet
  facet normal 0 -1 0
    outer loop
      vertex -2 2.5 0
      vertex 2 2.5 4.5
      vertex -2 2.5 4.5
    endloop
  endfacet
  facet normal 0 -1 -0
    outer loop
      vertex 2 2.5 4.5
      vertex -2 2.5 0
      vertex 2 2.5 0
    endloop
  endfacet
  facet normal 0 -1 0
    outer loop
      vertex 6.75 1.5 0
      vertex 7.5 1.5 116
      vertex 6.75 1.5 116
    endloop
  endfacet
  facet normal 0 -1 -0
    outer loop
      vertex 7.5 1.5 116
      vertex 6.75 1.5 0
      vertex 7.5 1.5 0
    endloop
  endfacet
  facet normal 0 1 -0
    outer loop
      vertex 7.5 -1.5 0
      vertex 6.75 -1.5 116
      vertex 7.5 -1.5 116
    endloop
  endfacet
  facet normal 0 1 0
    outer loop
      vertex 6.75 -1.5 116
      vertex 7.5 -1.5 0
      vertex 6.75 -1.5 0
    endloop
  endfacet
  facet normal 1 -0 0
    outer loop
      vertex 6.75 1.49592 116
      vertex 6.75 1.5 0
      vertex 6.75 1.5 116
    endloop
  endfacet
  facet normal 1 0 0
    outer loop
      vertex 6.75 1.5 0
      vertex 6.75 1.49592 116
      vertex 6.75 1.49592 0
    endloop
  endfacet
  facet normal 1 -0 0
    outer loop
      vertex 6.75 -1.5 116
      vertex 6.75 -1.49592 0
      vertex 6.75 -1.49592 116
    endloop
  endfacet
  facet normal 1 0 0
    outer loop
      vertex 6.75 -1.49592 0
      vertex 6.75 -1.5 116
      vertex 6.75 -1.5 0
    endloop
  endfacet
  facet normal 0.406729 0.913549 -0
    outer loop
      vertex 4.80697 -1.90211 0
      vertex 4.425 -1.73205 116
      vertex 4.80697 -1.90211 116
    endloop
  endfacet
  facet normal 0.406729 0.913549 0
    outer loop
      vertex 4.425 -1.73205 116
      vertex 4.80697 -1.90211 0
      vertex 4.425 -1.73205 0
    endloop
  endfacet
  facet normal 0.743149 0.669126 0
    outer loop
      vertex 4.08674 -1.48629 116
      vertex 3.80697 -1.17557 0
      vertex 3.80697 -1.17557 116
    endloop
  endfacet
  facet normal 0.743149 0.669126 0
    outer loop
      vertex 3.80697 -1.17557 0
      vertex 4.08674 -1.48629 116
      vertex 4.08674 -1.48629 0
    endloop
  endfacet
  facet normal -0.406729 -0.913549 0
    outer loop
      vertex 6.04303 1.90211 0
      vertex 6.425 1.73205 116
      vertex 6.04303 1.90211 116
    endloop
  endfacet
  facet normal -0.406729 -0.913549 -0
    outer loop
      vertex 6.425 1.73205 116
      vertex 6.04303 1.90211 0
      vertex 6.425 1.73205 0
    endloop
  endfacet
  facet normal 0.95106 0.309008 0
    outer loop
      vertex 3.59791 -0.813473 116
      vertex 3.46871 -0.415823 0
      vertex 3.46871 -0.415823 116
    endloop
  endfacet
  facet normal 0.95106 0.309008 0
    outer loop
      vertex 3.46871 -0.415823 0
      vertex 3.59791 -0.813473 116
      vertex 3.59791 -0.813473 0
    endloop
  endfacet
  facet normal 0.587785 -0.809017 0
    outer loop
      vertex 4.08674 1.48629 0
      vertex 4.425 1.73205 116
      vertex 4.08674 1.48629 116
    endloop
  endfacet
  facet normal 0.587785 -0.809017 0
    outer loop
      vertex 4.425 1.73205 116
      vertex 4.08674 1.48629 0
      vertex 4.425 1.73205 0
    endloop
  endfacet
  facet normal -0.587791 -0.809013 0
    outer loop
      vertex 6.425 1.73205 0
      vertex 6.75 1.49592 116
      vertex 6.425 1.73205 116
    endloop
  endfacet
  facet normal -0.587791 -0.809013 -0
    outer loop
      vertex 6.75 1.49592 116
      vertex 6.425 1.73205 0
      vertex 6.75 1.49592 0
    endloop
  endfacet
  facet normal 0.994521 -0.104534 0
    outer loop
      vertex 3.43596 0.104245 116
      vertex 3.46871 0.415823 0
      vertex 3.46871 0.415823 116
    endloop
  endfacet
  facet normal 0.994521 -0.104534 0
    outer loop
      vertex 3.46871 0.415823 0
      vertex 3.43596 0.104245 116
      vertex 3.43596 0.104245 0
    endloop
  endfacet
  facet normal 0.994519 -0.104561 0
    outer loop
      vertex 3.425 0 116
      vertex 3.43596 0.104245 0
      vertex 3.43596 0.104245 116
    endloop
  endfacet
  facet normal 0.994519 -0.104561 0
    outer loop
      vertex 3.43596 0.104245 0
      vertex 3.425 0 116
      vertex 3.425 0 0
    endloop
  endfacet
  facet normal -0.207913 0.978147 0
    outer loop
      vertex 6.04303 -1.90211 0
      vertex 5.63406 -1.98904 116
      vertex 6.04303 -1.90211 116
    endloop
  endfacet
  facet normal -0.207913 0.978147 0
    outer loop
      vertex 5.63406 -1.98904 116
      vertex 6.04303 -1.90211 0
      vertex 5.63406 -1.98904 0
    endloop
  endfacet
  facet normal 0.994519 0.104561 0
    outer loop
      vertex 3.43596 -0.104245 116
      vertex 3.425 0 0
      vertex 3.425 0 116
    endloop
  endfacet
  facet normal 0.994519 0.104561 0
    outer loop
      vertex 3.425 0 0
      vertex 3.43596 -0.104245 116
      vertex 3.43596 -0.104245 0
    endloop
  endfacet
  facet normal 0.994521 0.104534 0
    outer loop
      vertex 3.46871 -0.415823 116
      vertex 3.43596 -0.104245 0
      vertex 3.43596 -0.104245 116
    endloop
  endfacet
  facet normal 0.994521 0.104534 0
    outer loop
      vertex 3.43596 -0.104245 0
      vertex 3.46871 -0.415823 116
      vertex 3.46871 -0.415823 0
    endloop
  endfacet
  facet normal 0.95106 -0.309008 0
    outer loop
      vertex 3.46871 0.415823 116
      vertex 3.59791 0.813473 0
      vertex 3.59791 0.813473 116
    endloop
  endfacet
  facet normal 0.95106 -0.309008 0
    outer loop
      vertex 3.59791 0.813473 0
      vertex 3.46871 0.415823 116
      vertex 3.46871 0.415823 0
    endloop
  endfacet
  facet normal 0.207913 -0.978147 0
    outer loop
      vertex 4.80697 1.90211 0
      vertex 5.21594 1.98904 116
      vertex 4.80697 1.90211 116
    endloop
  endfacet
  facet normal 0.207913 -0.978147 0
    outer loop
      vertex 5.21594 1.98904 116
      vertex 4.80697 1.90211 0
      vertex 5.21594 1.98904 0
    endloop
  endfacet
  facet normal -0.207913 -0.978147 0
    outer loop
      vertex 5.63406 1.98904 0
      vertex 6.04303 1.90211 116
      vertex 5.63406 1.98904 116
    endloop
  endfacet
  facet normal -0.207913 -0.978147 -0
    outer loop
      vertex 6.04303 1.90211 116
      vertex 5.63406 1.98904 0
      vertex 6.04303 1.90211 0
    endloop
  endfacet
  facet normal 0.406729 -0.913549 0
    outer loop
      vertex 4.425 1.73205 0
      vertex 4.80697 1.90211 116
      vertex 4.425 1.73205 116
    endloop
  endfacet
  facet normal 0.406729 -0.913549 0
    outer loop
      vertex 4.80697 1.90211 116
      vertex 4.425 1.73205 0
      vertex 4.80697 1.90211 0
    endloop
  endfacet
  facet normal -0.406729 0.913549 0
    outer loop
      vertex 6.425 -1.73205 0
      vertex 6.04303 -1.90211 116
      vertex 6.425 -1.73205 116
    endloop
  endfacet
  facet normal -0.406729 0.913549 0
    outer loop
      vertex 6.04303 -1.90211 116
      vertex 6.425 -1.73205 0
      vertex 6.04303 -1.90211 0
    endloop
  endfacet
  facet normal 0.743149 -0.669126 0
    outer loop
      vertex 3.80697 1.17557 116
      vertex 4.08674 1.48629 0
      vertex 4.08674 1.48629 116
    endloop
  endfacet
  facet normal 0.743149 -0.669126 0
    outer loop
      vertex 4.08674 1.48629 0
      vertex 3.80697 1.17557 116
      vertex 3.80697 1.17557 0
    endloop
  endfacet
  facet normal 0.207913 0.978147 -0
    outer loop
      vertex 5.21594 -1.98904 0
      vertex 4.80697 -1.90211 116
      vertex 5.21594 -1.98904 116
    endloop
  endfacet
  facet normal 0.207913 0.978147 0
    outer loop
      vertex 4.80697 -1.90211 116
      vertex 5.21594 -1.98904 0
      vertex 4.80697 -1.90211 0
    endloop
  endfacet
  facet normal 0.866022 0.500006 0
    outer loop
      vertex 3.80697 -1.17557 116
      vertex 3.59791 -0.813473 0
      vertex 3.59791 -0.813473 116
    endloop
  endfacet
  facet normal 0.866022 0.500006 0
    outer loop
      vertex 3.59791 -0.813473 0
      vertex 3.80697 -1.17557 116
      vertex 3.80697 -1.17557 0
    endloop
  endfacet
  facet normal 0.866022 -0.500006 0
    outer loop
      vertex 3.59791 0.813473 116
      vertex 3.80697 1.17557 0
      vertex 3.80697 1.17557 116
    endloop
  endfacet
  facet normal 0.866022 -0.500006 0
    outer loop
      vertex 3.80697 1.17557 0
      vertex 3.59791 0.813473 116
      vertex 3.59791 0.813473 0
    endloop
  endfacet
  facet normal 0 1 -0
    outer loop
      vertex 5.63406 -1.98904 0
      vertex 5.21594 -1.98904 116
      vertex 5.63406 -1.98904 116
    endloop
  endfacet
  facet normal 0 1 0
    outer loop
      vertex 5.21594 -1.98904 116
      vertex 5.63406 -1.98904 0
      vertex 5.21594 -1.98904 0
    endloop
  endfacet
  facet normal -0.587791 0.809013 0
    outer loop
      vertex 6.75 -1.49592 0
      vertex 6.425 -1.73205 116
      vertex 6.75 -1.49592 116
    endloop
  endfacet
  facet normal -0.587791 0.809013 0
    outer loop
      vertex 6.425 -1.73205 116
      vertex 6.75 -1.49592 0
      vertex 6.425 -1.73205 0
    endloop
  endfacet
  facet normal 0 -1 0
    outer loop
      vertex 5.21594 1.98904 0
      vertex 5.63406 1.98904 116
      vertex 5.21594 1.98904 116
    endloop
  endfacet
  facet normal 0 -1 -0
    outer loop
      vertex 5.63406 1.98904 116
      vertex 5.21594 1.98904 0
      vertex 5.63406 1.98904 0
    endloop
  endfacet
  facet normal 0.587785 0.809017 -0
    outer loop
      vertex 4.425 -1.73205 0
      vertex 4.08674 -1.48629 116
      vertex 4.425 -1.73205 116
    endloop
  endfacet
  facet normal 0.587785 0.809017 0
    outer loop
      vertex 4.08674 -1.48629 116
      vertex 4.425 -1.73205 0
      vertex 4.08674 -1.48629 0
    endloop
  endfacet
  facet normal 0 -1 0
    outer loop
      vertex -7.5 1.5 0
      vertex -6.75 1.5 116
      vertex -7.5 1.5 116
    endloop
  endfacet
  facet normal 0 -1 -0
    outer loop
      vertex -6.75 1.5 116
      vertex -7.5 1.5 0
      vertex -6.75 1.5 0
    endloop
  endfacet
  facet normal 0 1 -0
    outer loop
      vertex -6.75 -1.5 0
      vertex -7.5 -1.5 116
      vertex -6.75 -1.5 116
    endloop
  endfacet
  facet normal 0 1 0
    outer loop
      vertex -7.5 -1.5 116
      vertex -6.75 -1.5 0
      vertex -7.5 -1.5 0
    endloop
  endfacet
  facet normal -1 0 0
    outer loop
      vertex -6.75 1.49592 0
      vertex -6.75 1.5 116
      vertex -6.75 1.5 0
    endloop
  endfacet
  facet normal -1 -0 0
    outer loop
      vertex -6.75 1.5 116
      vertex -6.75 1.49592 0
      vertex -6.75 1.49592 116
    endloop
  endfacet
  facet normal -1 0 0
    outer loop
      vertex -6.75 -1.5 0
      vertex -6.75 -1.49592 116
      vertex -6.75 -1.49592 0
    endloop
  endfacet
  facet normal -1 -0 0
    outer loop
      vertex -6.75 -1.49592 116
      vertex -6.75 -1.5 0
      vertex -6.75 -1.5 116
    endloop
  endfacet
  facet normal -0.406729 0.913549 0
    outer loop
      vertex -4.425 -1.73205 0
      vertex -4.80697 -1.90211 116
      vertex -4.425 -1.73205 116
    endloop
  endfacet
  facet normal -0.406729 0.913549 0
    outer loop
      vertex -4.80697 -1.90211 116
      vertex -4.425 -1.73205 0
      vertex -4.80697 -1.90211 0
    endloop
  endfacet
  facet normal -0.743149 0.669126 0
    outer loop
      vertex -4.08674 -1.48629 0
      vertex -3.80697 -1.17557 116
      vertex -3.80697 -1.17557 0
    endloop
  endfacet
  facet normal -0.743149 0.669126 0
    outer loop
      vertex -3.80697 -1.17557 116
      vertex -4.08674 -1.48629 0
      vertex -4.08674 -1.48629 116
    endloop
  endfacet
  facet normal 0.406729 -0.913549 0
    outer loop
      vertex -6.425 1.73205 0
      vertex -6.04303 1.90211 116
      vertex -6.425 1.73205 116
    endloop
  endfacet
  facet normal 0.406729 -0.913549 0
    outer loop
      vertex -6.04303 1.90211 116
      vertex -6.425 1.73205 0
      vertex -6.04303 1.90211 0
    endloop
  endfacet
  facet normal -0.95106 0.309008 0
    outer loop
      vertex -3.59791 -0.813473 0
      vertex -3.46871 -0.415823 116
      vertex -3.46871 -0.415823 0
    endloop
  endfacet
  facet normal -0.95106 0.309008 0
    outer loop
      vertex -3.46871 -0.415823 116
      vertex -3.59791 -0.813473 0
      vertex -3.59791 -0.813473 116
    endloop
  endfacet
  facet normal -0.587785 -0.809017 0
    outer loop
      vertex -4.425 1.73205 0
      vertex -4.08674 1.48629 116
      vertex -4.425 1.73205 116
    endloop
  endfacet
  facet normal -0.587785 -0.809017 -0
    outer loop
      vertex -4.08674 1.48629 116
      vertex -4.425 1.73205 0
      vertex -4.08674 1.48629 0
    endloop
  endfacet
  facet normal 0.587791 -0.809013 0
    outer loop
      vertex -6.75 1.49592 0
      vertex -6.425 1.73205 116
      vertex -6.75 1.49592 116
    endloop
  endfacet
  facet normal 0.587791 -0.809013 0
    outer loop
      vertex -6.425 1.73205 116
      vertex -6.75 1.49592 0
      vertex -6.425 1.73205 0
    endloop
  endfacet
  facet normal -0.994521 -0.104534 0
    outer loop
      vertex -3.43596 0.104245 0
      vertex -3.46871 0.415823 116
      vertex -3.46871 0.415823 0
    endloop
  endfacet
  facet normal -0.994521 -0.104534 0
    outer loop
      vertex -3.46871 0.415823 116
      vertex -3.43596 0.104245 0
      vertex -3.43596 0.104245 116
    endloop
  endfacet
  facet normal -0.994519 -0.104561 0
    outer loop
      vertex -3.425 0 0
      vertex -3.43596 0.104245 116
      vertex -3.43596 0.104245 0
    endloop
  endfacet
  facet normal -0.994519 -0.104561 0
    outer loop
      vertex -3.43596 0.104245 116
      vertex -3.425 0 0
      vertex -3.425 0 116
    endloop
  endfacet
  facet normal 0.207913 0.978147 -0
    outer loop
      vertex -5.63406 -1.98904 0
      vertex -6.04303 -1.90211 116
      vertex -5.63406 -1.98904 116
    endloop
  endfacet
  facet normal 0.207913 0.978147 0
    outer loop
      vertex -6.04303 -1.90211 116
      vertex -5.63406 -1.98904 0
      vertex -6.04303 -1.90211 0
    endloop
  endfacet
  facet normal -0.994519 0.104561 0
    outer loop
      vertex -3.43596 -0.104245 0
      vertex -3.425 0 116
      vertex -3.425 0 0
    endloop
  endfacet
  facet normal -0.994519 0.104561 0
    outer loop
      vertex -3.425 0 116
      vertex -3.43596 -0.104245 0
      vertex -3.43596 -0.104245 116
    endloop
  endfacet
  facet normal -0.994521 0.104534 0
    outer loop
      vertex -3.46871 -0.415823 0
      vertex -3.43596 -0.104245 116
      vertex -3.43596 -0.104245 0
    endloop
  endfacet
  facet normal -0.994521 0.104534 0
    outer loop
      vertex -3.43596 -0.104245 116
      vertex -3.46871 -0.415823 0
      vertex -3.46871 -0.415823 116
    endloop
  endfacet
  facet normal -0.95106 -0.309008 0
    outer loop
      vertex -3.46871 0.415823 0
      vertex -3.59791 0.813473 116
      vertex -3.59791 0.813473 0
    endloop
  endfacet
  facet normal -0.95106 -0.309008 0
    outer loop
      vertex -3.59791 0.813473 116
      vertex -3.46871 0.415823 0
      vertex -3.46871 0.415823 116
    endloop
  endfacet
  facet normal -0.207913 -0.978147 0
    outer loop
      vertex -5.21594 1.98904 0
      vertex -4.80697 1.90211 116
      vertex -5.21594 1.98904 116
    endloop
  endfacet
  facet normal -0.207913 -0.978147 -0
    outer loop
      vertex -4.80697 1.90211 116
      vertex -5.21594 1.98904 0
      vertex -4.80697 1.90211 0
    endloop
  endfacet
  facet normal 0.207913 -0.978147 0
    outer loop
      vertex -6.04303 1.90211 0
      vertex -5.63406 1.98904 116
      vertex -6.04303 1.90211 116
    endloop
  endfacet
  facet normal 0.207913 -0.978147 0
    outer loop
      vertex -5.63406 1.98904 116
      vertex -6.04303 1.90211 0
      vertex -5.63406 1.98904 0
    endloop
  endfacet
  facet normal -0.406729 -0.913549 0
    outer loop
      vertex -4.80697 1.90211 0
      vertex -4.425 1.73205 116
      vertex -4.80697 1.90211 116
    endloop
  endfacet
  facet normal -0.406729 -0.913549 -0
    outer loop
      vertex -4.425 1.73205 116
      vertex -4.80697 1.90211 0
      vertex -4.425 1.73205 0
    endloop
  endfacet
  facet normal 0.406729 0.913549 -0
    outer loop
      vertex -6.04303 -1.90211 0
      vertex -6.425 -1.73205 116
      vertex -6.04303 -1.90211 116
    endloop
  endfacet
  facet normal 0.406729 0.913549 0
    outer loop
      vertex -6.425 -1.73205 116
      vertex -6.04303 -1.90211 0
      vertex -6.425 -1.73205 0
    endloop
  endfacet
  facet normal -0.743149 -0.669126 0
    outer loop
      vertex -3.80697 1.17557 0
      vertex -4.08674 1.48629 116
      vertex -4.08674 1.48629 0
    endloop
  endfacet
  facet normal -0.743149 -0.669126 0
    outer loop
      vertex -4.08674 1.48629 116
      vertex -3.80697 1.17557 0
      vertex -3.80697 1.17557 116
    endloop
  endfacet
  facet normal -0.207913 0.978147 0
    outer loop
      vertex -4.80697 -1.90211 0
      vertex -5.21594 -1.98904 116
      vertex -4.80697 -1.90211 116
    endloop
  endfacet
  facet normal -0.207913 0.978147 0
    outer loop
      vertex -5.21594 -1.98904 116
      vertex -4.80697 -1.90211 0
      vertex -5.21594 -1.98904 0
    endloop
  endfacet
  facet normal -0.866022 0.500006 0
    outer loop
      vertex -3.80697 -1.17557 0
      vertex -3.59791 -0.813473 116
      vertex -3.59791 -0.813473 0
    endloop
  endfacet
  facet normal -0.866022 0.500006 0
    outer loop
      vertex -3.59791 -0.813473 116
      vertex -3.80697 -1.17557 0
      vertex -3.80697 -1.17557 116
    endloop
  endfacet
  facet normal -0.866022 -0.500006 0
    outer loop
      vertex -3.59791 0.813473 0
      vertex -3.80697 1.17557 116
      vertex -3.80697 1.17557 0
    endloop
  endfacet
  facet normal -0.866022 -0.500006 0
    outer loop
      vertex -3.80697 1.17557 116
      vertex -3.59791 0.813473 0
      vertex -3.59791 0.813473 116
    endloop
  endfacet
  facet normal 0 1 -0
    outer loop
      vertex -5.21594 -1.98904 0
      vertex -5.63406 -1.98904 116
      vertex -5.21594 -1.98904 116
    endloop
  endfacet
  facet normal 0 1 0
    outer loop
      vertex -5.63406 -1.98904 116
      vertex -5.21594 -1.98904 0
      vertex -5.63406 -1.98904 0
    endloop
  endfacet
  facet normal 0.587791 0.809013 -0
    outer loop
      vertex -6.425 -1.73205 0
      vertex -6.75 -1.49592 116
      vertex -6.425 -1.73205 116
    endloop
  endfacet
  facet normal 0.587791 0.809013 0
    outer loop
      vertex -6.75 -1.49592 116
      vertex -6.425 -1.73205 0
      vertex -6.75 -1.49592 0
    endloop
  endfacet
  facet normal 0 -1 0
    outer loop
      vertex -5.63406 1.98904 0
      vertex -5.21594 1.98904 116
      vertex -5.63406 1.98904 116
    endloop
  endfacet
  facet normal 0 -1 -0
    outer loop
      vertex -5.21594 1.98904 116
      vertex -5.63406 1.98904 0
      vertex -5.21594 1.98904 0
    endloop
  endfacet
  facet normal -0.587785 0.809017 0
    outer loop
      vertex -4.08674 -1.48629 0
      vertex -4.425 -1.73205 116
      vertex -4.08674 -1.48629 116
    endloop
  endfacet
  facet normal -0.587785 0.809017 0
    outer loop
      vertex -4.425 -1.73205 116
      vertex -4.08674 -1.48629 0
      vertex -4.425 -1.73205 0
    endloop
  endfacet
  facet normal -1 0 0
    outer loop
      vertex 1.5 6.75 0
      vertex 1.5 7.5 116
      vertex 1.5 7.5 0
    endloop
  endfacet
  facet normal -1 -0 0
    outer loop
      vertex 1.5 7.5 116
      vertex 1.5 6.75 0
      vertex 1.5 6.75 116
    endloop
  endfacet
  facet normal 1 -0 0
    outer loop
      vertex -1.5 6.75 116
      vertex -1.5 7.5 0
      vertex -1.5 7.5 116
    endloop
  endfacet
  facet normal 1 0 0
    outer loop
      vertex -1.5 7.5 0
      vertex -1.5 6.75 116
      vertex -1.5 6.75 0
    endloop
  endfacet
  facet normal 0 1 -0
    outer loop
      vertex 1.5 6.75 0
      vertex 1.49592 6.75 116
      vertex 1.5 6.75 116
    endloop
  endfacet
  facet normal 0 1 0
    outer loop
      vertex 1.49592 6.75 116
      vertex 1.5 6.75 0
      vertex 1.49592 6.75 0
    endloop
  endfacet
  facet normal 0 1 -0
    outer loop
      vertex -1.49592 6.75 0
      vertex -1.5 6.75 116
      vertex -1.49592 6.75 116
    endloop
  endfacet
  facet normal 0 1 0
    outer loop
      vertex -1.5 6.75 116
      vertex -1.49592 6.75 0
      vertex -1.5 6.75 0
    endloop
  endfacet
  facet normal 0.913549 0.406729 0
    outer loop
      vertex -1.73205 4.425 116
      vertex -1.90211 4.80697 0
      vertex -1.90211 4.80697 116
    endloop
  endfacet
  facet normal 0.913549 0.406729 0
    outer loop
      vertex -1.90211 4.80697 0
      vertex -1.73205 4.425 116
      vertex -1.73205 4.425 0
    endloop
  endfacet
  facet normal 0.669126 0.743149 -0
    outer loop
      vertex -1.17557 3.80697 0
      vertex -1.48629 4.08674 116
      vertex -1.17557 3.80697 116
    endloop
  endfacet
  facet normal 0.669126 0.743149 0
    outer loop
      vertex -1.48629 4.08674 116
      vertex -1.17557 3.80697 0
      vertex -1.48629 4.08674 0
    endloop
  endfacet
  facet normal -0.913549 -0.406729 0
    outer loop
      vertex 1.90211 6.04303 0
      vertex 1.73205 6.425 116
      vertex 1.73205 6.425 0
    endloop
  endfacet
  facet normal -0.913549 -0.406729 0
    outer loop
      vertex 1.73205 6.425 116
      vertex 1.90211 6.04303 0
      vertex 1.90211 6.04303 116
    endloop
  endfacet
  facet normal 0.309008 0.95106 -0
    outer loop
      vertex -0.415823 3.46871 0
      vertex -0.813473 3.59791 116
      vertex -0.415823 3.46871 116
    endloop
  endfacet
  facet normal 0.309008 0.95106 0
    outer loop
      vertex -0.813473 3.59791 116
      vertex -0.415823 3.46871 0
      vertex -0.813473 3.59791 0
    endloop
  endfacet
  facet normal -0.809017 0.587785 0
    outer loop
      vertex 1.48629 4.08674 0
      vertex 1.73205 4.425 116
      vertex 1.73205 4.425 0
    endloop
  endfacet
  facet normal -0.809017 0.587785 0
    outer loop
      vertex 1.73205 4.425 116
      vertex 1.48629 4.08674 0
      vertex 1.48629 4.08674 116
    endloop
  endfacet
  facet normal -0.809013 -0.587791 0
    outer loop
      vertex 1.73205 6.425 0
      vertex 1.49592 6.75 116
      vertex 1.49592 6.75 0
    endloop
  endfacet
  facet normal -0.809013 -0.587791 0
    outer loop
      vertex 1.49592 6.75 116
      vertex 1.73205 6.425 0
      vertex 1.73205 6.425 116
    endloop
  endfacet
  facet normal -0.104534 0.994521 0
    outer loop
      vertex 0.415823 3.46871 0
      vertex 0.104245 3.43596 116
      vertex 0.415823 3.46871 116
    endloop
  endfacet
  facet normal -0.104534 0.994521 0
    outer loop
      vertex 0.104245 3.43596 116
      vertex 0.415823 3.46871 0
      vertex 0.104245 3.43596 0
    endloop
  endfacet
  facet normal -0.104561 0.994519 0
    outer loop
      vertex 0.104245 3.43596 0
      vertex 0 3.425 116
      vertex 0.104245 3.43596 116
    endloop
  endfacet
  facet normal -0.104561 0.994519 0
    outer loop
      vertex 0 3.425 116
      vertex 0.104245 3.43596 0
      vertex 0 3.425 0
    endloop
  endfacet
  facet normal 0.978147 -0.207913 0
    outer loop
      vertex -1.98904 5.63406 116
      vertex -1.90211 6.04303 0
      vertex -1.90211 6.04303 116
    endloop
  endfacet
  facet normal 0.978147 -0.207913 0
    outer loop
      vertex -1.90211 6.04303 0
      vertex -1.98904 5.63406 116
      vertex -1.98904 5.63406 0
    endloop
  endfacet
  facet normal 0.104561 0.994519 -0
    outer loop
      vertex 0 3.425 0
      vertex -0.104245 3.43596 116
      vertex 0 3.425 116
    endloop
  endfacet
  facet normal 0.104561 0.994519 0
    outer loop
      vertex -0.104245 3.43596 116
      vertex 0 3.425 0
      vertex -0.104245 3.43596 0
    endloop
  endfacet
  facet normal 0.104534 0.994521 -0
    outer loop
      vertex -0.104245 3.43596 0
      vertex -0.415823 3.46871 116
      vertex -0.104245 3.43596 116
    endloop
  endfacet
  facet normal 0.104534 0.994521 0
    outer loop
      vertex -0.415823 3.46871 116
      vertex -0.104245 3.43596 0
      vertex -0.415823 3.46871 0
    endloop
  endfacet
  facet normal -0.309008 0.95106 0
    outer loop
      vertex 0.813473 3.59791 0
      vertex 0.415823 3.46871 116
      vertex 0.813473 3.59791 116
    endloop
  endfacet
  facet normal -0.309008 0.95106 0
    outer loop
      vertex 0.415823 3.46871 116
      vertex 0.813473 3.59791 0
      vertex 0.415823 3.46871 0
    endloop
  endfacet
  facet normal -0.978147 0.207913 0
    outer loop
      vertex 1.90211 4.80697 0
      vertex 1.98904 5.21594 116
      vertex 1.98904 5.21594 0
    endloop
  endfacet
  facet normal -0.978147 0.207913 0
    outer loop
      vertex 1.98904 5.21594 116
      vertex 1.90211 4.80697 0
      vertex 1.90211 4.80697 116
    endloop
  endfacet
  facet normal -0.978147 -0.207913 0
    outer loop
      vertex 1.98904 5.63406 0
      vertex 1.90211 6.04303 116
      vertex 1.90211 6.04303 0
    endloop
  endfacet
  facet normal -0.978147 -0.207913 0
    outer loop
      vertex 1.90211 6.04303 116
      vertex 1.98904 5.63406 0
      vertex 1.98904 5.63406 116
    endloop
  endfacet
  facet normal -0.913549 0.406729 0
    outer loop
      vertex 1.73205 4.425 0
      vertex 1.90211 4.80697 116
      vertex 1.90211 4.80697 0
    endloop
  endfacet
  facet normal -0.913549 0.406729 0
    outer loop
      vertex 1.90211 4.80697 116
      vertex 1.73205 4.425 0
      vertex 1.73205 4.425 116
    endloop
  endfacet
  facet normal 0.913549 -0.406729 0
    outer loop
      vertex -1.90211 6.04303 116
      vertex -1.73205 6.425 0
      vertex -1.73205 6.425 116
    endloop
  endfacet
  facet normal 0.913549 -0.406729 0
    outer loop
      vertex -1.73205 6.425 0
      vertex -1.90211 6.04303 116
      vertex -1.90211 6.04303 0
    endloop
  endfacet
  facet normal -0.669126 0.743149 0
    outer loop
      vertex 1.48629 4.08674 0
      vertex 1.17557 3.80697 116
      vertex 1.48629 4.08674 116
    endloop
  endfacet
  facet normal -0.669126 0.743149 0
    outer loop
      vertex 1.17557 3.80697 116
      vertex 1.48629 4.08674 0
      vertex 1.17557 3.80697 0
    endloop
  endfacet
  facet normal 0.978147 0.207913 0
    outer loop
      vertex -1.90211 4.80697 116
      vertex -1.98904 5.21594 0
      vertex -1.98904 5.21594 116
    endloop
  endfacet
  facet normal 0.978147 0.207913 0
    outer loop
      vertex -1.98904 5.21594 0
      vertex -1.90211 4.80697 116
      vertex -1.90211 4.80697 0
    endloop
  endfacet
  facet normal 0.500006 0.866022 -0
    outer loop
      vertex -0.813473 3.59791 0
      vertex -1.17557 3.80697 116
      vertex -0.813473 3.59791 116
    endloop
  endfacet
  facet normal 0.500006 0.866022 0
    outer loop
      vertex -1.17557 3.80697 116
      vertex -0.813473 3.59791 0
      vertex -1.17557 3.80697 0
    endloop
  endfacet
  facet normal -0.500006 0.866022 0
    outer loop
      vertex 1.17557 3.80697 0
      vertex 0.813473 3.59791 116
      vertex 1.17557 3.80697 116
    endloop
  endfacet
  facet normal -0.500006 0.866022 0
    outer loop
      vertex 0.813473 3.59791 116
      vertex 1.17557 3.80697 0
      vertex 0.813473 3.59791 0
    endloop
  endfacet
  facet normal 1 -0 0
    outer loop
      vertex -1.98904 5.21594 116
      vertex -1.98904 5.63406 0
      vertex -1.98904 5.63406 116
    endloop
  endfacet
  facet normal 1 0 0
    outer loop
      vertex -1.98904 5.63406 0
      vertex -1.98904 5.21594 116
      vertex -1.98904 5.21594 0
    endloop
  endfacet
  facet normal 0.809013 -0.587791 0
    outer loop
      vertex -1.73205 6.425 116
      vertex -1.49592 6.75 0
      vertex -1.49592 6.75 116
    endloop
  endfacet
  facet normal 0.809013 -0.587791 0
    outer loop
      vertex -1.49592 6.75 0
      vertex -1.73205 6.425 116
      vertex -1.73205 6.425 0
    endloop
  endfacet
  facet normal -1 0 0
    outer loop
      vertex 1.98904 5.21594 0
      vertex 1.98904 5.63406 116
      vertex 1.98904 5.63406 0
    endloop
  endfacet
  facet normal -1 -0 0
    outer loop
      vertex 1.98904 5.63406 116
      vertex 1.98904 5.21594 0
      vertex 1.98904 5.21594 116
    endloop
  endfacet
  facet normal 0.809017 0.587785 0
    outer loop
      vertex -1.48629 4.08674 116
      vertex -1.73205 4.425 0
      vertex -1.73205 4.425 116
    endloop
  endfacet
  facet normal 0.809017 0.587785 0
    outer loop
      vertex -1.73205 4.425 0
      vertex -1.48629 4.08674 116
      vertex -1.48629 4.08674 0
    endloop
  endfacet
  facet normal 1 -0 0
    outer loop
      vertex -1.5 -7.5 116
      vertex -1.5 -6.75 0
      vertex -1.5 -6.75 116
    endloop
  endfacet
  facet normal 1 0 0
    outer loop
      vertex -1.5 -6.75 0
      vertex -1.5 -7.5 116
      vertex -1.5 -7.5 0
    endloop
  endfacet
  facet normal -1 0 0
    outer loop
      vertex 1.5 -7.5 0
      vertex 1.5 -6.75 116
      vertex 1.5 -6.75 0
    endloop
  endfacet
  facet normal -1 -0 0
    outer loop
      vertex 1.5 -6.75 116
      vertex 1.5 -7.5 0
      vertex 1.5 -7.5 116
    endloop
  endfacet
  facet normal 0 -1 0
    outer loop
      vertex -1.5 -6.75 0
      vertex -1.49592 -6.75 116
      vertex -1.5 -6.75 116
    endloop
  endfacet
  facet normal 0 -1 -0
    outer loop
      vertex -1.49592 -6.75 116
      vertex -1.5 -6.75 0
      vertex -1.49592 -6.75 0
    endloop
  endfacet
  facet normal 0 -1 0
    outer loop
      vertex 1.49592 -6.75 0
      vertex 1.5 -6.75 116
      vertex 1.49592 -6.75 116
    endloop
  endfacet
  facet normal 0 -1 -0
    outer loop
      vertex 1.5 -6.75 116
      vertex 1.49592 -6.75 0
      vertex 1.5 -6.75 0
    endloop
  endfacet
  facet normal -0.913549 -0.406729 0
    outer loop
      vertex 1.90211 -4.80697 0
      vertex 1.73205 -4.425 116
      vertex 1.73205 -4.425 0
    endloop
  endfacet
  facet normal -0.913549 -0.406729 0
    outer loop
      vertex 1.73205 -4.425 116
      vertex 1.90211 -4.80697 0
      vertex 1.90211 -4.80697 116
    endloop
  endfacet
  facet normal -0.669126 -0.743149 0
    outer loop
      vertex 1.17557 -3.80697 0
      vertex 1.48629 -4.08674 116
      vertex 1.17557 -3.80697 116
    endloop
  endfacet
  facet normal -0.669126 -0.743149 -0
    outer loop
      vertex 1.48629 -4.08674 116
      vertex 1.17557 -3.80697 0
      vertex 1.48629 -4.08674 0
    endloop
  endfacet
  facet normal 0.913549 0.406729 0
    outer loop
      vertex -1.73205 -6.425 116
      vertex -1.90211 -6.04303 0
      vertex -1.90211 -6.04303 116
    endloop
  endfacet
  facet normal 0.913549 0.406729 0
    outer loop
      vertex -1.90211 -6.04303 0
      vertex -1.73205 -6.425 116
      vertex -1.73205 -6.425 0
    endloop
  endfacet
  facet normal -0.309008 -0.95106 0
    outer loop
      vertex 0.415823 -3.46871 0
      vertex 0.813473 -3.59791 116
      vertex 0.415823 -3.46871 116
    endloop
  endfacet
  facet normal -0.309008 -0.95106 -0
    outer loop
      vertex 0.813473 -3.59791 116
      vertex 0.415823 -3.46871 0
      vertex 0.813473 -3.59791 0
    endloop
  endfacet
  facet normal 0.809017 -0.587785 0
    outer loop
      vertex -1.73205 -4.425 116
      vertex -1.48629 -4.08674 0
      vertex -1.48629 -4.08674 116
    endloop
  endfacet
  facet normal 0.809017 -0.587785 0
    outer loop
      vertex -1.48629 -4.08674 0
      vertex -1.73205 -4.425 116
      vertex -1.73205 -4.425 0
    endloop
  endfacet
  facet normal 0.809013 0.587791 0
    outer loop
      vertex -1.49592 -6.75 116
      vertex -1.73205 -6.425 0
      vertex -1.73205 -6.425 116
    endloop
  endfacet
  facet normal 0.809013 0.587791 0
    outer loop
      vertex -1.73205 -6.425 0
      vertex -1.49592 -6.75 116
      vertex -1.49592 -6.75 0
    endloop
  endfacet
  facet normal 0.104534 -0.994521 0
    outer loop
      vertex -0.415823 -3.46871 0
      vertex -0.104245 -3.43596 116
      vertex -0.415823 -3.46871 116
    endloop
  endfacet
  facet normal 0.104534 -0.994521 0
    outer loop
      vertex -0.104245 -3.43596 116
      vertex -0.415823 -3.46871 0
      vertex -0.104245 -3.43596 0
    endloop
  endfacet
  facet normal 0.104561 -0.994519 0
    outer loop
      vertex -0.104245 -3.43596 0
      vertex 0 -3.425 116
      vertex -0.104245 -3.43596 116
    endloop
  endfacet
  facet normal 0.104561 -0.994519 0
    outer loop
      vertex 0 -3.425 116
      vertex -0.104245 -3.43596 0
      vertex 0 -3.425 0
    endloop
  endfacet
  facet normal -0.978147 0.207913 0
    outer loop
      vertex 1.90211 -6.04303 0
      vertex 1.98904 -5.63406 116
      vertex 1.98904 -5.63406 0
    endloop
  endfacet
  facet normal -0.978147 0.207913 0
    outer loop
      vertex 1.98904 -5.63406 116
      vertex 1.90211 -6.04303 0
      vertex 1.90211 -6.04303 116
    endloop
  endfacet
  facet normal -0.104561 -0.994519 0
    outer loop
      vertex 0 -3.425 0
      vertex 0.104245 -3.43596 116
      vertex 0 -3.425 116
    endloop
  endfacet
  facet normal -0.104561 -0.994519 -0
    outer loop
      vertex 0.104245 -3.43596 116
      vertex 0 -3.425 0
      vertex 0.104245 -3.43596 0
    endloop
  endfacet
  facet normal -0.104534 -0.994521 0
    outer loop
      vertex 0.104245 -3.43596 0
      vertex 0.415823 -3.46871 116
      vertex 0.104245 -3.43596 116
    endloop
  endfacet
  facet normal -0.104534 -0.994521 -0
    outer loop
      vertex 0.415823 -3.46871 116
      vertex 0.104245 -3.43596 0
      vertex 0.415823 -3.46871 0
    endloop
  endfacet
  facet normal 0.309008 -0.95106 0
    outer loop
      vertex -0.813473 -3.59791 0
      vertex -0.415823 -3.46871 116
      vertex -0.813473 -3.59791 116
    endloop
  endfacet
  facet normal 0.309008 -0.95106 0
    outer loop
      vertex -0.415823 -3.46871 116
      vertex -0.813473 -3.59791 0
      vertex -0.415823 -3.46871 0
    endloop
  endfacet
  facet normal 0.978147 -0.207913 0
    outer loop
      vertex -1.98904 -5.21594 116
      vertex -1.90211 -4.80697 0
      vertex -1.90211 -4.80697 116
    endloop
  endfacet
  facet normal 0.978147 -0.207913 0
    outer loop
      vertex -1.90211 -4.80697 0
      vertex -1.98904 -5.21594 116
      vertex -1.98904 -5.21594 0
    endloop
  endfacet
  facet normal 0.978147 0.207913 0
    outer loop
      vertex -1.90211 -6.04303 116
      vertex -1.98904 -5.63406 0
      vertex -1.98904 -5.63406 116
    endloop
  endfacet
  facet normal 0.978147 0.207913 0
    outer loop
      vertex -1.98904 -5.63406 0
      vertex -1.90211 -6.04303 116
      vertex -1.90211 -6.04303 0
    endloop
  endfacet
  facet normal 0.913549 -0.406729 0
    outer loop
      vertex -1.90211 -4.80697 116
      vertex -1.73205 -4.425 0
      vertex -1.73205 -4.425 116
    endloop
  endfacet
  facet normal 0.913549 -0.406729 0
    outer loop
      vertex -1.73205 -4.425 0
      vertex -1.90211 -4.80697 116
      vertex -1.90211 -4.80697 0
    endloop
  endfacet
  facet normal -0.913549 0.406729 0
    outer loop
      vertex 1.73205 -6.425 0
      vertex 1.90211 -6.04303 116
      vertex 1.90211 -6.04303 0
    endloop
  endfacet
  facet normal -0.913549 0.406729 0
    outer loop
      vertex 1.90211 -6.04303 116
      vertex 1.73205 -6.425 0
      vertex 1.73205 -6.425 116
    endloop
  endfacet
  facet normal 0.669126 -0.743149 0
    outer loop
      vertex -1.48629 -4.08674 0
      vertex -1.17557 -3.80697 116
      vertex -1.48629 -4.08674 116
    endloop
  endfacet
  facet normal 0.669126 -0.743149 0
    outer loop
      vertex -1.17557 -3.80697 116
      vertex -1.48629 -4.08674 0
      vertex -1.17557 -3.80697 0
    endloop
  endfacet
  facet normal -0.978147 -0.207913 0
    outer loop
      vertex 1.98904 -5.21594 0
      vertex 1.90211 -4.80697 116
      vertex 1.90211 -4.80697 0
    endloop
  endfacet
  facet normal -0.978147 -0.207913 0
    outer loop
      vertex 1.90211 -4.80697 116
      vertex 1.98904 -5.21594 0
      vertex 1.98904 -5.21594 116
    endloop
  endfacet
  facet normal -0.500006 -0.866022 0
    outer loop
      vertex 0.813473 -3.59791 0
      vertex 1.17557 -3.80697 116
      vertex 0.813473 -3.59791 116
    endloop
  endfacet
  facet normal -0.500006 -0.866022 -0
    outer loop
      vertex 1.17557 -3.80697 116
      vertex 0.813473 -3.59791 0
      vertex 1.17557 -3.80697 0
    endloop
  endfacet
  facet normal 0.500006 -0.866022 0
    outer loop
      vertex -1.17557 -3.80697 0
      vertex -0.813473 -3.59791 116
      vertex -1.17557 -3.80697 116
    endloop
  endfacet
  facet normal 0.500006 -0.866022 0
    outer loop
      vertex -0.813473 -3.59791 116
      vertex -1.17557 -3.80697 0
      vertex -0.813473 -3.59791 0
    endloop
  endfacet
  facet normal -1 0 0
    outer loop
      vertex 1.98904 -5.63406 0
      vertex 1.98904 -5.21594 116
      vertex 1.98904 -5.21594 0
    endloop
  endfacet
  facet normal -1 -0 0
    outer loop
      vertex 1.98904 -5.21594 116
      vertex 1.98904 -5.63406 0
      vertex 1.98904 -5.63406 116
    endloop
  endfacet
  facet normal -0.809013 0.587791 0
    outer loop
      vertex 1.49592 -6.75 0
      vertex 1.73205 -6.425 116
      vertex 1.73205 -6.425 0
    endloop
  endfacet
  facet normal -0.809013 0.587791 0
    outer loop
      vertex 1.73205 -6.425 116
      vertex 1.49592 -6.75 0
      vertex 1.49592 -6.75 116
    endloop
  endfacet
  facet normal 1 -0 0
    outer loop
      vertex -1.98904 -5.63406 116
      vertex -1.98904 -5.21594 0
      vertex -1.98904 -5.21594 116
    endloop
  endfacet
  facet normal 1 0 0
    outer loop
      vertex -1.98904 -5.21594 0
      vertex -1.98904 -5.63406 116
      vertex -1.98904 -5.63406 0
    endloop
  endfacet
  facet normal -0.809017 -0.587785 0
    outer loop
      vertex 1.73205 -4.425 0
      vertex 1.48629 -4.08674 116
      vertex 1.48629 -4.08674 0
    endloop
  endfacet
  facet normal -0.809017 -0.587785 0
    outer loop
      vertex 1.48629 -4.08674 116
      vertex 1.73205 -4.425 0
      vertex 1.73205 -4.425 116
    endloop
  endfacet
endsolid OpenSCAD_Model
