solid OpenSCAD_Model
  facet normal 1 -0 0
    outer loop
      vertex -1.5 -7.45 9.07919
      vertex -1.5 -6.75 0
      vertex -1.5 -6.75 9.07919
    endloop
  endfacet
  facet normal 1 0 0
    outer loop
      vertex -1.5 -7.5 0
      vertex -1.5 -7.45 9.07919
      vertex -1.5 -7.5 9.07919
    endloop
  endfacet
  facet normal 1 0 0
    outer loop
      vertex -1.5 -7.45 9.07919
      vertex -1.5 -7.5 0
      vertex -1.5 -6.75 0
    endloop
  endfacet
  facet normal 0.309002 0 -0.951061
    outer loop
      vertex -1.22982 -7.5 9.45106
      vertex -1.07919 -7.45 9.5
      vertex -1.07919 -7.5 9.5
    endloop
  endfacet
  facet normal 0.309002 0 -0.951061
    outer loop
      vertex -1.07919 -7.45 9.5
      vertex -1.22982 -7.5 9.45106
      vertex -1.22982 -7.45 9.45106
    endloop
  endfacet
  facet normal 0.587789 0 -0.809014
    outer loop
      vertex -1.35796 -7.5 9.35796
      vertex -1.22982 -7.45 9.45106
      vertex -1.22982 -7.5 9.45106
    endloop
  endfacet
  facet normal 0.587789 0 -0.809014
    outer loop
      vertex -1.35796 -6.75 9.35796
      vertex -1.22982 -7.45 9.45106
      vertex -1.35796 -7.5 9.35796
    endloop
  endfacet
  facet normal 0.587789 0 -0.809014
    outer loop
      vertex -1.22982 -7.45 9.45106
      vertex -1.35796 -6.75 9.35796
      vertex -1.22982 -6.75 9.45106
    endloop
  endfacet
  facet normal 0.951061 0 -0.309002
    outer loop
      vertex -1.45106 -7.5 9.22982
      vertex -1.5 -7.45 9.07919
      vertex -1.45106 -7.45 9.22982
    endloop
  endfacet
  facet normal 0.951061 0 -0.309002
    outer loop
      vertex -1.5 -7.45 9.07919
      vertex -1.45106 -7.5 9.22982
      vertex -1.5 -7.5 9.07919
    endloop
  endfacet
  facet normal 0.809014 0 -0.587789
    outer loop
      vertex -1.35796 -6.75 9.35796
      vertex -1.45106 -7.45 9.22982
      vertex -1.45106 -6.75 9.22982
    endloop
  endfacet
  facet normal 0.809014 0 -0.587789
    outer loop
      vertex -1.35796 -7.5 9.35796
      vertex -1.45106 -7.45 9.22982
      vertex -1.35796 -6.75 9.35796
    endloop
  endfacet
  facet normal 0.809014 0 -0.587789
    outer loop
      vertex -1.45106 -7.45 9.22982
      vertex -1.35796 -7.5 9.35796
      vertex -1.45106 -7.5 9.22982
    endloop
  endfacet
  facet normal 0 0 -1
    outer loop
      vertex -1.07919 -7.45 9.5
      vertex 1.07919 -7.45 9.5
      vertex 1.07919 -7.5 9.5
    endloop
  endfacet
  facet normal 0 0 -1
    outer loop
      vertex -1.07919 -7.45 9.5
      vertex 1.07919 -7.5 9.5
      vertex -1.07919 -7.5 9.5
    endloop
  endfacet
  facet normal 0 0 -1
    outer loop
      vertex 1.07919 -7.45 9.5
      vertex -1.07919 -7.45 9.5
      vertex 1.07919 -6.75 9.5
    endloop
  endfacet
  facet normal -0 0 -1
    outer loop
      vertex 1.07919 -6.75 9.5
      vertex -1.07919 -7.45 9.5
      vertex -1.07919 -6.75 9.5
    endloop
  endfacet
  facet normal -0.587789 -0 -0.809014
    outer loop
      vertex 1.22982 -7.45 9.45106
      vertex 1.35796 -7.5 9.35796
      vertex 1.22982 -7.5 9.45106
    endloop
  endfacet
  facet normal -0.587789 0 -0.809014
    outer loop
      vertex 1.35796 -7.5 9.35796
      vertex 1.22982 -7.45 9.45106
      vertex 1.35796 -6.75 9.35796
    endloop
  endfacet
  facet normal -0.587789 0 -0.809014
    outer loop
      vertex 1.35796 -6.75 9.35796
      vertex 1.22982 -7.45 9.45106
      vertex 1.22982 -6.75 9.45106
    endloop
  endfacet
  facet normal -1 0 0
    outer loop
      vertex 1.5 -6.75 0
      vertex 1.5 -7.45 9.07919
      vertex 1.5 -6.75 9.07919
    endloop
  endfacet
  facet normal -1 0 0
    outer loop
      vertex 1.5 -7.5 0
      vertex 1.5 -7.45 9.07919
      vertex 1.5 -6.75 0
    endloop
  endfacet
  facet normal -1 -0 0
    outer loop
      vertex 1.5 -7.45 9.07919
      vertex 1.5 -7.5 0
      vertex 1.5 -7.5 9.07919
    endloop
  endfacet
  facet normal -0.309002 0 -0.951061
    outer loop
      vertex 1.07919 -7.5 9.5
      vertex 1.22982 -7.45 9.45106
      vertex 1.22982 -7.5 9.45106
    endloop
  endfacet
  facet normal -0.309002 0 -0.951061
    outer loop
      vertex 1.22982 -7.45 9.45106
      vertex 1.07919 -7.5 9.5
      vertex 1.07919 -7.45 9.5
    endloop
  endfacet
  facet normal -0.809014 0 -0.587789
    outer loop
      vertex 1.45106 -7.45 9.22982
      vertex 1.35796 -6.75 9.35796
      vertex 1.45106 -6.75 9.22982
    endloop
  endfacet
  facet normal -0.809014 0 -0.587789
    outer loop
      vertex 1.35796 -7.5 9.35796
      vertex 1.45106 -7.45 9.22982
      vertex 1.45106 -7.5 9.22982
    endloop
  endfacet
  facet normal -0.809014 0 -0.587789
    outer loop
      vertex 1.45106 -7.45 9.22982
      vertex 1.35796 -7.5 9.35796
      vertex 1.35796 -6.75 9.35796
    endloop
  endfacet
  facet normal -0.951061 0 -0.309002
    outer loop
      vertex 1.5 -7.5 9.07919
      vertex 1.45106 -7.45 9.22982
      vertex 1.5 -7.45 9.07919
    endloop
  endfacet
  facet normal -0.951061 -0 -0.309002
    outer loop
      vertex 1.45106 -7.45 9.22982
      vertex 1.5 -7.5 9.07919
      vertex 1.45106 -7.5 9.22982
    endloop
  endfacet
  facet normal -0 1 0
    outer loop
      vertex -1.45405 -7.45 9.22062
      vertex -1.45106 -7.45 9.22982
      vertex -1.49973 -7.45 9.08003
    endloop
  endfacet
  facet normal 0 1 0
    outer loop
      vertex -1.5 -7.45 9.07919
      vertex -1.49973 -7.45 9.08003
      vertex -1.45106 -7.45 9.22982
    endloop
  endfacet
  facet normal 0 1 0
    outer loop
      vertex 1.07919 -7.45 9.5
      vertex 1.08258 -7.45 9.4989
      vertex 1.22317 -7.45 9.45322
    endloop
  endfacet
  facet normal 0 -1 0
    outer loop
      vertex 1.07919 -7.45 9.5
      vertex 1.22317 -7.45 9.45322
      vertex 1.22982 -7.45 9.45106
    endloop
  endfacet
  facet normal 0 -1 0
    outer loop
      vertex -1.22982 -7.45 9.45106
      vertex -1.22317 -7.45 9.45322
      vertex -1.08258 -7.45 9.4989
    endloop
  endfacet
  facet normal 0 1 0
    outer loop
      vertex -1.22982 -7.45 9.45106
      vertex -1.08258 -7.45 9.4989
      vertex -1.07919 -7.45 9.5
    endloop
  endfacet
  facet normal 0 1 0
    outer loop
      vertex 1.45405 -7.45 9.22062
      vertex 1.49973 -7.45 9.08003
      vertex 1.45106 -7.45 9.22982
    endloop
  endfacet
  facet normal 0 1 0
    outer loop
      vertex 1.5 -7.45 9.07919
      vertex 1.45106 -7.45 9.22982
      vertex 1.49973 -7.45 9.08003
    endloop
  endfacet
  facet normal 0.308924 0 -0.951087
    outer loop
      vertex -1.22982 -6.75 9.45106
      vertex -1.22317 -7.45 9.45322
      vertex -1.22982 -7.45 9.45106
    endloop
  endfacet
  facet normal 0.309043 1.24565e-06 -0.951048
    outer loop
      vertex -1.22317 -7.45 9.45322
      vertex -1.22982 -6.75 9.45106
      vertex -1.13002 -6.75 9.48349
    endloop
  endfacet
  facet normal 0.309014 5.48235e-06 -0.951057
    outer loop
      vertex -1.08258 -7.45 9.4989
      vertex -1.22317 -7.45 9.45322
      vertex -1.13002 -6.75 9.48349
    endloop
  endfacet
  facet normal 0.308642 0 -0.951178
    outer loop
      vertex -1.08258 -7.45 9.4989
      vertex -1.07919 -6.75 9.5
      vertex -1.07919 -7.45 9.5
    endloop
  endfacet
  facet normal 0.308921 -1.49422e-06 -0.951088
    outer loop
      vertex -1.07919 -6.75 9.5
      vertex -1.08258 -7.45 9.4989
      vertex -1.13002 -6.75 9.48349
    endloop
  endfacet
  facet normal 0.951006 -4.18941e-06 -0.309172
    outer loop
      vertex -1.49973 -7.45 9.08003
      vertex -1.5 -6.75 9.07919
      vertex -1.49592 -6.75 9.09174
    endloop
  endfacet
  facet normal 0.952029 0 -0.306009
    outer loop
      vertex -1.5 -6.75 9.07919
      vertex -1.49973 -7.45 9.08003
      vertex -1.5 -7.45 9.07919
    endloop
  endfacet
  facet normal 0.951057 -7.10396e-06 -0.309014
    outer loop
      vertex -1.45405 -7.45 9.22062
      vertex -1.49973 -7.45 9.08003
      vertex -1.49592 -6.75 9.09174
    endloop
  endfacet
  facet normal 0.951034 0 -0.309086
    outer loop
      vertex -1.45405 -7.45 9.22062
      vertex -1.45106 -6.75 9.22982
      vertex -1.45106 -7.45 9.22982
    endloop
  endfacet
  facet normal 0.951066 -1.4484e-06 -0.308986
    outer loop
      vertex -1.45106 -6.75 9.22982
      vertex -1.45405 -7.45 9.22062
      vertex -1.49592 -6.75 9.09174
    endloop
  endfacet
  facet normal -0.308642 -0 -0.951178
    outer loop
      vertex 1.07919 -6.75 9.5
      vertex 1.08258 -7.45 9.4989
      vertex 1.07919 -7.45 9.5
    endloop
  endfacet
  facet normal -0.308921 -1.49422e-06 -0.951088
    outer loop
      vertex 1.08258 -7.45 9.4989
      vertex 1.07919 -6.75 9.5
      vertex 1.13002 -6.75 9.48349
    endloop
  endfacet
  facet normal -0.309014 5.48235e-06 -0.951057
    outer loop
      vertex 1.22317 -7.45 9.45322
      vertex 1.08258 -7.45 9.4989
      vertex 1.13002 -6.75 9.48349
    endloop
  endfacet
  facet normal -0.308924 0 -0.951087
    outer loop
      vertex 1.22317 -7.45 9.45322
      vertex 1.22982 -6.75 9.45106
      vertex 1.22982 -7.45 9.45106
    endloop
  endfacet
  facet normal -0.309043 1.24565e-06 -0.951048
    outer loop
      vertex 1.22982 -6.75 9.45106
      vertex 1.22317 -7.45 9.45322
      vertex 1.13002 -6.75 9.48349
    endloop
  endfacet
  facet normal -0.951066 -1.4484e-06 -0.308986
    outer loop
      vertex 1.45405 -7.45 9.22062
      vertex 1.45106 -6.75 9.22982
      vertex 1.49592 -6.75 9.09174
    endloop
  endfacet
  facet normal -0.951034 -0 -0.309086
    outer loop
      vertex 1.45106 -6.75 9.22982
      vertex 1.45405 -7.45 9.22062
      vertex 1.45106 -7.45 9.22982
    endloop
  endfacet
  facet normal -0.951057 -7.10396e-06 -0.309014
    outer loop
      vertex 1.49973 -7.45 9.08003
      vertex 1.45405 -7.45 9.22062
      vertex 1.49592 -6.75 9.09174
    endloop
  endfacet
  facet normal -0.952029 0 -0.306009
    outer loop
      vertex 1.49973 -7.45 9.08003
      vertex 1.5 -6.75 9.07919
      vertex 1.5 -7.45 9.07919
    endloop
  endfacet
  facet normal -0.951006 -4.18941e-06 -0.309172
    outer loop
      vertex 1.5 -6.75 9.07919
      vertex 1.49973 -7.45 9.08003
      vertex 1.49592 -6.75 9.09174
    endloop
  endfacet
  facet normal 0 -1 0
    outer loop
      vertex -1.49592 -6.75 0
      vertex -1.5 -6.75 9.07919
      vertex -1.5 -6.75 0
    endloop
  endfacet
  facet normal 0 -1 0
    outer loop
      vertex -1.5 -6.75 9.07919
      vertex -1.49592 -6.75 0
      vertex -1.49592 -6.75 9.09174
    endloop
  endfacet
  facet normal 0 -1 0
    outer loop
      vertex -1.13002 -6.75 9.48349
      vertex 1.07919 -6.75 9.5
      vertex -1.07919 -6.75 9.5
    endloop
  endfacet
  facet normal 0 -1 -0
    outer loop
      vertex 1.07919 -6.75 9.5
      vertex -1.13002 -6.75 9.48349
      vertex 1.13002 -6.75 9.48349
    endloop
  endfacet
  facet normal 0 -1 0
    outer loop
      vertex 1.49592 -6.75 0
      vertex 1.5 -6.75 9.07919
      vertex 1.49592 -6.75 9.09174
    endloop
  endfacet
  facet normal 0 -1 -0
    outer loop
      vertex 1.5 -6.75 9.07919
      vertex 1.49592 -6.75 0
      vertex 1.5 -6.75 0
    endloop
  endfacet
  facet normal 0 0.66911 -0.743163
    outer loop
      vertex 1.13002 -6.75 9.48349
      vertex 1.60449 -6.60057 9.61803
      vertex 1.49592 -6.75 9.48349
    endloop
  endfacet
  facet normal 0 0.66911 -0.743163
    outer loop
      vertex -1.13002 -6.75 9.48349
      vertex 1.60449 -6.60057 9.61803
      vertex 1.13002 -6.75 9.48349
    endloop
  endfacet
  facet normal 0 0.66911 -0.743163
    outer loop
      vertex -1.60449 -6.60057 9.61803
      vertex -1.13002 -6.75 9.48349
      vertex -1.49592 -6.75 9.48349
    endloop
  endfacet
  facet normal 0 0.66911 -0.743163
    outer loop
      vertex -1.13002 -6.75 9.48349
      vertex -1.60449 -6.60057 9.61803
      vertex 1.60449 -6.60057 9.61803
    endloop
  endfacet
  facet normal 0.000209709 0.309091 -0.951032
    outer loop
      vertex -1.90211 -6.04303 9.89059
      vertex -1.94509 -5.84082 9.9563
      vertex -1.8151 -6.23847 9.82709
    endloop
  endfacet
  facet normal -0.000209709 0.309091 -0.951032
    outer loop
      vertex 1.90211 -6.04303 9.89059
      vertex 1.8151 -6.23847 9.82709
      vertex 1.94509 -5.84082 9.9563
    endloop
  endfacet
  facet normal 0 0.309029 -0.951053
    outer loop
      vertex -1.8151 -6.23847 9.82709
      vertex 1.94509 -5.84082 9.9563
      vertex 1.8151 -6.23847 9.82709
    endloop
  endfacet
  facet normal 0 0.309029 -0.951053
    outer loop
      vertex 1.94509 -5.84082 9.9563
      vertex -1.8151 -6.23847 9.82709
      vertex -1.94509 -5.84082 9.9563
    endloop
  endfacet
  facet normal -3.85982e-05 -0.104514 -0.994523
    outer loop
      vertex -1.94509 -5.00918 9.9563
      vertex -1.98904 -5.425 10
      vertex -1.98904 -5.21594 9.97803
    endloop
  endfacet
  facet normal 0 -0.104518 -0.994523
    outer loop
      vertex 1.98904 -5.425 10
      vertex -1.94509 -5.00918 9.9563
      vertex 1.94509 -5.00918 9.9563
    endloop
  endfacet
  facet normal 0 -0.104518 -0.994523
    outer loop
      vertex -1.94509 -5.00918 9.9563
      vertex 1.98904 -5.425 10
      vertex -1.98904 -5.425 10
    endloop
  endfacet
  facet normal 3.85982e-05 -0.104514 -0.994523
    outer loop
      vertex 1.98904 -5.425 10
      vertex 1.94509 -5.00918 9.9563
      vertex 1.98904 -5.21594 9.97803
    endloop
  endfacet
  facet normal -3.85982e-05 0.104514 -0.994523
    outer loop
      vertex -1.94509 -5.84082 9.9563
      vertex -1.98904 -5.63406 9.97803
      vertex -1.98904 -5.425 10
    endloop
  endfacet
  facet normal 3.85982e-05 0.104514 -0.994523
    outer loop
      vertex 1.98904 -5.63406 9.97803
      vertex 1.94509 -5.84082 9.9563
      vertex 1.98904 -5.425 10
    endloop
  endfacet
  facet normal 0 0.104518 -0.994523
    outer loop
      vertex -1.94509 -5.84082 9.9563
      vertex 1.98904 -5.425 10
      vertex 1.94509 -5.84082 9.9563
    endloop
  endfacet
  facet normal 0 0.104518 -0.994523
    outer loop
      vertex 1.98904 -5.425 10
      vertex -1.94509 -5.84082 9.9563
      vertex -1.98904 -5.425 10
    endloop
  endfacet
  facet normal 0.000288143 -0.309106 -0.951027
    outer loop
      vertex -1.8211 -4.625 9.83147
      vertex -1.94509 -5.00918 9.9563
      vertex -1.90211 -4.80697 9.89059
    endloop
  endfacet
  facet normal 0 -0.309022 -0.951055
    outer loop
      vertex 1.94509 -5.00918 9.9563
      vertex -1.8211 -4.625 9.83147
      vertex 1.8211 -4.625 9.83147
    endloop
  endfacet
  facet normal 0 -0.309022 -0.951055
    outer loop
      vertex -1.8211 -4.625 9.83147
      vertex 1.94509 -5.00918 9.9563
      vertex -1.94509 -5.00918 9.9563
    endloop
  endfacet
  facet normal -0.000288143 -0.309106 -0.951027
    outer loop
      vertex 1.94509 -5.00918 9.9563
      vertex 1.8211 -4.625 9.83147
      vertex 1.90211 -4.80697 9.89059
    endloop
  endfacet
  facet normal -0.000132813 0.499945 -0.866057
    outer loop
      vertex -1.73205 -6.425 9.7194
      vertex -1.8151 -6.23847 9.82709
      vertex -1.60449 -6.60057 9.61803
    endloop
  endfacet
  facet normal 0.000132813 0.499945 -0.866057
    outer loop
      vertex 1.73205 -6.425 9.7194
      vertex 1.60449 -6.60057 9.61803
      vertex 1.8151 -6.23847 9.82709
    endloop
  endfacet
  facet normal 0 0.500003 -0.866024
    outer loop
      vertex -1.60449 -6.60057 9.61803
      vertex 1.8151 -6.23847 9.82709
      vertex 1.60449 -6.60057 9.61803
    endloop
  endfacet
  facet normal 0 0.500003 -0.866024
    outer loop
      vertex 1.8151 -6.23847 9.82709
      vertex -1.60449 -6.60057 9.61803
      vertex -1.8151 -6.23847 9.82709
    endloop
  endfacet
  facet normal -0.913561 -0.406702 0
    outer loop
      vertex 1.90211 -4.80697 0
      vertex 1.8211 -4.625 9.83147
      vertex 1.8211 -4.625 0
    endloop
  endfacet
  facet normal -0.913561 -0.406702 0
    outer loop
      vertex 1.8211 -4.625 9.83147
      vertex 1.90211 -4.80697 0
      vertex 1.90211 -4.80697 9.89059
    endloop
  endfacet
  facet normal 0.913549 0.406729 0
    outer loop
      vertex -1.73205 -6.425 9.7194
      vertex -1.90211 -6.04303 0
      vertex -1.90211 -6.04303 9.89059
    endloop
  endfacet
  facet normal 0.913549 0.406729 0
    outer loop
      vertex -1.90211 -6.04303 0
      vertex -1.73205 -6.425 9.7194
      vertex -1.73205 -6.425 0
    endloop
  endfacet
  facet normal 0.913571 0.40668 0.000130717
    outer loop
      vertex -1.73205 -6.425 9.7194
      vertex -1.90211 -6.04303 9.89059
      vertex -1.8151 -6.23847 9.82709
    endloop
  endfacet
  facet normal 0.809013 0.587791 0
    outer loop
      vertex -1.49592 -6.75 9.09174
      vertex -1.73205 -6.425 0
      vertex -1.73205 -6.425 9.7194
    endloop
  endfacet
  facet normal 0.809013 0.587791 0
    outer loop
      vertex -1.73205 -6.425 0
      vertex -1.49592 -6.75 9.09174
      vertex -1.49592 -6.75 0
    endloop
  endfacet
  facet normal 0.809016 0.587787 3.60351e-06
    outer loop
      vertex -1.49592 -6.75 9.09174
      vertex -1.73205 -6.425 9.7194
      vertex -1.60449 -6.60057 9.61803
    endloop
  endfacet
  facet normal 0.80901 0.587795 -0
    outer loop
      vertex -1.49592 -6.75 9.09174
      vertex -1.60449 -6.60057 9.61803
      vertex -1.49592 -6.75 9.48349
    endloop
  endfacet
  facet normal -0.978145 0.207926 -6.22182e-05
    outer loop
      vertex 1.98904 -5.63406 9.97803
      vertex 1.90211 -6.04303 9.89059
      vertex 1.94509 -5.84082 9.9563
    endloop
  endfacet
  facet normal -0.978147 0.207913 0
    outer loop
      vertex 1.90211 -6.04303 9.89059
      vertex 1.98904 -5.63406 0
      vertex 1.90211 -6.04303 0
    endloop
  endfacet
  facet normal -0.978147 0.207913 0
    outer loop
      vertex 1.98904 -5.63406 0
      vertex 1.90211 -6.04303 9.89059
      vertex 1.98904 -5.63406 9.97803
    endloop
  endfacet
  facet normal 0.978147 -0.207913 0
    outer loop
      vertex -1.98904 -5.21594 0
      vertex -1.90211 -4.80697 9.89059
      vertex -1.98904 -5.21594 9.97803
    endloop
  endfacet
  facet normal 0.978147 -0.207913 0
    outer loop
      vertex -1.90211 -4.80697 9.89059
      vertex -1.98904 -5.21594 0
      vertex -1.90211 -4.80697 0
    endloop
  endfacet
  facet normal 0.978145 -0.207926 -6.22182e-05
    outer loop
      vertex -1.94509 -5.00918 9.9563
      vertex -1.98904 -5.21594 9.97803
      vertex -1.90211 -4.80697 9.89059
    endloop
  endfacet
  facet normal 0.978147 0.207913 0
    outer loop
      vertex -1.90211 -6.04303 9.89059
      vertex -1.98904 -5.63406 0
      vertex -1.98904 -5.63406 9.97803
    endloop
  endfacet
  facet normal 0.978147 0.207913 0
    outer loop
      vertex -1.98904 -5.63406 0
      vertex -1.90211 -6.04303 9.89059
      vertex -1.90211 -6.04303 0
    endloop
  endfacet
  facet normal 0.978145 0.207926 -6.22182e-05
    outer loop
      vertex -1.90211 -6.04303 9.89059
      vertex -1.98904 -5.63406 9.97803
      vertex -1.94509 -5.84082 9.9563
    endloop
  endfacet
  facet normal 0.913561 -0.406702 0
    outer loop
      vertex -1.90211 -4.80697 0
      vertex -1.8211 -4.625 9.83147
      vertex -1.90211 -4.80697 9.89059
    endloop
  endfacet
  facet normal 0.913561 -0.406702 0
    outer loop
      vertex -1.8211 -4.625 9.83147
      vertex -1.90211 -4.80697 0
      vertex -1.8211 -4.625 0
    endloop
  endfacet
  facet normal -0.913571 0.40668 0.000130717
    outer loop
      vertex 1.90211 -6.04303 9.89059
      vertex 1.73205 -6.425 9.7194
      vertex 1.8151 -6.23847 9.82709
    endloop
  endfacet
  facet normal -0.913549 0.406729 0
    outer loop
      vertex 1.73205 -6.425 9.7194
      vertex 1.90211 -6.04303 0
      vertex 1.73205 -6.425 0
    endloop
  endfacet
  facet normal -0.913549 0.406729 0
    outer loop
      vertex 1.90211 -6.04303 0
      vertex 1.73205 -6.425 9.7194
      vertex 1.90211 -6.04303 9.89059
    endloop
  endfacet
  facet normal -0.978145 -0.207926 -6.22182e-05
    outer loop
      vertex 1.94509 -5.00918 9.9563
      vertex 1.90211 -4.80697 9.89059
      vertex 1.98904 -5.21594 9.97803
    endloop
  endfacet
  facet normal -0.978147 -0.207913 0
    outer loop
      vertex 1.98904 -5.21594 0
      vertex 1.90211 -4.80697 9.89059
      vertex 1.90211 -4.80697 0
    endloop
  endfacet
  facet normal -0.978147 -0.207913 0
    outer loop
      vertex 1.90211 -4.80697 9.89059
      vertex 1.98904 -5.21594 0
      vertex 1.98904 -5.21594 9.97803
    endloop
  endfacet
  facet normal -1 0 0
    outer loop
      vertex 1.98904 -5.63406 9.97803
      vertex 1.98904 -5.21594 9.97803
      vertex 1.98904 -5.21594 0
    endloop
  endfacet
  facet normal -1 0 0
    outer loop
      vertex 1.98904 -5.63406 9.97803
      vertex 1.98904 -5.21594 0
      vertex 1.98904 -5.63406 0
    endloop
  endfacet
  facet normal -1 0 0
    outer loop
      vertex 1.98904 -5.21594 9.97803
      vertex 1.98904 -5.63406 9.97803
      vertex 1.98904 -5.425 10
    endloop
  endfacet
  facet normal -0.809016 0.587787 3.60351e-06
    outer loop
      vertex 1.73205 -6.425 9.7194
      vertex 1.49592 -6.75 9.09174
      vertex 1.60449 -6.60057 9.61803
    endloop
  endfacet
  facet normal -0.809013 0.587791 0
    outer loop
      vertex 1.49592 -6.75 9.09174
      vertex 1.73205 -6.425 0
      vertex 1.49592 -6.75 0
    endloop
  endfacet
  facet normal -0.809013 0.587791 0
    outer loop
      vertex 1.73205 -6.425 0
      vertex 1.49592 -6.75 9.09174
      vertex 1.73205 -6.425 9.7194
    endloop
  endfacet
  facet normal -0.80901 0.587795 0
    outer loop
      vertex 1.60449 -6.60057 9.61803
      vertex 1.49592 -6.75 9.09174
      vertex 1.49592 -6.75 9.48349
    endloop
  endfacet
  facet normal 1 0 0
    outer loop
      vertex -1.98904 -5.63406 9.97803
      vertex -1.98904 -5.21594 9.97803
      vertex -1.98904 -5.425 10
    endloop
  endfacet
  facet normal 1 0 0
    outer loop
      vertex -1.98904 -5.21594 9.97803
      vertex -1.98904 -5.63406 9.97803
      vertex -1.98904 -5.21594 0
    endloop
  endfacet
  facet normal 1 0 0
    outer loop
      vertex -1.98904 -5.21594 0
      vertex -1.98904 -5.63406 9.97803
      vertex -1.98904 -5.63406 0
    endloop
  endfacet
  facet normal 0 -1 0
    outer loop
      vertex -1.8211 -4.625 0
      vertex 1.8211 -4.625 9.83147
      vertex -1.8211 -4.625 9.83147
    endloop
  endfacet
  facet normal 0 -1 -0
    outer loop
      vertex 1.8211 -4.625 9.83147
      vertex -1.8211 -4.625 0
      vertex 1.8211 -4.625 0
    endloop
  endfacet
  facet normal 0 1 -0
    outer loop
      vertex -1.22982 -6.75 9.45106
      vertex -1.49592 -6.75 9.48349
      vertex -1.13002 -6.75 9.48349
    endloop
  endfacet
  facet normal 0 1 -0
    outer loop
      vertex -1.35796 -6.75 9.35796
      vertex -1.49592 -6.75 9.48349
      vertex -1.22982 -6.75 9.45106
    endloop
  endfacet
  facet normal 0 1 -0
    outer loop
      vertex -1.45106 -6.75 9.22982
      vertex -1.49592 -6.75 9.48349
      vertex -1.35796 -6.75 9.35796
    endloop
  endfacet
  facet normal 0 1 0
    outer loop
      vertex -1.49592 -6.75 9.48349
      vertex -1.45106 -6.75 9.22982
      vertex -1.49592 -6.75 9.09174
    endloop
  endfacet
  facet normal 0 1 0
    outer loop
      vertex 1.49592 -6.75 9.48349
      vertex 1.22982 -6.75 9.45106
      vertex 1.13002 -6.75 9.48349
    endloop
  endfacet
  facet normal 0 1 0
    outer loop
      vertex 1.49592 -6.75 9.48349
      vertex 1.35796 -6.75 9.35796
      vertex 1.22982 -6.75 9.45106
    endloop
  endfacet
  facet normal 0 1 0
    outer loop
      vertex 1.49592 -6.75 9.48349
      vertex 1.45106 -6.75 9.22982
      vertex 1.35796 -6.75 9.35796
    endloop
  endfacet
  facet normal -0 1 0
    outer loop
      vertex 1.45106 -6.75 9.22982
      vertex 1.49592 -6.75 9.48349
      vertex 1.49592 -6.75 9.09174
    endloop
  endfacet
  facet normal 0 -1 0
    outer loop
      vertex -7.5 1.5 0
      vertex -7.45 1.5 9.07919
      vertex -7.5 1.5 9.07919
    endloop
  endfacet
  facet normal 0 -1 -0
    outer loop
      vertex -7.45 1.5 9.07919
      vertex -7.5 1.5 0
      vertex -6.75 1.5 9.07919
    endloop
  endfacet
  facet normal 0 -1 -0
    outer loop
      vertex -6.75 1.5 9.07919
      vertex -7.5 1.5 0
      vertex -6.75 1.5 0
    endloop
  endfacet
  facet normal 0 -0.309002 -0.951061
    outer loop
      vertex -7.5 1.07919 9.5
      vertex -7.45 1.22982 9.45106
      vertex -7.45 1.07919 9.5
    endloop
  endfacet
  facet normal -0 -0.309002 -0.951061
    outer loop
      vertex -7.45 1.22982 9.45106
      vertex -7.5 1.07919 9.5
      vertex -7.5 1.22982 9.45106
    endloop
  endfacet
  facet normal 0 -0.587789 -0.809014
    outer loop
      vertex -7.45 1.22982 9.45106
      vertex -6.75 1.35796 9.35796
      vertex -6.75 1.22982 9.45106
    endloop
  endfacet
  facet normal 0 -0.587789 -0.809014
    outer loop
      vertex -7.5 1.35796 9.35796
      vertex -7.45 1.22982 9.45106
      vertex -7.5 1.22982 9.45106
    endloop
  endfacet
  facet normal 0 -0.587789 -0.809014
    outer loop
      vertex -7.45 1.22982 9.45106
      vertex -7.5 1.35796 9.35796
      vertex -6.75 1.35796 9.35796
    endloop
  endfacet
  facet normal 0 -0.951061 -0.309002
    outer loop
      vertex -7.5 1.5 9.07919
      vertex -7.45 1.45106 9.22982
      vertex -7.5 1.45106 9.22982
    endloop
  endfacet
  facet normal 0 -0.951061 -0.309002
    outer loop
      vertex -7.45 1.45106 9.22982
      vertex -7.5 1.5 9.07919
      vertex -7.45 1.5 9.07919
    endloop
  endfacet
  facet normal -0 -0.809014 -0.587789
    outer loop
      vertex -7.45 1.45106 9.22982
      vertex -7.5 1.35796 9.35796
      vertex -7.5 1.45106 9.22982
    endloop
  endfacet
  facet normal 0 -0.809014 -0.587789
    outer loop
      vertex -7.5 1.35796 9.35796
      vertex -7.45 1.45106 9.22982
      vertex -6.75 1.35796 9.35796
    endloop
  endfacet
  facet normal 0 -0.809014 -0.587789
    outer loop
      vertex -6.75 1.35796 9.35796
      vertex -7.45 1.45106 9.22982
      vertex -6.75 1.45106 9.22982
    endloop
  endfacet
  facet normal 0 0 -1
    outer loop
      vertex -7.45 -1.07919 9.5
      vertex -6.75 1.07919 9.5
      vertex -6.75 -1.07919 9.5
    endloop
  endfacet
  facet normal 0 0 -1
    outer loop
      vertex -7.45 -1.07919 9.5
      vertex -7.45 1.07919 9.5
      vertex -6.75 1.07919 9.5
    endloop
  endfacet
  facet normal 0 0 -1
    outer loop
      vertex -7.5 -1.07919 9.5
      vertex -7.45 1.07919 9.5
      vertex -7.45 -1.07919 9.5
    endloop
  endfacet
  facet normal -0 0 -1
    outer loop
      vertex -7.45 1.07919 9.5
      vertex -7.5 -1.07919 9.5
      vertex -7.5 1.07919 9.5
    endloop
  endfacet
  facet normal 0 0.587789 -0.809014
    outer loop
      vertex -6.75 -1.35796 9.35796
      vertex -7.45 -1.22982 9.45106
      vertex -6.75 -1.22982 9.45106
    endloop
  endfacet
  facet normal 0 0.587789 -0.809014
    outer loop
      vertex -7.5 -1.35796 9.35796
      vertex -7.45 -1.22982 9.45106
      vertex -6.75 -1.35796 9.35796
    endloop
  endfacet
  facet normal 0 0.587789 -0.809014
    outer loop
      vertex -7.45 -1.22982 9.45106
      vertex -7.5 -1.35796 9.35796
      vertex -7.5 -1.22982 9.45106
    endloop
  endfacet
  facet normal 0 1 -0
    outer loop
      vertex -6.75 -1.5 0
      vertex -7.45 -1.5 9.07919
      vertex -6.75 -1.5 9.07919
    endloop
  endfacet
  facet normal 0 1 0
    outer loop
      vertex -7.5 -1.5 0
      vertex -7.45 -1.5 9.07919
      vertex -6.75 -1.5 0
    endloop
  endfacet
  facet normal 0 1 0
    outer loop
      vertex -7.45 -1.5 9.07919
      vertex -7.5 -1.5 0
      vertex -7.5 -1.5 9.07919
    endloop
  endfacet
  facet normal 0 0.309002 -0.951061
    outer loop
      vertex -7.5 -1.22982 9.45106
      vertex -7.45 -1.07919 9.5
      vertex -7.45 -1.22982 9.45106
    endloop
  endfacet
  facet normal 0 0.309002 -0.951061
    outer loop
      vertex -7.45 -1.07919 9.5
      vertex -7.5 -1.22982 9.45106
      vertex -7.5 -1.07919 9.5
    endloop
  endfacet
  facet normal 0 0.809014 -0.587789
    outer loop
      vertex -7.45 -1.45106 9.22982
      vertex -6.75 -1.35796 9.35796
      vertex -6.75 -1.45106 9.22982
    endloop
  endfacet
  facet normal 0 0.809014 -0.587789
    outer loop
      vertex -6.75 -1.35796 9.35796
      vertex -7.45 -1.45106 9.22982
      vertex -7.5 -1.35796 9.35796
    endloop
  endfacet
  facet normal 0 0.809014 -0.587789
    outer loop
      vertex -7.5 -1.35796 9.35796
      vertex -7.45 -1.45106 9.22982
      vertex -7.5 -1.45106 9.22982
    endloop
  endfacet
  facet normal 0 0.951061 -0.309002
    outer loop
      vertex -7.45 -1.5 9.07919
      vertex -7.5 -1.45106 9.22982
      vertex -7.45 -1.45106 9.22982
    endloop
  endfacet
  facet normal 0 0.951061 -0.309002
    outer loop
      vertex -7.5 -1.45106 9.22982
      vertex -7.45 -1.5 9.07919
      vertex -7.5 -1.5 9.07919
    endloop
  endfacet
  facet normal 1 0 0
    outer loop
      vertex -7.45 1.45405 9.22062
      vertex -7.45 1.5 9.07919
      vertex -7.45 1.49973 9.08003
    endloop
  endfacet
  facet normal 1 0 0
    outer loop
      vertex -7.45 1.5 9.07919
      vertex -7.45 1.45405 9.22062
      vertex -7.45 1.45106 9.22982
    endloop
  endfacet
  facet normal 1 0 0
    outer loop
      vertex -7.45 -1.22982 9.45106
      vertex -7.45 -1.07919 9.5
      vertex -7.45 -1.08258 9.4989
    endloop
  endfacet
  facet normal -1 0 0
    outer loop
      vertex -7.45 -1.22982 9.45106
      vertex -7.45 -1.08258 9.4989
      vertex -7.45 -1.22317 9.45322
    endloop
  endfacet
  facet normal -1 0 0
    outer loop
      vertex -7.45 1.07919 9.5
      vertex -7.45 1.22982 9.45106
      vertex -7.45 1.22317 9.45322
    endloop
  endfacet
  facet normal 1 0 0
    outer loop
      vertex -7.45 1.07919 9.5
      vertex -7.45 1.22317 9.45322
      vertex -7.45 1.08258 9.4989
    endloop
  endfacet
  facet normal 1 -0 0
    outer loop
      vertex -7.45 -1.45405 9.22062
      vertex -7.45 -1.49973 9.08003
      vertex -7.45 -1.45106 9.22982
    endloop
  endfacet
  facet normal 1 0 0
    outer loop
      vertex -7.45 -1.5 9.07919
      vertex -7.45 -1.45106 9.22982
      vertex -7.45 -1.49973 9.08003
    endloop
  endfacet
  facet normal 1.24565e-06 -0.309043 -0.951048
    outer loop
      vertex -7.45 1.22317 9.45322
      vertex -6.75 1.22982 9.45106
      vertex -6.75 1.13002 9.48349
    endloop
  endfacet
  facet normal -0 -0.308924 -0.951087
    outer loop
      vertex -6.75 1.22982 9.45106
      vertex -7.45 1.22317 9.45322
      vertex -7.45 1.22982 9.45106
    endloop
  endfacet
  facet normal 5.48235e-06 -0.309014 -0.951057
    outer loop
      vertex -6.75 1.13002 9.48349
      vertex -7.45 1.08258 9.4989
      vertex -7.45 1.22317 9.45322
    endloop
  endfacet
  facet normal 0 -0.308642 -0.951178
    outer loop
      vertex -7.45 1.08258 9.4989
      vertex -6.75 1.07919 9.5
      vertex -7.45 1.07919 9.5
    endloop
  endfacet
  facet normal -1.49422e-06 -0.308921 -0.951088
    outer loop
      vertex -6.75 1.07919 9.5
      vertex -7.45 1.08258 9.4989
      vertex -6.75 1.13002 9.48349
    endloop
  endfacet
  facet normal -0 -0.952029 -0.306009
    outer loop
      vertex -6.75 1.5 9.07919
      vertex -7.45 1.49973 9.08003
      vertex -7.45 1.5 9.07919
    endloop
  endfacet
  facet normal -4.18941e-06 -0.951006 -0.309172
    outer loop
      vertex -7.45 1.49973 9.08003
      vertex -6.75 1.5 9.07919
      vertex -6.75 1.49592 9.09174
    endloop
  endfacet
  facet normal -7.10396e-06 -0.951057 -0.309014
    outer loop
      vertex -6.75 1.49592 9.09174
      vertex -7.45 1.45405 9.22062
      vertex -7.45 1.49973 9.08003
    endloop
  endfacet
  facet normal 0 -0.951034 -0.309086
    outer loop
      vertex -7.45 1.45405 9.22062
      vertex -6.75 1.45106 9.22982
      vertex -7.45 1.45106 9.22982
    endloop
  endfacet
  facet normal -1.4484e-06 -0.951066 -0.308986
    outer loop
      vertex -6.75 1.45106 9.22982
      vertex -7.45 1.45405 9.22062
      vertex -6.75 1.49592 9.09174
    endloop
  endfacet
  facet normal -1.49422e-06 0.308921 -0.951088
    outer loop
      vertex -7.45 -1.08258 9.4989
      vertex -6.75 -1.07919 9.5
      vertex -6.75 -1.13002 9.48349
    endloop
  endfacet
  facet normal 0 0.308642 -0.951178
    outer loop
      vertex -6.75 -1.07919 9.5
      vertex -7.45 -1.08258 9.4989
      vertex -7.45 -1.07919 9.5
    endloop
  endfacet
  facet normal 5.48235e-06 0.309014 -0.951057
    outer loop
      vertex -6.75 -1.13002 9.48349
      vertex -7.45 -1.22317 9.45322
      vertex -7.45 -1.08258 9.4989
    endloop
  endfacet
  facet normal 0 0.308924 -0.951087
    outer loop
      vertex -7.45 -1.22317 9.45322
      vertex -6.75 -1.22982 9.45106
      vertex -7.45 -1.22982 9.45106
    endloop
  endfacet
  facet normal 1.24565e-06 0.309043 -0.951048
    outer loop
      vertex -6.75 -1.22982 9.45106
      vertex -7.45 -1.22317 9.45322
      vertex -6.75 -1.13002 9.48349
    endloop
  endfacet
  facet normal 0 0.951034 -0.309086
    outer loop
      vertex -6.75 -1.45106 9.22982
      vertex -7.45 -1.45405 9.22062
      vertex -7.45 -1.45106 9.22982
    endloop
  endfacet
  facet normal -1.4484e-06 0.951066 -0.308986
    outer loop
      vertex -7.45 -1.45405 9.22062
      vertex -6.75 -1.45106 9.22982
      vertex -6.75 -1.49592 9.09174
    endloop
  endfacet
  facet normal -7.10396e-06 0.951057 -0.309014
    outer loop
      vertex -6.75 -1.49592 9.09174
      vertex -7.45 -1.49973 9.08003
      vertex -7.45 -1.45405 9.22062
    endloop
  endfacet
  facet normal -4.18941e-06 0.951006 -0.309172
    outer loop
      vertex -6.75 -1.5 9.07919
      vertex -7.45 -1.49973 9.08003
      vertex -6.75 -1.49592 9.09174
    endloop
  endfacet
  facet normal 0 0.952029 -0.306009
    outer loop
      vertex -7.45 -1.49973 9.08003
      vertex -6.75 -1.5 9.07919
      vertex -7.45 -1.5 9.07919
    endloop
  endfacet
  facet normal -1 0 0
    outer loop
      vertex -6.75 1.49592 0
      vertex -6.75 1.5 9.07919
      vertex -6.75 1.5 0
    endloop
  endfacet
  facet normal -1 -0 0
    outer loop
      vertex -6.75 1.5 9.07919
      vertex -6.75 1.49592 0
      vertex -6.75 1.49592 9.09174
    endloop
  endfacet
  facet normal -1 0 0
    outer loop
      vertex -6.75 1.13002 9.48349
      vertex -6.75 -1.07919 9.5
      vertex -6.75 1.07919 9.5
    endloop
  endfacet
  facet normal -1 0 -0
    outer loop
      vertex -6.75 -1.07919 9.5
      vertex -6.75 1.13002 9.48349
      vertex -6.75 -1.13002 9.48349
    endloop
  endfacet
  facet normal -1 0 0
    outer loop
      vertex -6.75 -1.5 9.07919
      vertex -6.75 -1.49592 0
      vertex -6.75 -1.5 0
    endloop
  endfacet
  facet normal -1 0 0
    outer loop
      vertex -6.75 -1.49592 0
      vertex -6.75 -1.5 9.07919
      vertex -6.75 -1.49592 9.09174
    endloop
  endfacet
  facet normal 0.66911 0 -0.743163
    outer loop
      vertex -6.75 -1.13002 9.48349
      vertex -6.60057 -1.60449 9.61803
      vertex -6.75 -1.49592 9.48349
    endloop
  endfacet
  facet normal 0.66911 0 -0.743163
    outer loop
      vertex -6.60057 -1.60449 9.61803
      vertex -6.75 -1.13002 9.48349
      vertex -6.60057 1.60449 9.61803
    endloop
  endfacet
  facet normal 0.66911 0 -0.743163
    outer loop
      vertex -6.75 1.13002 9.48349
      vertex -6.60057 1.60449 9.61803
      vertex -6.75 -1.13002 9.48349
    endloop
  endfacet
  facet normal 0.66911 0 -0.743163
    outer loop
      vertex -6.60057 1.60449 9.61803
      vertex -6.75 1.13002 9.48349
      vertex -6.75 1.49592 9.48349
    endloop
  endfacet
  facet normal 0.309091 -0.000209709 -0.951032
    outer loop
      vertex -5.84082 1.94509 9.9563
      vertex -6.23847 1.8151 9.82709
      vertex -6.04303 1.90211 9.89059
    endloop
  endfacet
  facet normal 0.309091 0.000209709 -0.951032
    outer loop
      vertex -6.04303 -1.90211 9.89059
      vertex -6.23847 -1.8151 9.82709
      vertex -5.84082 -1.94509 9.9563
    endloop
  endfacet
  facet normal 0.309029 0 -0.951053
    outer loop
      vertex -6.23847 -1.8151 9.82709
      vertex -5.84082 1.94509 9.9563
      vertex -5.84082 -1.94509 9.9563
    endloop
  endfacet
  facet normal 0.309029 0 -0.951053
    outer loop
      vertex -5.84082 1.94509 9.9563
      vertex -6.23847 -1.8151 9.82709
      vertex -6.23847 1.8151 9.82709
    endloop
  endfacet
  facet normal -0.104514 3.85982e-05 -0.994523
    outer loop
      vertex -5.00918 1.94509 9.9563
      vertex -5.425 1.98904 10
      vertex -5.21594 1.98904 9.97803
    endloop
  endfacet
  facet normal -0.104518 0 -0.994523
    outer loop
      vertex -5.425 -1.98904 10
      vertex -5.00918 1.94509 9.9563
      vertex -5.00918 -1.94509 9.9563
    endloop
  endfacet
  facet normal -0.104518 0 -0.994523
    outer loop
      vertex -5.00918 1.94509 9.9563
      vertex -5.425 -1.98904 10
      vertex -5.425 1.98904 10
    endloop
  endfacet
  facet normal -0.104514 -3.85982e-05 -0.994523
    outer loop
      vertex -5.21594 -1.98904 9.97803
      vertex -5.425 -1.98904 10
      vertex -5.00918 -1.94509 9.9563
    endloop
  endfacet
  facet normal 0.104514 3.85982e-05 -0.994523
    outer loop
      vertex -5.425 1.98904 10
      vertex -5.84082 1.94509 9.9563
      vertex -5.63406 1.98904 9.97803
    endloop
  endfacet
  facet normal 0.104514 -3.85982e-05 -0.994523
    outer loop
      vertex -5.63406 -1.98904 9.97803
      vertex -5.84082 -1.94509 9.9563
      vertex -5.425 -1.98904 10
    endloop
  endfacet
  facet normal 0.104518 0 -0.994523
    outer loop
      vertex -5.84082 -1.94509 9.9563
      vertex -5.425 1.98904 10
      vertex -5.425 -1.98904 10
    endloop
  endfacet
  facet normal 0.104518 0 -0.994523
    outer loop
      vertex -5.425 1.98904 10
      vertex -5.84082 -1.94509 9.9563
      vertex -5.84082 1.94509 9.9563
    endloop
  endfacet
  facet normal -0.309106 -0.000288143 -0.951027
    outer loop
      vertex -4.625 1.8211 9.83147
      vertex -5.00918 1.94509 9.9563
      vertex -4.80697 1.90211 9.89059
    endloop
  endfacet
  facet normal -0.309022 0 -0.951055
    outer loop
      vertex -5.00918 -1.94509 9.9563
      vertex -4.625 1.8211 9.83147
      vertex -4.625 -1.8211 9.83147
    endloop
  endfacet
  facet normal -0.309022 0 -0.951055
    outer loop
      vertex -4.625 1.8211 9.83147
      vertex -5.00918 -1.94509 9.9563
      vertex -5.00918 1.94509 9.9563
    endloop
  endfacet
  facet normal -0.309106 0.000288143 -0.951027
    outer loop
      vertex -4.80697 -1.90211 9.89059
      vertex -5.00918 -1.94509 9.9563
      vertex -4.625 -1.8211 9.83147
    endloop
  endfacet
  facet normal 0.499945 0.000132813 -0.866057
    outer loop
      vertex -6.23847 1.8151 9.82709
      vertex -6.60057 1.60449 9.61803
      vertex -6.425 1.73205 9.7194
    endloop
  endfacet
  facet normal 0.499945 -0.000132813 -0.866057
    outer loop
      vertex -6.425 -1.73205 9.7194
      vertex -6.60057 -1.60449 9.61803
      vertex -6.23847 -1.8151 9.82709
    endloop
  endfacet
  facet normal 0.500003 0 -0.866024
    outer loop
      vertex -6.60057 -1.60449 9.61803
      vertex -6.23847 1.8151 9.82709
      vertex -6.23847 -1.8151 9.82709
    endloop
  endfacet
  facet normal 0.500003 0 -0.866024
    outer loop
      vertex -6.23847 1.8151 9.82709
      vertex -6.60057 -1.60449 9.61803
      vertex -6.60057 1.60449 9.61803
    endloop
  endfacet
  facet normal -0.406702 0.913561 0
    outer loop
      vertex -4.80697 -1.90211 0
      vertex -4.625 -1.8211 9.83147
      vertex -4.625 -1.8211 0
    endloop
  endfacet
  facet normal -0.406702 0.913561 0
    outer loop
      vertex -4.625 -1.8211 9.83147
      vertex -4.80697 -1.90211 0
      vertex -4.80697 -1.90211 9.89059
    endloop
  endfacet
  facet normal 0.406729 -0.913549 0
    outer loop
      vertex -6.04303 1.90211 0
      vertex -6.425 1.73205 9.7194
      vertex -6.425 1.73205 0
    endloop
  endfacet
  facet normal 0.406729 -0.913549 0
    outer loop
      vertex -6.425 1.73205 9.7194
      vertex -6.04303 1.90211 0
      vertex -6.04303 1.90211 9.89059
    endloop
  endfacet
  facet normal 0.40668 -0.913571 0.000130717
    outer loop
      vertex -6.23847 1.8151 9.82709
      vertex -6.425 1.73205 9.7194
      vertex -6.04303 1.90211 9.89059
    endloop
  endfacet
  facet normal 0.587791 -0.809013 0
    outer loop
      vertex -6.425 1.73205 0
      vertex -6.75 1.49592 9.09174
      vertex -6.75 1.49592 0
    endloop
  endfacet
  facet normal 0.587791 -0.809013 0
    outer loop
      vertex -6.75 1.49592 9.09174
      vertex -6.425 1.73205 0
      vertex -6.425 1.73205 9.7194
    endloop
  endfacet
  facet normal 0.587787 -0.809016 3.60351e-06
    outer loop
      vertex -6.60057 1.60449 9.61803
      vertex -6.75 1.49592 9.09174
      vertex -6.425 1.73205 9.7194
    endloop
  endfacet
  facet normal 0.587795 -0.80901 0
    outer loop
      vertex -6.75 1.49592 9.48349
      vertex -6.75 1.49592 9.09174
      vertex -6.60057 1.60449 9.61803
    endloop
  endfacet
  facet normal 0.207926 0.978145 -6.22182e-05
    outer loop
      vertex -5.63406 -1.98904 9.97803
      vertex -6.04303 -1.90211 9.89059
      vertex -5.84082 -1.94509 9.9563
    endloop
  endfacet
  facet normal 0.207913 0.978147 -0
    outer loop
      vertex -5.63406 -1.98904 0
      vertex -6.04303 -1.90211 9.89059
      vertex -5.63406 -1.98904 9.97803
    endloop
  endfacet
  facet normal 0.207913 0.978147 0
    outer loop
      vertex -6.04303 -1.90211 9.89059
      vertex -5.63406 -1.98904 0
      vertex -6.04303 -1.90211 0
    endloop
  endfacet
  facet normal -0.207913 -0.978147 0
    outer loop
      vertex -5.21594 1.98904 0
      vertex -4.80697 1.90211 9.89059
      vertex -5.21594 1.98904 9.97803
    endloop
  endfacet
  facet normal -0.207913 -0.978147 -0
    outer loop
      vertex -4.80697 1.90211 9.89059
      vertex -5.21594 1.98904 0
      vertex -4.80697 1.90211 0
    endloop
  endfacet
  facet normal -0.207926 -0.978145 -6.22182e-05
    outer loop
      vertex -5.00918 1.94509 9.9563
      vertex -5.21594 1.98904 9.97803
      vertex -4.80697 1.90211 9.89059
    endloop
  endfacet
  facet normal 0.207913 -0.978147 0
    outer loop
      vertex -5.63406 1.98904 0
      vertex -6.04303 1.90211 9.89059
      vertex -6.04303 1.90211 0
    endloop
  endfacet
  facet normal 0.207913 -0.978147 0
    outer loop
      vertex -6.04303 1.90211 9.89059
      vertex -5.63406 1.98904 0
      vertex -5.63406 1.98904 9.97803
    endloop
  endfacet
  facet normal 0.207926 -0.978145 -6.22182e-05
    outer loop
      vertex -5.84082 1.94509 9.9563
      vertex -6.04303 1.90211 9.89059
      vertex -5.63406 1.98904 9.97803
    endloop
  endfacet
  facet normal -0.406702 -0.913561 0
    outer loop
      vertex -4.80697 1.90211 0
      vertex -4.625 1.8211 9.83147
      vertex -4.80697 1.90211 9.89059
    endloop
  endfacet
  facet normal -0.406702 -0.913561 -0
    outer loop
      vertex -4.625 1.8211 9.83147
      vertex -4.80697 1.90211 0
      vertex -4.625 1.8211 0
    endloop
  endfacet
  facet normal 0.40668 0.913571 0.000130717
    outer loop
      vertex -6.04303 -1.90211 9.89059
      vertex -6.425 -1.73205 9.7194
      vertex -6.23847 -1.8151 9.82709
    endloop
  endfacet
  facet normal 0.406729 0.913549 -0
    outer loop
      vertex -6.04303 -1.90211 0
      vertex -6.425 -1.73205 9.7194
      vertex -6.04303 -1.90211 9.89059
    endloop
  endfacet
  facet normal 0.406729 0.913549 0
    outer loop
      vertex -6.425 -1.73205 9.7194
      vertex -6.04303 -1.90211 0
      vertex -6.425 -1.73205 0
    endloop
  endfacet
  facet normal -0.207926 0.978145 -6.22182e-05
    outer loop
      vertex -4.80697 -1.90211 9.89059
      vertex -5.21594 -1.98904 9.97803
      vertex -5.00918 -1.94509 9.9563
    endloop
  endfacet
  facet normal -0.207913 0.978147 0
    outer loop
      vertex -5.21594 -1.98904 0
      vertex -4.80697 -1.90211 9.89059
      vertex -4.80697 -1.90211 0
    endloop
  endfacet
  facet normal -0.207913 0.978147 0
    outer loop
      vertex -4.80697 -1.90211 9.89059
      vertex -5.21594 -1.98904 0
      vertex -5.21594 -1.98904 9.97803
    endloop
  endfacet
  facet normal 0 1 0
    outer loop
      vertex -5.21594 -1.98904 9.97803
      vertex -5.63406 -1.98904 9.97803
      vertex -5.425 -1.98904 10
    endloop
  endfacet
  facet normal 0 1 -0
    outer loop
      vertex -5.21594 -1.98904 0
      vertex -5.63406 -1.98904 9.97803
      vertex -5.21594 -1.98904 9.97803
    endloop
  endfacet
  facet normal 0 1 0
    outer loop
      vertex -5.63406 -1.98904 9.97803
      vertex -5.21594 -1.98904 0
      vertex -5.63406 -1.98904 0
    endloop
  endfacet
  facet normal 0.587787 0.809016 3.60351e-06
    outer loop
      vertex -6.425 -1.73205 9.7194
      vertex -6.75 -1.49592 9.09174
      vertex -6.60057 -1.60449 9.61803
    endloop
  endfacet
  facet normal 0.587791 0.809013 -0
    outer loop
      vertex -6.425 -1.73205 0
      vertex -6.75 -1.49592 9.09174
      vertex -6.425 -1.73205 9.7194
    endloop
  endfacet
  facet normal 0.587791 0.809013 0
    outer loop
      vertex -6.75 -1.49592 9.09174
      vertex -6.425 -1.73205 0
      vertex -6.75 -1.49592 0
    endloop
  endfacet
  facet normal 0.587795 0.80901 0
    outer loop
      vertex -6.60057 -1.60449 9.61803
      vertex -6.75 -1.49592 9.09174
      vertex -6.75 -1.49592 9.48349
    endloop
  endfacet
  facet normal 0 -1 0
    outer loop
      vertex -5.63406 1.98904 9.97803
      vertex -5.21594 1.98904 9.97803
      vertex -5.425 1.98904 10
    endloop
  endfacet
  facet normal 0 -1 0
    outer loop
      vertex -5.63406 1.98904 0
      vertex -5.21594 1.98904 9.97803
      vertex -5.63406 1.98904 9.97803
    endloop
  endfacet
  facet normal 0 -1 -0
    outer loop
      vertex -5.21594 1.98904 9.97803
      vertex -5.63406 1.98904 0
      vertex -5.21594 1.98904 0
    endloop
  endfacet
  facet normal -1 0 0
    outer loop
      vertex -4.625 -1.8211 0
      vertex -4.625 1.8211 9.83147
      vertex -4.625 1.8211 0
    endloop
  endfacet
  facet normal -1 -0 0
    outer loop
      vertex -4.625 1.8211 9.83147
      vertex -4.625 -1.8211 0
      vertex -4.625 -1.8211 9.83147
    endloop
  endfacet
  facet normal 1 0 0
    outer loop
      vertex -6.75 1.49592 9.48349
      vertex -6.75 1.45106 9.22982
      vertex -6.75 1.49592 9.09174
    endloop
  endfacet
  facet normal 1 0 0
    outer loop
      vertex -6.75 1.49592 9.48349
      vertex -6.75 1.35796 9.35796
      vertex -6.75 1.45106 9.22982
    endloop
  endfacet
  facet normal 1 0 0
    outer loop
      vertex -6.75 1.49592 9.48349
      vertex -6.75 1.22982 9.45106
      vertex -6.75 1.35796 9.35796
    endloop
  endfacet
  facet normal 1 0 -0
    outer loop
      vertex -6.75 1.22982 9.45106
      vertex -6.75 1.49592 9.48349
      vertex -6.75 1.13002 9.48349
    endloop
  endfacet
  facet normal 1 -0 0
    outer loop
      vertex -6.75 -1.49592 9.48349
      vertex -6.75 -1.22982 9.45106
      vertex -6.75 -1.13002 9.48349
    endloop
  endfacet
  facet normal 1 0 0
    outer loop
      vertex -6.75 -1.49592 9.48349
      vertex -6.75 -1.35796 9.35796
      vertex -6.75 -1.22982 9.45106
    endloop
  endfacet
  facet normal 1 0 0
    outer loop
      vertex -6.75 -1.49592 9.48349
      vertex -6.75 -1.45106 9.22982
      vertex -6.75 -1.35796 9.35796
    endloop
  endfacet
  facet normal 1 0 0
    outer loop
      vertex -6.75 -1.45106 9.22982
      vertex -6.75 -1.49592 9.48349
      vertex -6.75 -1.49592 9.09174
    endloop
  endfacet
  facet normal 1 0 0
    outer loop
      vertex 7.5 7.5 15
      vertex 7.5 -4 13.5
      vertex 7.5 7.5 13.5
    endloop
  endfacet
  facet normal 1 -0 0
    outer loop
      vertex 7.5 -7.5 15
      vertex 7.5 -4 13.5
      vertex 7.5 7.5 15
    endloop
  endfacet
  facet normal 1 0 0
    outer loop
      vertex 7.5 -7.5 0
      vertex 7.5 -4 13.5
      vertex 7.5 -7.5 15
    endloop
  endfacet
  facet normal 1 0 0
    outer loop
      vertex 7.5 -4 13.5
      vertex 7.5 -7.5 0
      vertex 7.5 -4 0
    endloop
  endfacet
  facet normal 0 0 1
    outer loop
      vertex 7.5 7.5 15
      vertex 1.5 1.07919 15
      vertex 7.5 -7.5 15
    endloop
  endfacet
  facet normal 0 0 1
    outer loop
      vertex 7.5 7.5 15
      vertex 1.45106 1.22982 15
      vertex 1.5 1.07919 15
    endloop
  endfacet
  facet normal 0 0 1
    outer loop
      vertex 7.5 7.5 15
      vertex 1.35796 1.35796 15
      vertex 1.45106 1.22982 15
    endloop
  endfacet
  facet normal 0 0 1
    outer loop
      vertex 7.5 7.5 15
      vertex 1.22982 1.45106 15
      vertex 1.35796 1.35796 15
    endloop
  endfacet
  facet normal 0 0 1
    outer loop
      vertex 7.5 7.5 15
      vertex 1.07919 1.5 15
      vertex 1.22982 1.45106 15
    endloop
  endfacet
  facet normal 0 0 1
    outer loop
      vertex 7.5 7.5 15
      vertex -1.07919 1.5 15
      vertex 1.07919 1.5 15
    endloop
  endfacet
  facet normal -0 0 1
    outer loop
      vertex -7.5 7.5 15
      vertex -1.07919 1.5 15
      vertex 7.5 7.5 15
    endloop
  endfacet
  facet normal 0 0 1
    outer loop
      vertex -1.5 1.07919 15
      vertex -7.5 7.5 15
      vertex -1.5 -1.07919 15
    endloop
  endfacet
  facet normal 0 0 1
    outer loop
      vertex -1.45106 1.22982 15
      vertex -7.5 7.5 15
      vertex -1.5 1.07919 15
    endloop
  endfacet
  facet normal 0 0 1
    outer loop
      vertex -1.35796 1.35796 15
      vertex -7.5 7.5 15
      vertex -1.45106 1.22982 15
    endloop
  endfacet
  facet normal 0 0 1
    outer loop
      vertex -1.22982 1.45106 15
      vertex -7.5 7.5 15
      vertex -1.35796 1.35796 15
    endloop
  endfacet
  facet normal 0 0 1
    outer loop
      vertex -1.07919 1.5 15
      vertex -7.5 7.5 15
      vertex -1.22982 1.45106 15
    endloop
  endfacet
  facet normal -0 0 1
    outer loop
      vertex 1.5 -1.07919 15
      vertex 7.5 -7.5 15
      vertex 1.5 1.07919 15
    endloop
  endfacet
  facet normal -0 0 1
    outer loop
      vertex 1.45106 -1.22982 15
      vertex 7.5 -7.5 15
      vertex 1.5 -1.07919 15
    endloop
  endfacet
  facet normal -0 0 1
    outer loop
      vertex 1.35796 -1.35796 15
      vertex 7.5 -7.5 15
      vertex 1.45106 -1.22982 15
    endloop
  endfacet
  facet normal -0 0 1
    outer loop
      vertex 1.22982 -1.45106 15
      vertex 7.5 -7.5 15
      vertex 1.35796 -1.35796 15
    endloop
  endfacet
  facet normal -0 0 1
    outer loop
      vertex 1.07919 -1.5 15
      vertex 7.5 -7.5 15
      vertex 1.22982 -1.45106 15
    endloop
  endfacet
  facet normal -0 0 1
    outer loop
      vertex -1.07919 -1.5 15
      vertex 7.5 -7.5 15
      vertex 1.07919 -1.5 15
    endloop
  endfacet
  facet normal 0 0 1
    outer loop
      vertex -7.5 -7.5 15
      vertex -1.07919 -1.5 15
      vertex -1.22982 -1.45106 15
    endloop
  endfacet
  facet normal 0 0 1
    outer loop
      vertex -7.5 -7.5 15
      vertex -1.5 -1.07919 15
      vertex -7.5 7.5 15
    endloop
  endfacet
  facet normal 0 0 1
    outer loop
      vertex -1.07919 -1.5 15
      vertex -7.5 -7.5 15
      vertex 7.5 -7.5 15
    endloop
  endfacet
  facet normal 0 0 1
    outer loop
      vertex -1.35796 -1.35796 15
      vertex -7.5 -7.5 15
      vertex -1.22982 -1.45106 15
    endloop
  endfacet
  facet normal 0 0 1
    outer loop
      vertex -1.45106 -1.22982 15
      vertex -7.5 -7.5 15
      vertex -1.35796 -1.35796 15
    endloop
  endfacet
  facet normal 0 0 1
    outer loop
      vertex -1.5 -1.07919 15
      vertex -7.5 -7.5 15
      vertex -1.45106 -1.22982 15
    endloop
  endfacet
  facet normal 0 0 -1
    outer loop
      vertex 7.5 -7.5 0
      vertex 1.98904 -5.63406 0
      vertex 7.5 -4 0
    endloop
  endfacet
  facet normal 0 0 -1
    outer loop
      vertex 7.5 -7.5 0
      vertex 1.90211 -6.04303 0
      vertex 1.98904 -5.63406 0
    endloop
  endfacet
  facet normal 0 0 -1
    outer loop
      vertex 7.5 -7.5 0
      vertex 1.73205 -6.425 0
      vertex 1.90211 -6.04303 0
    endloop
  endfacet
  facet normal 0 0 -1
    outer loop
      vertex 1.5 -7.5 0
      vertex 1.73205 -6.425 0
      vertex 7.5 -7.5 0
    endloop
  endfacet
  facet normal 0 0 -1
    outer loop
      vertex 1.5 -6.75 0
      vertex 1.73205 -6.425 0
      vertex 1.5 -7.5 0
    endloop
  endfacet
  facet normal 0 0 -1
    outer loop
      vertex 1.73205 -6.425 0
      vertex 1.5 -6.75 0
      vertex 1.49592 -6.75 0
    endloop
  endfacet
  facet normal 0 0 -1
    outer loop
      vertex 1.98904 -5.21594 0
      vertex 7.5 -4 0
      vertex 1.98904 -5.63406 0
    endloop
  endfacet
  facet normal 0 0 -1
    outer loop
      vertex 1.90211 -4.80697 0
      vertex 7.5 -4 0
      vertex 1.98904 -5.21594 0
    endloop
  endfacet
  facet normal 0 0 -1
    outer loop
      vertex 1.8211 -4.625 0
      vertex 7.5 -4 0
      vertex 1.90211 -4.80697 0
    endloop
  endfacet
  facet normal 0 0 -1
    outer loop
      vertex -4 -4 0
      vertex 1.8211 -4.625 0
      vertex -1.8211 -4.625 0
    endloop
  endfacet
  facet normal 0 0 -1
    outer loop
      vertex 1.8211 -4.625 0
      vertex -4 -4 0
      vertex 7.5 -4 0
    endloop
  endfacet
  facet normal 0 0 -1
    outer loop
      vertex -1.90211 -4.80697 0
      vertex -4 -4 0
      vertex -1.8211 -4.625 0
    endloop
  endfacet
  facet normal 0 0 -1
    outer loop
      vertex -4 -4 0
      vertex -1.90211 -4.80697 0
      vertex -1.98904 -5.21594 0
    endloop
  endfacet
  facet normal 0 0 -1
    outer loop
      vertex -1.5 -7.5 0
      vertex -1.73205 -6.425 0
      vertex -1.5 -6.75 0
    endloop
  endfacet
  facet normal 0 0 -1
    outer loop
      vertex -7.5 -7.5 0
      vertex -1.73205 -6.425 0
      vertex -1.5 -7.5 0
    endloop
  endfacet
  facet normal 0 0 -1
    outer loop
      vertex -1.98904 -5.63406 0
      vertex -4 -4 0
      vertex -1.98904 -5.21594 0
    endloop
  endfacet
  facet normal 0 0 -1
    outer loop
      vertex -1.90211 -6.04303 0
      vertex -4 -4 0
      vertex -1.98904 -5.63406 0
    endloop
  endfacet
  facet normal -0 0 -1
    outer loop
      vertex -1.73205 -6.425 0
      vertex -7.5 -7.5 0
      vertex -1.90211 -6.04303 0
    endloop
  endfacet
  facet normal 0 0 -1
    outer loop
      vertex -4.625 1.8211 0
      vertex -4 -4 0
      vertex -4.625 -1.8211 0
    endloop
  endfacet
  facet normal 0 0 -1
    outer loop
      vertex -4 -4 0
      vertex -4.80697 -1.90211 0
      vertex -4.625 -1.8211 0
    endloop
  endfacet
  facet normal 0 0 -1
    outer loop
      vertex -4 -4 0
      vertex -5.21594 -1.98904 0
      vertex -4.80697 -1.90211 0
    endloop
  endfacet
  facet normal 0 0 -1
    outer loop
      vertex -4 -4 0
      vertex -5.63406 -1.98904 0
      vertex -5.21594 -1.98904 0
    endloop
  endfacet
  facet normal -0 0 -1
    outer loop
      vertex -1.90211 -6.04303 0
      vertex -7.5 -7.5 0
      vertex -4 -4 0
    endloop
  endfacet
  facet normal 0 -0 -1
    outer loop
      vertex -6.04303 -1.90211 0
      vertex -4 -4 0
      vertex -7.5 -7.5 0
    endloop
  endfacet
  facet normal 0 0 -1
    outer loop
      vertex -4 -4 0
      vertex -6.04303 -1.90211 0
      vertex -5.63406 -1.98904 0
    endloop
  endfacet
  facet normal -0 0 -1
    outer loop
      vertex -6.04303 -1.90211 0
      vertex -7.5 -7.5 0
      vertex -6.425 -1.73205 0
    endloop
  endfacet
  facet normal 0 0 -1
    outer loop
      vertex -7.5 -1.5 0
      vertex -6.425 -1.73205 0
      vertex -7.5 -7.5 0
    endloop
  endfacet
  facet normal 0 0 -1
    outer loop
      vertex -6.425 -1.73205 0
      vertex -7.5 -1.5 0
      vertex -6.75 -1.5 0
    endloop
  endfacet
  facet normal 0 0 -1
    outer loop
      vertex -1.49592 -6.75 0
      vertex -1.5 -6.75 0
      vertex -1.73205 -6.425 0
    endloop
  endfacet
  facet normal 0 0 -1
    outer loop
      vertex -4 -4 0
      vertex -4.625 1.8211 0
      vertex -4 7.5 0
    endloop
  endfacet
  facet normal 0 0 -1
    outer loop
      vertex -4.80697 1.90211 0
      vertex -4 7.5 0
      vertex -4.625 1.8211 0
    endloop
  endfacet
  facet normal 0 0 -1
    outer loop
      vertex -5.21594 1.98904 0
      vertex -4 7.5 0
      vertex -4.80697 1.90211 0
    endloop
  endfacet
  facet normal 0 0 -1
    outer loop
      vertex -5.63406 1.98904 0
      vertex -4 7.5 0
      vertex -5.21594 1.98904 0
    endloop
  endfacet
  facet normal 0 0 -1
    outer loop
      vertex -7.5 7.5 0
      vertex -5.63406 1.98904 0
      vertex -6.04303 1.90211 0
    endloop
  endfacet
  facet normal 0 0 -1
    outer loop
      vertex -7.5 7.5 0
      vertex -6.04303 1.90211 0
      vertex -6.425 1.73205 0
    endloop
  endfacet
  facet normal 0 0 -1
    outer loop
      vertex -6.75 1.5 0
      vertex -6.425 1.73205 0
      vertex -6.75 1.49592 0
    endloop
  endfacet
  facet normal 0 0 -1
    outer loop
      vertex -7.5 1.5 0
      vertex -6.425 1.73205 0
      vertex -6.75 1.5 0
    endloop
  endfacet
  facet normal -0 0 -1
    outer loop
      vertex -6.425 1.73205 0
      vertex -7.5 1.5 0
      vertex -7.5 7.5 0
    endloop
  endfacet
  facet normal 0 0 -1
    outer loop
      vertex -5.63406 1.98904 0
      vertex -7.5 7.5 0
      vertex -4 7.5 0
    endloop
  endfacet
  facet normal 0 0 -1
    outer loop
      vertex -6.425 -1.73205 0
      vertex -6.75 -1.5 0
      vertex -6.75 -1.49592 0
    endloop
  endfacet
  facet normal -1 0 0
    outer loop
      vertex -7.5 -1.5 0
      vertex -7.5 -7.5 0
      vertex -7.5 -1.5 9.07919
    endloop
  endfacet
  facet normal -1 0 0
    outer loop
      vertex -7.5 1.5 9.07919
      vertex -7.5 7.5 0
      vertex -7.5 1.5 0
    endloop
  endfacet
  facet normal -1 0 0
    outer loop
      vertex -7.5 7.5 0
      vertex -7.5 1.5 9.07919
      vertex -7.5 7.5 15
    endloop
  endfacet
  facet normal -1 0 0
    outer loop
      vertex -7.5 1.45106 9.22982
      vertex -7.5 7.5 15
      vertex -7.5 1.5 9.07919
    endloop
  endfacet
  facet normal -1 0 0
    outer loop
      vertex -7.5 1.35796 9.35796
      vertex -7.5 7.5 15
      vertex -7.5 1.45106 9.22982
    endloop
  endfacet
  facet normal -1 0 0
    outer loop
      vertex -7.5 1.22982 9.45106
      vertex -7.5 7.5 15
      vertex -7.5 1.35796 9.35796
    endloop
  endfacet
  facet normal -1 0 0
    outer loop
      vertex -7.5 1.07919 9.5
      vertex -7.5 7.5 15
      vertex -7.5 1.22982 9.45106
    endloop
  endfacet
  facet normal -1 0 0
    outer loop
      vertex -7.5 -1.07919 9.5
      vertex -7.5 7.5 15
      vertex -7.5 1.07919 9.5
    endloop
  endfacet
  facet normal -1 0 0
    outer loop
      vertex -7.5 -7.5 15
      vertex -7.5 -1.07919 9.5
      vertex -7.5 -1.22982 9.45106
    endloop
  endfacet
  facet normal -1 0 0
    outer loop
      vertex -7.5 -7.5 15
      vertex -7.5 -1.5 9.07919
      vertex -7.5 -7.5 0
    endloop
  endfacet
  facet normal -1 0 0
    outer loop
      vertex -7.5 -1.07919 9.5
      vertex -7.5 -7.5 15
      vertex -7.5 7.5 15
    endloop
  endfacet
  facet normal -1 0 0
    outer loop
      vertex -7.5 -1.35796 9.35796
      vertex -7.5 -7.5 15
      vertex -7.5 -1.22982 9.45106
    endloop
  endfacet
  facet normal -1 0 0
    outer loop
      vertex -7.5 -1.45106 9.22982
      vertex -7.5 -7.5 15
      vertex -7.5 -1.35796 9.35796
    endloop
  endfacet
  facet normal -1 0 0
    outer loop
      vertex -7.5 -1.5 9.07919
      vertex -7.5 -7.5 15
      vertex -7.5 -1.45106 9.22982
    endloop
  endfacet
  facet normal 0 1 0
    outer loop
      vertex -4 7.5 13.5
      vertex 7.5 7.5 15
      vertex 7.5 7.5 13.5
    endloop
  endfacet
  facet normal 0 1 0
    outer loop
      vertex 7.5 7.5 15
      vertex -4 7.5 13.5
      vertex -7.5 7.5 15
    endloop
  endfacet
  facet normal 0 1 0
    outer loop
      vertex -7.5 7.5 0
      vertex -4 7.5 13.5
      vertex -4 7.5 0
    endloop
  endfacet
  facet normal 0 1 0
    outer loop
      vertex -4 7.5 13.5
      vertex -7.5 7.5 0
      vertex -7.5 7.5 15
    endloop
  endfacet
  facet normal 0 -1 0
    outer loop
      vertex -7.5 -7.5 15
      vertex -1.07919 -7.5 9.5
      vertex 7.5 -7.5 15
    endloop
  endfacet
  facet normal 0 -1 0
    outer loop
      vertex -7.5 -7.5 15
      vertex -1.22982 -7.5 9.45106
      vertex -1.07919 -7.5 9.5
    endloop
  endfacet
  facet normal 0 -1 0
    outer loop
      vertex -7.5 -7.5 15
      vertex -1.35796 -7.5 9.35796
      vertex -1.22982 -7.5 9.45106
    endloop
  endfacet
  facet normal 0 -1 0
    outer loop
      vertex -7.5 -7.5 15
      vertex -1.45106 -7.5 9.22982
      vertex -1.35796 -7.5 9.35796
    endloop
  endfacet
  facet normal 0 -1 0
    outer loop
      vertex -7.5 -7.5 15
      vertex -1.5 -7.5 9.07919
      vertex -1.45106 -7.5 9.22982
    endloop
  endfacet
  facet normal 0 -1 0
    outer loop
      vertex -7.5 -7.5 0
      vertex -1.5 -7.5 9.07919
      vertex -7.5 -7.5 15
    endloop
  endfacet
  facet normal 0 -1 -0
    outer loop
      vertex -1.5 -7.5 9.07919
      vertex -7.5 -7.5 0
      vertex -1.5 -7.5 0
    endloop
  endfacet
  facet normal 0 -1 0
    outer loop
      vertex 1.07919 -7.5 9.5
      vertex 7.5 -7.5 15
      vertex -1.07919 -7.5 9.5
    endloop
  endfacet
  facet normal 0 -1 0
    outer loop
      vertex 1.22982 -7.5 9.45106
      vertex 7.5 -7.5 15
      vertex 1.07919 -7.5 9.5
    endloop
  endfacet
  facet normal 0 -1 0
    outer loop
      vertex 1.35796 -7.5 9.35796
      vertex 7.5 -7.5 15
      vertex 1.22982 -7.5 9.45106
    endloop
  endfacet
  facet normal 0 -1 0
    outer loop
      vertex 1.45106 -7.5 9.22982
      vertex 7.5 -7.5 15
      vertex 1.35796 -7.5 9.35796
    endloop
  endfacet
  facet normal 0 -1 0
    outer loop
      vertex 1.5 -7.5 9.07919
      vertex 7.5 -7.5 15
      vertex 1.45106 -7.5 9.22982
    endloop
  endfacet
  facet normal 0 -1 0
    outer loop
      vertex 7.5 -7.5 0
      vertex 1.5 -7.5 9.07919
      vertex 1.5 -7.5 0
    endloop
  endfacet
  facet normal 0 -1 0
    outer loop
      vertex 1.5 -7.5 9.07919
      vertex 7.5 -7.5 0
      vertex 7.5 -7.5 15
    endloop
  endfacet
  facet normal 0 0 -1
    outer loop
      vertex -4 -4 13.5
      vertex 7.5 7.5 13.5
      vertex 7.5 -4 13.5
    endloop
  endfacet
  facet normal -0 0 -1
    outer loop
      vertex 7.5 7.5 13.5
      vertex -4 -4 13.5
      vertex -4 7.5 13.5
    endloop
  endfacet
  facet normal 1 -0 0
    outer loop
      vertex -4 -4 13.5
      vertex -4 7.5 0
      vertex -4 7.5 13.5
    endloop
  endfacet
  facet normal 1 0 0
    outer loop
      vertex -4 7.5 0
      vertex -4 -4 13.5
      vertex -4 -4 0
    endloop
  endfacet
  facet normal 0 1 -0
    outer loop
      vertex 7.5 -4 0
      vertex -4 -4 13.5
      vertex 7.5 -4 13.5
    endloop
  endfacet
  facet normal 0 1 0
    outer loop
      vertex -4 -4 13.5
      vertex 7.5 -4 0
      vertex -4 -4 0
    endloop
  endfacet
  facet normal 0.809014 0.587789 0
    outer loop
      vertex 1.45106 1.22982 15.75
      vertex 1.35796 1.35796 15
      vertex 1.35796 1.35796 15.75
    endloop
  endfacet
  facet normal 0.809014 0.587789 0
    outer loop
      vertex 1.35796 1.35796 15
      vertex 1.45106 1.22982 15.75
      vertex 1.45106 1.22982 15
    endloop
  endfacet
  facet normal 0.951048 0.309043 0
    outer loop
      vertex 1.45106 1.22982 15.75
      vertex 1.48349 1.13002 15.75
      vertex 1.45106 1.22982 15
    endloop
  endfacet
  facet normal 0.951088 0.308921 0
    outer loop
      vertex 1.5 1.07919 15.75
      vertex 1.5 1.07919 15
      vertex 1.48349 1.13002 15.75
    endloop
  endfacet
  facet normal 0.951061 0.309002 -6.05208e-06
    outer loop
      vertex 1.48349 1.13002 15.75
      vertex 1.5 1.07919 15
      vertex 1.45106 1.22982 15
    endloop
  endfacet
  facet normal 0.587789 0.809014 -0
    outer loop
      vertex 1.35796 1.35796 15
      vertex 1.22982 1.45106 15.75
      vertex 1.35796 1.35796 15.75
    endloop
  endfacet
  facet normal 0.587789 0.809014 0
    outer loop
      vertex 1.22982 1.45106 15.75
      vertex 1.35796 1.35796 15
      vertex 1.22982 1.45106 15
    endloop
  endfacet
  facet normal 0.308986 0.951066 0
    outer loop
      vertex 1.22982 1.45106 15.75
      vertex 1.22982 1.45106 15
      vertex 1.09174 1.49592 15.75
    endloop
  endfacet
  facet normal 0.309002 0.951061 3.14348e-06
    outer loop
      vertex 1.09174 1.49592 15.75
      vertex 1.22982 1.45106 15
      vertex 1.07919 1.5 15
    endloop
  endfacet
  facet normal 0.309172 0.951006 0
    outer loop
      vertex 1.07919 1.5 15.75
      vertex 1.09174 1.49592 15.75
      vertex 1.07919 1.5 15
    endloop
  endfacet
  facet normal 1 -0 0
    outer loop
      vertex 1.5 -1.07919 15.75
      vertex 1.5 1.07919 15
      vertex 1.5 1.07919 15.75
    endloop
  endfacet
  facet normal 1 0 0
    outer loop
      vertex 1.5 1.07919 15
      vertex 1.5 -1.07919 15.75
      vertex 1.5 -1.07919 15
    endloop
  endfacet
  facet normal 0 1 -0
    outer loop
      vertex 1.07919 1.5 15
      vertex -1.07919 1.5 15.75
      vertex 1.07919 1.5 15.75
    endloop
  endfacet
  facet normal 0 1 0
    outer loop
      vertex -1.07919 1.5 15.75
      vertex 1.07919 1.5 15
      vertex -1.07919 1.5 15
    endloop
  endfacet
  facet normal -0.587789 0.809014 0
    outer loop
      vertex -1.22982 1.45106 15
      vertex -1.35796 1.35796 15.75
      vertex -1.22982 1.45106 15.75
    endloop
  endfacet
  facet normal -0.587789 0.809014 0
    outer loop
      vertex -1.35796 1.35796 15.75
      vertex -1.22982 1.45106 15
      vertex -1.35796 1.35796 15
    endloop
  endfacet
  facet normal -1 0 0
    outer loop
      vertex -1.5 -1.07919 15
      vertex -1.5 1.07919 15.75
      vertex -1.5 1.07919 15
    endloop
  endfacet
  facet normal -1 -0 0
    outer loop
      vertex -1.5 1.07919 15.75
      vertex -1.5 -1.07919 15
      vertex -1.5 -1.07919 15.75
    endloop
  endfacet
  facet normal -0.951048 0.309043 0
    outer loop
      vertex -1.45106 1.22982 15.75
      vertex -1.45106 1.22982 15
      vertex -1.48349 1.13002 15.75
    endloop
  endfacet
  facet normal -0.951061 0.309002 -6.05208e-06
    outer loop
      vertex -1.48349 1.13002 15.75
      vertex -1.45106 1.22982 15
      vertex -1.5 1.07919 15
    endloop
  endfacet
  facet normal -0.951088 0.308921 0
    outer loop
      vertex -1.5 1.07919 15.75
      vertex -1.48349 1.13002 15.75
      vertex -1.5 1.07919 15
    endloop
  endfacet
  facet normal -0.809014 0.587789 0
    outer loop
      vertex -1.45106 1.22982 15
      vertex -1.35796 1.35796 15.75
      vertex -1.35796 1.35796 15
    endloop
  endfacet
  facet normal -0.809014 0.587789 0
    outer loop
      vertex -1.35796 1.35796 15.75
      vertex -1.45106 1.22982 15
      vertex -1.45106 1.22982 15.75
    endloop
  endfacet
  facet normal -0.309172 0.951006 0
    outer loop
      vertex -1.07919 1.5 15.75
      vertex -1.07919 1.5 15
      vertex -1.09174 1.49592 15.75
    endloop
  endfacet
  facet normal -0.309002 0.951061 3.14348e-06
    outer loop
      vertex -1.09174 1.49592 15.75
      vertex -1.07919 1.5 15
      vertex -1.22982 1.45106 15
    endloop
  endfacet
  facet normal -0.308986 0.951066 0
    outer loop
      vertex -1.22982 1.45106 15.75
      vertex -1.09174 1.49592 15.75
      vertex -1.22982 1.45106 15
    endloop
  endfacet
  facet normal -0.308986 -0.951066 0
    outer loop
      vertex -1.09174 -1.49592 15.75
      vertex -1.22982 -1.45106 15.75
      vertex -1.22982 -1.45106 15
    endloop
  endfacet
  facet normal -0.309002 -0.951061 3.14348e-06
    outer loop
      vertex -1.07919 -1.5 15
      vertex -1.09174 -1.49592 15.75
      vertex -1.22982 -1.45106 15
    endloop
  endfacet
  facet normal -0.309172 -0.951006 0
    outer loop
      vertex -1.07919 -1.5 15
      vertex -1.07919 -1.5 15.75
      vertex -1.09174 -1.49592 15.75
    endloop
  endfacet
  facet normal -0.951088 -0.308921 0
    outer loop
      vertex -1.48349 -1.13002 15.75
      vertex -1.5 -1.07919 15.75
      vertex -1.5 -1.07919 15
    endloop
  endfacet
  facet normal -0.951061 -0.309002 -6.05208e-06
    outer loop
      vertex -1.45106 -1.22982 15
      vertex -1.48349 -1.13002 15.75
      vertex -1.5 -1.07919 15
    endloop
  endfacet
  facet normal -0.951048 -0.309043 0
    outer loop
      vertex -1.45106 -1.22982 15
      vertex -1.45106 -1.22982 15.75
      vertex -1.48349 -1.13002 15.75
    endloop
  endfacet
  facet normal -0.809014 -0.587789 0
    outer loop
      vertex -1.35796 -1.35796 15
      vertex -1.45106 -1.22982 15.75
      vertex -1.45106 -1.22982 15
    endloop
  endfacet
  facet normal -0.809014 -0.587789 0
    outer loop
      vertex -1.45106 -1.22982 15.75
      vertex -1.35796 -1.35796 15
      vertex -1.35796 -1.35796 15.75
    endloop
  endfacet
  facet normal 0 -1 0
    outer loop
      vertex -1.07919 -1.5 15
      vertex 1.07919 -1.5 15.75
      vertex -1.07919 -1.5 15.75
    endloop
  endfacet
  facet normal 0 -1 -0
    outer loop
      vertex 1.07919 -1.5 15.75
      vertex -1.07919 -1.5 15
      vertex 1.07919 -1.5 15
    endloop
  endfacet
  facet normal -0.587789 -0.809014 0
    outer loop
      vertex -1.35796 -1.35796 15
      vertex -1.22982 -1.45106 15.75
      vertex -1.35796 -1.35796 15.75
    endloop
  endfacet
  facet normal -0.587789 -0.809014 -0
    outer loop
      vertex -1.22982 -1.45106 15.75
      vertex -1.35796 -1.35796 15
      vertex -1.22982 -1.45106 15
    endloop
  endfacet
  facet normal 0.309172 -0.951006 0
    outer loop
      vertex 1.09174 -1.49592 15.75
      vertex 1.07919 -1.5 15.75
      vertex 1.07919 -1.5 15
    endloop
  endfacet
  facet normal 0.309002 -0.951061 3.14348e-06
    outer loop
      vertex 1.22982 -1.45106 15
      vertex 1.09174 -1.49592 15.75
      vertex 1.07919 -1.5 15
    endloop
  endfacet
  facet normal 0.308986 -0.951066 0
    outer loop
      vertex 1.22982 -1.45106 15
      vertex 1.22982 -1.45106 15.75
      vertex 1.09174 -1.49592 15.75
    endloop
  endfacet
  facet normal 0.951088 -0.308921 0
    outer loop
      vertex 1.5 -1.07919 15
      vertex 1.5 -1.07919 15.75
      vertex 1.48349 -1.13002 15.75
    endloop
  endfacet
  facet normal 0.951048 -0.309043 0
    outer loop
      vertex 1.48349 -1.13002 15.75
      vertex 1.45106 -1.22982 15.75
      vertex 1.45106 -1.22982 15
    endloop
  endfacet
  facet normal 0.951061 -0.309002 -6.05208e-06
    outer loop
      vertex 1.5 -1.07919 15
      vertex 1.48349 -1.13002 15.75
      vertex 1.45106 -1.22982 15
    endloop
  endfacet
  facet normal 0.587789 -0.809014 0
    outer loop
      vertex 1.22982 -1.45106 15
      vertex 1.35796 -1.35796 15.75
      vertex 1.22982 -1.45106 15.75
    endloop
  endfacet
  facet normal 0.587789 -0.809014 0
    outer loop
      vertex 1.35796 -1.35796 15.75
      vertex 1.22982 -1.45106 15
      vertex 1.35796 -1.35796 15
    endloop
  endfacet
  facet normal 0.809014 -0.587789 0
    outer loop
      vertex 1.35796 -1.35796 15.75
      vertex 1.45106 -1.22982 15
      vertex 1.45106 -1.22982 15.75
    endloop
  endfacet
  facet normal 0.809014 -0.587789 0
    outer loop
      vertex 1.45106 -1.22982 15
      vertex 1.35796 -1.35796 15.75
      vertex 1.35796 -1.35796 15
    endloop
  endfacet
  facet normal -0 0 1
    outer loop
      vertex -1.07919 1.5 15.75
      vertex 1.09174 1.49592 15.75
      vertex 1.07919 1.5 15.75
    endloop
  endfacet
  facet normal 0 0 1
    outer loop
      vertex 1.09174 1.49592 15.75
      vertex -1.07919 1.5 15.75
      vertex -1.09174 1.49592 15.75
    endloop
  endfacet
  facet normal -0 0 1
    outer loop
      vertex -1.5 1.07919 15.75
      vertex -1.48349 -1.13002 15.75
      vertex -1.48349 1.13002 15.75
    endloop
  endfacet
  facet normal 0 0 1
    outer loop
      vertex -1.48349 -1.13002 15.75
      vertex -1.5 1.07919 15.75
      vertex -1.5 -1.07919 15.75
    endloop
  endfacet
  facet normal 0 0 1
    outer loop
      vertex 1.09174 -1.49592 15.75
      vertex -1.07919 -1.5 15.75
      vertex 1.07919 -1.5 15.75
    endloop
  endfacet
  facet normal 0 -0 1
    outer loop
      vertex -1.07919 -1.5 15.75
      vertex 1.09174 -1.49592 15.75
      vertex -1.09174 -1.49592 15.75
    endloop
  endfacet
  facet normal 0 0 1
    outer loop
      vertex 1.48349 1.13002 15.75
      vertex 1.5 -1.07919 15.75
      vertex 1.5 1.07919 15.75
    endloop
  endfacet
  facet normal 0 0 1
    outer loop
      vertex 1.5 -1.07919 15.75
      vertex 1.48349 1.13002 15.75
      vertex 1.48349 -1.13002 15.75
    endloop
  endfacet
  facet normal -0.743096 0 -0.669185
    outer loop
      vertex -1.48349 1.13002 15.75
      vertex -1.61803 1.60449 15.8994
      vertex -1.48349 1.49592 15.75
    endloop
  endfacet
  facet normal -0.743096 0 -0.669185
    outer loop
      vertex -1.48349 -1.13002 15.75
      vertex -1.61803 1.60449 15.8994
      vertex -1.48349 1.13002 15.75
    endloop
  endfacet
  facet normal -0.743096 0 -0.669185
    outer loop
      vertex -1.61803 -1.60449 15.8994
      vertex -1.48349 -1.13002 15.75
      vertex -1.48349 -1.49592 15.75
    endloop
  endfacet
  facet normal -0.743096 0 -0.669185
    outer loop
      vertex -1.48349 -1.13002 15.75
      vertex -1.61803 -1.60449 15.8994
      vertex -1.61803 1.60449 15.8994
    endloop
  endfacet
  facet normal -0.950998 0.000683436 -0.309196
    outer loop
      vertex -1.89059 1.90211 16.457
      vertex -1.82709 1.8151 16.2615
      vertex -1.9563 1.94509 16.6592
    endloop
  endfacet
  facet normal -0.950998 -0.000683436 -0.309196
    outer loop
      vertex -1.82709 -1.8151 16.2615
      vertex -1.89059 -1.90211 16.457
      vertex -1.9563 -1.94509 16.6592
    endloop
  endfacet
  facet normal -0.951064 0 -0.308994
    outer loop
      vertex -1.82709 -1.8151 16.2615
      vertex -1.9563 1.94509 16.6592
      vertex -1.82709 1.8151 16.2615
    endloop
  endfacet
  facet normal -0.951064 -0 -0.308994
    outer loop
      vertex -1.9563 1.94509 16.6592
      vertex -1.82709 -1.8151 16.2615
      vertex -1.9563 -1.94509 16.6592
    endloop
  endfacet
  facet normal -0.994525 -0.000473161 0.104494
    outer loop
      vertex -1.96847 1.96971 17.375
      vertex -1.97803 1.98904 17.2841
      vertex -2 1.98904 17.075
    endloop
  endfacet
  facet normal -0.994522 0 0.104524
    outer loop
      vertex -2 1.98904 17.075
      vertex -1.96847 -1.96971 17.375
      vertex -1.96847 1.96971 17.375
    endloop
  endfacet
  facet normal -0.994522 0 0.104524
    outer loop
      vertex -1.96847 -1.96971 17.375
      vertex -2 1.98904 17.075
      vertex -2 -1.98904 17.075
    endloop
  endfacet
  facet normal -0.994525 0.000473161 0.104494
    outer loop
      vertex -1.97803 -1.98904 17.2841
      vertex -1.96847 -1.96971 17.375
      vertex -2 -1.98904 17.075
    endloop
  endfacet
  facet normal -0.994525 -0.000275309 -0.104494
    outer loop
      vertex -1.97803 1.98904 16.8659
      vertex -1.9563 1.94509 16.6592
      vertex -2 1.98904 17.075
    endloop
  endfacet
  facet normal -0.994525 0.000275309 -0.104494
    outer loop
      vertex -1.9563 -1.94509 16.6592
      vertex -1.97803 -1.98904 16.8659
      vertex -2 -1.98904 17.075
    endloop
  endfacet
  facet normal -0.994522 0 -0.104523
    outer loop
      vertex -1.9563 -1.94509 16.6592
      vertex -2 1.98904 17.075
      vertex -1.9563 1.94509 16.6592
    endloop
  endfacet
  facet normal -0.994522 -0 -0.104523
    outer loop
      vertex -2 1.98904 17.075
      vertex -1.9563 -1.94509 16.6592
      vertex -2 -1.98904 17.075
    endloop
  endfacet
  facet normal -0.865909 0.000457016 -0.500202
    outer loop
      vertex -1.7194 1.73205 16.075
      vertex -1.61803 1.60449 15.8994
      vertex -1.82709 1.8151 16.2615
    endloop
  endfacet
  facet normal -0.865909 -0.000457016 -0.500202
    outer loop
      vertex -1.61803 -1.60449 15.8994
      vertex -1.7194 -1.73205 16.075
      vertex -1.82709 -1.8151 16.2615
    endloop
  endfacet
  facet normal -0.866024 0 -0.500003
    outer loop
      vertex -1.61803 -1.60449 15.8994
      vertex -1.82709 1.8151 16.2615
      vertex -1.61803 1.60449 15.8994
    endloop
  endfacet
  facet normal -0.866024 -0 -0.500003
    outer loop
      vertex -1.82709 1.8151 16.2615
      vertex -1.61803 -1.60449 15.8994
      vertex -1.82709 -1.8151 16.2615
    endloop
  endfacet
  facet normal 0.994525 -0.000473161 0.104494
    outer loop
      vertex 2 1.98904 17.075
      vertex 1.97803 1.98904 17.2841
      vertex 1.96847 1.96971 17.375
    endloop
  endfacet
  facet normal 0.994525 0.000473161 0.104494
    outer loop
      vertex 1.97803 -1.98904 17.2841
      vertex 2 -1.98904 17.075
      vertex 1.96847 -1.96971 17.375
    endloop
  endfacet
  facet normal 0.994522 -0 0.104524
    outer loop
      vertex 1.96847 -1.96971 17.375
      vertex 2 1.98904 17.075
      vertex 1.96847 1.96971 17.375
    endloop
  endfacet
  facet normal 0.994522 0 0.104524
    outer loop
      vertex 2 1.98904 17.075
      vertex 1.96847 -1.96971 17.375
      vertex 2 -1.98904 17.075
    endloop
  endfacet
  facet normal 0.994525 -0.000275309 -0.104494
    outer loop
      vertex 1.97803 1.98904 16.8659
      vertex 2 1.98904 17.075
      vertex 1.9563 1.94509 16.6592
    endloop
  endfacet
  facet normal 0.994522 0 -0.104523
    outer loop
      vertex 2 1.98904 17.075
      vertex 1.9563 -1.94509 16.6592
      vertex 1.9563 1.94509 16.6592
    endloop
  endfacet
  facet normal 0.994522 0 -0.104523
    outer loop
      vertex 1.9563 -1.94509 16.6592
      vertex 2 1.98904 17.075
      vertex 2 -1.98904 17.075
    endloop
  endfacet
  facet normal 0.994525 0.000275309 -0.104494
    outer loop
      vertex 2 -1.98904 17.075
      vertex 1.97803 -1.98904 16.8659
      vertex 1.9563 -1.94509 16.6592
    endloop
  endfacet
  facet normal 0.865909 0.000457016 -0.500202
    outer loop
      vertex 1.7194 1.73205 16.075
      vertex 1.82709 1.8151 16.2615
      vertex 1.61803 1.60449 15.8994
    endloop
  endfacet
  facet normal 0.866024 0 -0.500003
    outer loop
      vertex 1.82709 1.8151 16.2615
      vertex 1.61803 -1.60449 15.8994
      vertex 1.61803 1.60449 15.8994
    endloop
  endfacet
  facet normal 0.866024 0 -0.500003
    outer loop
      vertex 1.61803 -1.60449 15.8994
      vertex 1.82709 1.8151 16.2615
      vertex 1.82709 -1.8151 16.2615
    endloop
  endfacet
  facet normal 0.865909 -0.000457016 -0.500202
    outer loop
      vertex 1.82709 -1.8151 16.2615
      vertex 1.7194 -1.73205 16.075
      vertex 1.61803 -1.60449 15.8994
    endloop
  endfacet
  facet normal 0.743096 0 -0.669185
    outer loop
      vertex 1.61803 1.60449 15.8994
      vertex 1.48349 1.13002 15.75
      vertex 1.48349 1.49592 15.75
    endloop
  endfacet
  facet normal 0.743096 0 -0.669185
    outer loop
      vertex 1.61803 1.60449 15.8994
      vertex 1.48349 -1.13002 15.75
      vertex 1.48349 1.13002 15.75
    endloop
  endfacet
  facet normal 0.743096 0 -0.669185
    outer loop
      vertex 1.61803 -1.60449 15.8994
      vertex 1.48349 -1.13002 15.75
      vertex 1.61803 1.60449 15.8994
    endloop
  endfacet
  facet normal 0.743096 0 -0.669185
    outer loop
      vertex 1.48349 -1.13002 15.75
      vertex 1.61803 -1.60449 15.8994
      vertex 1.48349 -1.49592 15.75
    endloop
  endfacet
  facet normal 0.950998 0.000683436 -0.309196
    outer loop
      vertex 1.89059 1.90211 16.457
      vertex 1.9563 1.94509 16.6592
      vertex 1.82709 1.8151 16.2615
    endloop
  endfacet
  facet normal 0.951064 0 -0.308994
    outer loop
      vertex 1.9563 1.94509 16.6592
      vertex 1.82709 -1.8151 16.2615
      vertex 1.82709 1.8151 16.2615
    endloop
  endfacet
  facet normal 0.951064 0 -0.308994
    outer loop
      vertex 1.82709 -1.8151 16.2615
      vertex 1.9563 1.94509 16.6592
      vertex 1.9563 -1.94509 16.6592
    endloop
  endfacet
  facet normal 0.950998 -0.000683436 -0.309196
    outer loop
      vertex 1.9563 -1.94509 16.6592
      vertex 1.89059 -1.90211 16.457
      vertex 1.82709 -1.8151 16.2615
    endloop
  endfacet
  facet normal -0.000883883 0.913708 -0.406371
    outer loop
      vertex 1.89059 1.90211 16.457
      vertex 1.82709 1.8151 16.2615
      vertex 1.7194 1.73205 16.075
    endloop
  endfacet
  facet normal 0 0.913561 -0.406702
    outer loop
      vertex 1.7194 1.73205 16.075
      vertex -1.89059 1.90211 16.457
      vertex 1.89059 1.90211 16.457
    endloop
  endfacet
  facet normal 0 0.913561 -0.406702
    outer loop
      vertex -1.89059 1.90211 16.457
      vertex 1.7194 1.73205 16.075
      vertex -1.7194 1.73205 16.075
    endloop
  endfacet
  facet normal 0.000883883 0.913708 -0.406371
    outer loop
      vertex -1.7194 1.73205 16.075
      vertex -1.82709 1.8151 16.2615
      vertex -1.89059 1.90211 16.457
    endloop
  endfacet
  facet normal -7.77758e-05 0.809084 -0.587693
    outer loop
      vertex 1.7194 1.73205 16.075
      vertex 1.61803 1.60449 15.8994
      vertex 1.09174 1.49592 15.75
    endloop
  endfacet
  facet normal 0 0.809013 -0.587791
    outer loop
      vertex 1.09174 1.49592 15.75
      vertex -1.7194 1.73205 16.075
      vertex 1.7194 1.73205 16.075
    endloop
  endfacet
  facet normal 0 0.809013 -0.587791
    outer loop
      vertex -1.7194 1.73205 16.075
      vertex 1.09174 1.49592 15.75
      vertex -1.09174 1.49592 15.75
    endloop
  endfacet
  facet normal 0 0.808954 -0.587872
    outer loop
      vertex 1.61803 1.60449 15.8994
      vertex 1.48349 1.49592 15.75
      vertex 1.09174 1.49592 15.75
    endloop
  endfacet
  facet normal 7.77758e-05 0.809084 -0.587693
    outer loop
      vertex -1.09174 1.49592 15.75
      vertex -1.61803 1.60449 15.8994
      vertex -1.7194 1.73205 16.075
    endloop
  endfacet
  facet normal 0 0.808954 -0.587872
    outer loop
      vertex -1.09174 1.49592 15.75
      vertex -1.48349 1.49592 15.75
      vertex -1.61803 1.60449 15.8994
    endloop
  endfacet
  facet normal -0.000289975 -0.978127 -0.208007
    outer loop
      vertex -1.9563 -1.94509 16.6592
      vertex -1.89059 -1.90211 16.457
      vertex -1.97803 -1.98904 16.8659
    endloop
  endfacet
  facet normal 0 -0.97814 -0.207947
    outer loop
      vertex -1.89059 -1.90211 16.457
      vertex 1.97803 -1.98904 16.8659
      vertex -1.97803 -1.98904 16.8659
    endloop
  endfacet
  facet normal 0 -0.97814 -0.207947
    outer loop
      vertex 1.97803 -1.98904 16.8659
      vertex -1.89059 -1.90211 16.457
      vertex 1.89059 -1.90211 16.457
    endloop
  endfacet
  facet normal 0.000289975 -0.978127 -0.208007
    outer loop
      vertex 1.9563 -1.94509 16.6592
      vertex 1.97803 -1.98904 16.8659
      vertex 1.89059 -1.90211 16.457
    endloop
  endfacet
  facet normal 0 0.978129 0.208
    outer loop
      vertex 1.97803 1.98904 17.2841
      vertex -1.96847 1.96971 17.375
      vertex 1.96847 1.96971 17.375
    endloop
  endfacet
  facet normal 0 0.978129 0.208
    outer loop
      vertex -1.96847 1.96971 17.375
      vertex 1.97803 1.98904 17.2841
      vertex -1.97803 1.98904 17.2841
    endloop
  endfacet
  facet normal 0.000289975 0.978127 -0.208007
    outer loop
      vertex 1.97803 1.98904 16.8659
      vertex 1.9563 1.94509 16.6592
      vertex 1.89059 1.90211 16.457
    endloop
  endfacet
  facet normal 0 0.97814 -0.207947
    outer loop
      vertex 1.89059 1.90211 16.457
      vertex -1.97803 1.98904 16.8659
      vertex 1.97803 1.98904 16.8659
    endloop
  endfacet
  facet normal 0 0.97814 -0.207947
    outer loop
      vertex -1.97803 1.98904 16.8659
      vertex 1.89059 1.90211 16.457
      vertex -1.89059 1.90211 16.457
    endloop
  endfacet
  facet normal -0.000289975 0.978127 -0.208007
    outer loop
      vertex -1.89059 1.90211 16.457
      vertex -1.9563 1.94509 16.6592
      vertex -1.97803 1.98904 16.8659
    endloop
  endfacet
  facet normal 0.000883883 -0.913708 -0.406371
    outer loop
      vertex -1.82709 -1.8151 16.2615
      vertex -1.7194 -1.73205 16.075
      vertex -1.89059 -1.90211 16.457
    endloop
  endfacet
  facet normal 0 -0.913561 -0.406702
    outer loop
      vertex -1.7194 -1.73205 16.075
      vertex 1.89059 -1.90211 16.457
      vertex -1.89059 -1.90211 16.457
    endloop
  endfacet
  facet normal 0 -0.913561 -0.406702
    outer loop
      vertex 1.89059 -1.90211 16.457
      vertex -1.7194 -1.73205 16.075
      vertex 1.7194 -1.73205 16.075
    endloop
  endfacet
  facet normal -0.000883883 -0.913708 -0.406371
    outer loop
      vertex 1.82709 -1.8151 16.2615
      vertex 1.89059 -1.90211 16.457
      vertex 1.7194 -1.73205 16.075
    endloop
  endfacet
  facet normal 0 -0.978129 0.208
    outer loop
      vertex -1.97803 -1.98904 17.2841
      vertex 1.96847 -1.96971 17.375
      vertex -1.96847 -1.96971 17.375
    endloop
  endfacet
  facet normal 0 -0.978129 0.208
    outer loop
      vertex 1.96847 -1.96971 17.375
      vertex -1.97803 -1.98904 17.2841
      vertex 1.97803 -1.98904 17.2841
    endloop
  endfacet
  facet normal 0 -1 0
    outer loop
      vertex -1.97803 -1.98904 16.8659
      vertex -1.97803 -1.98904 17.2841
      vertex -2 -1.98904 17.075
    endloop
  endfacet
  facet normal 0 -1 0
    outer loop
      vertex -1.97803 -1.98904 17.2841
      vertex -1.97803 -1.98904 16.8659
      vertex 1.97803 -1.98904 17.2841
    endloop
  endfacet
  facet normal 0 -1 0
    outer loop
      vertex 1.97803 -1.98904 16.8659
      vertex 1.97803 -1.98904 17.2841
      vertex -1.97803 -1.98904 16.8659
    endloop
  endfacet
  facet normal 0 -1 0
    outer loop
      vertex 1.97803 -1.98904 17.2841
      vertex 1.97803 -1.98904 16.8659
      vertex 2 -1.98904 17.075
    endloop
  endfacet
  facet normal 7.77758e-05 -0.809084 -0.587693
    outer loop
      vertex -1.61803 -1.60449 15.8994
      vertex -1.09174 -1.49592 15.75
      vertex -1.7194 -1.73205 16.075
    endloop
  endfacet
  facet normal 0 -0.809013 -0.587791
    outer loop
      vertex -1.09174 -1.49592 15.75
      vertex 1.7194 -1.73205 16.075
      vertex -1.7194 -1.73205 16.075
    endloop
  endfacet
  facet normal 0 -0.809013 -0.587791
    outer loop
      vertex 1.7194 -1.73205 16.075
      vertex -1.09174 -1.49592 15.75
      vertex 1.09174 -1.49592 15.75
    endloop
  endfacet
  facet normal 0 -0.808954 -0.587872
    outer loop
      vertex -1.48349 -1.49592 15.75
      vertex -1.09174 -1.49592 15.75
      vertex -1.61803 -1.60449 15.8994
    endloop
  endfacet
  facet normal -7.77758e-05 -0.809084 -0.587693
    outer loop
      vertex 1.61803 -1.60449 15.8994
      vertex 1.7194 -1.73205 16.075
      vertex 1.09174 -1.49592 15.75
    endloop
  endfacet
  facet normal -0 -0.808954 -0.587872
    outer loop
      vertex 1.48349 -1.49592 15.75
      vertex 1.61803 -1.60449 15.8994
      vertex 1.09174 -1.49592 15.75
    endloop
  endfacet
  facet normal 0 1 0
    outer loop
      vertex 1.97803 1.98904 16.8659
      vertex 1.97803 1.98904 17.2841
      vertex 2 1.98904 17.075
    endloop
  endfacet
  facet normal 0 1 0
    outer loop
      vertex 1.97803 1.98904 17.2841
      vertex 1.97803 1.98904 16.8659
      vertex -1.97803 1.98904 17.2841
    endloop
  endfacet
  facet normal 0 1 0
    outer loop
      vertex -1.97803 1.98904 16.8659
      vertex -1.97803 1.98904 17.2841
      vertex 1.97803 1.98904 16.8659
    endloop
  endfacet
  facet normal 0 1 0
    outer loop
      vertex -1.97803 1.98904 17.2841
      vertex -1.97803 1.98904 16.8659
      vertex -2 1.98904 17.075
    endloop
  endfacet
  facet normal -0 0 1
    outer loop
      vertex -1.96847 1.96971 17.375
      vertex 1.96847 -1.96971 17.375
      vertex 1.96847 1.96971 17.375
    endloop
  endfacet
  facet normal 0 0 1
    outer loop
      vertex 1.96847 -1.96971 17.375
      vertex -1.96847 1.96971 17.375
      vertex -1.96847 -1.96971 17.375
    endloop
  endfacet
  facet normal 0 0 -1
    outer loop
      vertex -1.22982 1.45106 15.75
      vertex -1.48349 1.49592 15.75
      vertex -1.09174 1.49592 15.75
    endloop
  endfacet
  facet normal 0 0 -1
    outer loop
      vertex -1.35796 1.35796 15.75
      vertex -1.48349 1.49592 15.75
      vertex -1.22982 1.45106 15.75
    endloop
  endfacet
  facet normal 0 0 -1
    outer loop
      vertex -1.45106 1.22982 15.75
      vertex -1.48349 1.49592 15.75
      vertex -1.35796 1.35796 15.75
    endloop
  endfacet
  facet normal 0 0 -1
    outer loop
      vertex -1.48349 1.49592 15.75
      vertex -1.45106 1.22982 15.75
      vertex -1.48349 1.13002 15.75
    endloop
  endfacet
  facet normal 0 0 -1
    outer loop
      vertex 1.45106 1.22982 15.75
      vertex 1.48349 1.49592 15.75
      vertex 1.48349 1.13002 15.75
    endloop
  endfacet
  facet normal 0 0 -1
    outer loop
      vertex 1.35796 1.35796 15.75
      vertex 1.48349 1.49592 15.75
      vertex 1.45106 1.22982 15.75
    endloop
  endfacet
  facet normal 0 0 -1
    outer loop
      vertex 1.22982 1.45106 15.75
      vertex 1.48349 1.49592 15.75
      vertex 1.35796 1.35796 15.75
    endloop
  endfacet
  facet normal -0 0 -1
    outer loop
      vertex 1.48349 1.49592 15.75
      vertex 1.22982 1.45106 15.75
      vertex 1.09174 1.49592 15.75
    endloop
  endfacet
  facet normal 0 0 -1
    outer loop
      vertex -1.48349 -1.49592 15.75
      vertex -1.22982 -1.45106 15.75
      vertex -1.09174 -1.49592 15.75
    endloop
  endfacet
  facet normal 0 0 -1
    outer loop
      vertex -1.48349 -1.49592 15.75
      vertex -1.35796 -1.35796 15.75
      vertex -1.22982 -1.45106 15.75
    endloop
  endfacet
  facet normal 0 0 -1
    outer loop
      vertex -1.48349 -1.49592 15.75
      vertex -1.45106 -1.22982 15.75
      vertex -1.35796 -1.35796 15.75
    endloop
  endfacet
  facet normal -0 0 -1
    outer loop
      vertex -1.45106 -1.22982 15.75
      vertex -1.48349 -1.49592 15.75
      vertex -1.48349 -1.13002 15.75
    endloop
  endfacet
  facet normal 0 0 -1
    outer loop
      vertex 1.48349 -1.49592 15.75
      vertex 1.45106 -1.22982 15.75
      vertex 1.48349 -1.13002 15.75
    endloop
  endfacet
  facet normal 0 0 -1
    outer loop
      vertex 1.48349 -1.49592 15.75
      vertex 1.35796 -1.35796 15.75
      vertex 1.45106 -1.22982 15.75
    endloop
  endfacet
  facet normal 0 0 -1
    outer loop
      vertex 1.48349 -1.49592 15.75
      vertex 1.22982 -1.45106 15.75
      vertex 1.35796 -1.35796 15.75
    endloop
  endfacet
  facet normal 0 -0 -1
    outer loop
      vertex 1.22982 -1.45106 15.75
      vertex 1.48349 -1.49592 15.75
      vertex 1.09174 -1.49592 15.75
    endloop
  endfacet
endsolid OpenSCAD_Model
