solid OpenSCAD_Model
  facet normal 1 0 0
    outer loop
      vertex 7.5 1.73205 1.075
      vertex 7.5 1.49592 0.75
      vertex 7.5 1.5 0.75
    endloop
  endfacet
  facet normal 1 0 0
    outer loop
      vertex 7.5 7.5 5
      vertex 7.5 1.98904 2.28406
      vertex 7.5 7.5 0
    endloop
  endfacet
  facet normal 1 0 0
    outer loop
      vertex 7.5 7.5 5
      vertex 7.5 1.90211 2.69303
      vertex 7.5 1.98904 2.28406
    endloop
  endfacet
  facet normal 1 0 0
    outer loop
      vertex 7.5 7.5 5
      vertex 7.5 1.8211 2.875
      vertex 7.5 1.90211 2.69303
    endloop
  endfacet
  facet normal 1 0 0
    outer loop
      vertex 7.5 7.5 5
      vertex 7.5 -1.8211 2.875
      vertex 7.5 1.8211 2.875
    endloop
  endfacet
  facet normal 1 0 0
    outer loop
      vertex 7.5 -7.5 0
      vertex 7.5 -1.98904 2.28406
      vertex 7.5 -7.5 5
    endloop
  endfacet
  facet normal 1 0 0
    outer loop
      vertex 7.5 -1.90211 2.69303
      vertex 7.5 -7.5 5
      vertex 7.5 -1.98904 2.28406
    endloop
  endfacet
  facet normal 1 0 0
    outer loop
      vertex 7.5 -1.8211 2.875
      vertex 7.5 -7.5 5
      vertex 7.5 -1.90211 2.69303
    endloop
  endfacet
  facet normal 1 -0 0
    outer loop
      vertex 7.5 -7.5 5
      vertex 7.5 -1.8211 2.875
      vertex 7.5 7.5 5
    endloop
  endfacet
  facet normal 1 -0 0
    outer loop
      vertex 7.5 1.98904 1.86594
      vertex 7.5 7.5 0
      vertex 7.5 1.98904 2.28406
    endloop
  endfacet
  facet normal 1 -0 0
    outer loop
      vertex 7.5 1.90211 1.45697
      vertex 7.5 7.5 0
      vertex 7.5 1.98904 1.86594
    endloop
  endfacet
  facet normal 1 -0 0
    outer loop
      vertex 7.5 1.73205 1.075
      vertex 7.5 7.5 0
      vertex 7.5 1.90211 1.45697
    endloop
  endfacet
  facet normal 1 0 0
    outer loop
      vertex 7.5 1.5 0
      vertex 7.5 1.73205 1.075
      vertex 7.5 1.5 0.75
    endloop
  endfacet
  facet normal 1 0 0
    outer loop
      vertex 7.5 1.73205 1.075
      vertex 7.5 1.5 0
      vertex 7.5 7.5 0
    endloop
  endfacet
  facet normal 1 0 0
    outer loop
      vertex 7.5 -1.73205 1.075
      vertex 7.5 -1.5 0.75
      vertex 7.5 -1.49592 0.75
    endloop
  endfacet
  facet normal 1 0 0
    outer loop
      vertex 7.5 -1.73205 1.075
      vertex 7.5 -1.5 0
      vertex 7.5 -1.5 0.75
    endloop
  endfacet
  facet normal 1 0 0
    outer loop
      vertex 7.5 -7.5 0
      vertex 7.5 -1.73205 1.075
      vertex 7.5 -1.90211 1.45697
    endloop
  endfacet
  facet normal 1 0 0
    outer loop
      vertex 7.5 -1.98904 2.28406
      vertex 7.5 -7.5 0
      vertex 7.5 -1.98904 1.86594
    endloop
  endfacet
  facet normal 1 0 0
    outer loop
      vertex 7.5 -1.98904 1.86594
      vertex 7.5 -7.5 0
      vertex 7.5 -1.90211 1.45697
    endloop
  endfacet
  facet normal 1 0 0
    outer loop
      vertex 7.5 -1.73205 1.075
      vertex 7.5 -7.5 0
      vertex 7.5 -1.5 0
    endloop
  endfacet
  facet normal 0 0 1
    outer loop
      vertex 7.5 7.5 5
      vertex 1.5 1.07919 5
      vertex 7.5 -7.5 5
    endloop
  endfacet
  facet normal 0 0 1
    outer loop
      vertex 7.5 7.5 5
      vertex 1.45106 1.22982 5
      vertex 1.5 1.07919 5
    endloop
  endfacet
  facet normal 0 0 1
    outer loop
      vertex 7.5 7.5 5
      vertex 1.35796 1.35796 5
      vertex 1.45106 1.22982 5
    endloop
  endfacet
  facet normal 0 0 1
    outer loop
      vertex 7.5 7.5 5
      vertex 1.22982 1.45106 5
      vertex 1.35796 1.35796 5
    endloop
  endfacet
  facet normal 0 0 1
    outer loop
      vertex 7.5 7.5 5
      vertex 1.07919 1.5 5
      vertex 1.22982 1.45106 5
    endloop
  endfacet
  facet normal 0 0 1
    outer loop
      vertex 7.5 7.5 5
      vertex -1.07919 1.5 5
      vertex 1.07919 1.5 5
    endloop
  endfacet
  facet normal -0 0 1
    outer loop
      vertex -7.5 7.5 5
      vertex -1.07919 1.5 5
      vertex 7.5 7.5 5
    endloop
  endfacet
  facet normal 0 0 1
    outer loop
      vertex -1.5 1.07919 5
      vertex -7.5 7.5 5
      vertex -1.5 -1.07919 5
    endloop
  endfacet
  facet normal 0 0 1
    outer loop
      vertex -1.45106 1.22982 5
      vertex -7.5 7.5 5
      vertex -1.5 1.07919 5
    endloop
  endfacet
  facet normal 0 0 1
    outer loop
      vertex -1.35796 1.35796 5
      vertex -7.5 7.5 5
      vertex -1.45106 1.22982 5
    endloop
  endfacet
  facet normal 0 0 1
    outer loop
      vertex -1.22982 1.45106 5
      vertex -7.5 7.5 5
      vertex -1.35796 1.35796 5
    endloop
  endfacet
  facet normal 0 0 1
    outer loop
      vertex -1.07919 1.5 5
      vertex -7.5 7.5 5
      vertex -1.22982 1.45106 5
    endloop
  endfacet
  facet normal -0 0 1
    outer loop
      vertex 1.5 -1.07919 5
      vertex 7.5 -7.5 5
      vertex 1.5 1.07919 5
    endloop
  endfacet
  facet normal -0 0 1
    outer loop
      vertex 1.45106 -1.22982 5
      vertex 7.5 -7.5 5
      vertex 1.5 -1.07919 5
    endloop
  endfacet
  facet normal -0 0 1
    outer loop
      vertex 1.35796 -1.35796 5
      vertex 7.5 -7.5 5
      vertex 1.45106 -1.22982 5
    endloop
  endfacet
  facet normal -0 0 1
    outer loop
      vertex 1.22982 -1.45106 5
      vertex 7.5 -7.5 5
      vertex 1.35796 -1.35796 5
    endloop
  endfacet
  facet normal -0 0 1
    outer loop
      vertex 1.07919 -1.5 5
      vertex 7.5 -7.5 5
      vertex 1.22982 -1.45106 5
    endloop
  endfacet
  facet normal -0 0 1
    outer loop
      vertex -1.07919 -1.5 5
      vertex 7.5 -7.5 5
      vertex 1.07919 -1.5 5
    endloop
  endfacet
  facet normal 0 0 1
    outer loop
      vertex -7.5 -7.5 5
      vertex -1.07919 -1.5 5
      vertex -1.22982 -1.45106 5
    endloop
  endfacet
  facet normal 0 0 1
    outer loop
      vertex -7.5 -7.5 5
      vertex -1.5 -1.07919 5
      vertex -7.5 7.5 5
    endloop
  endfacet
  facet normal 0 0 1
    outer loop
      vertex -1.07919 -1.5 5
      vertex -7.5 -7.5 5
      vertex 7.5 -7.5 5
    endloop
  endfacet
  facet normal 0 0 1
    outer loop
      vertex -1.35796 -1.35796 5
      vertex -7.5 -7.5 5
      vertex -1.22982 -1.45106 5
    endloop
  endfacet
  facet normal 0 0 1
    outer loop
      vertex -1.45106 -1.22982 5
      vertex -7.5 -7.5 5
      vertex -1.35796 -1.35796 5
    endloop
  endfacet
  facet normal 0 0 1
    outer loop
      vertex -1.5 -1.07919 5
      vertex -7.5 -7.5 5
      vertex -1.45106 -1.22982 5
    endloop
  endfacet
  facet normal 0 0 -1
    outer loop
      vertex -7.5 1.5 0
      vertex 7.5 7.5 0
      vertex 7.5 1.5 0
    endloop
  endfacet
  facet normal -0 0 -1
    outer loop
      vertex 7.5 7.5 0
      vertex -7.5 1.5 0
      vertex -7.5 7.5 0
    endloop
  endfacet
  facet normal 0 0 -1
    outer loop
      vertex -7.5 -7.5 0
      vertex 7.5 -1.5 0
      vertex 7.5 -7.5 0
    endloop
  endfacet
  facet normal -0 0 -1
    outer loop
      vertex 7.5 -1.5 0
      vertex -7.5 -7.5 0
      vertex -7.5 -1.5 0
    endloop
  endfacet
  facet normal -1 0 0
    outer loop
      vertex -7.5 -1.5 0
      vertex -7.5 -1.73205 1.075
      vertex -7.5 -1.5 0.75
    endloop
  endfacet
  facet normal -1 0 0
    outer loop
      vertex -7.5 -7.5 0
      vertex -7.5 -1.73205 1.075
      vertex -7.5 -1.5 0
    endloop
  endfacet
  facet normal -1 -0 0
    outer loop
      vertex -7.5 -1.98904 1.86594
      vertex -7.5 -7.5 0
      vertex -7.5 -1.98904 2.28406
    endloop
  endfacet
  facet normal -1 -0 0
    outer loop
      vertex -7.5 -1.90211 1.45697
      vertex -7.5 -7.5 0
      vertex -7.5 -1.98904 1.86594
    endloop
  endfacet
  facet normal -1 -0 0
    outer loop
      vertex -7.5 -1.73205 1.075
      vertex -7.5 -7.5 0
      vertex -7.5 -1.90211 1.45697
    endloop
  endfacet
  facet normal -1 0 0
    outer loop
      vertex -7.5 -1.49592 0.75
      vertex -7.5 -1.5 0.75
      vertex -7.5 -1.73205 1.075
    endloop
  endfacet
  facet normal -1 0 0
    outer loop
      vertex -7.5 1.98904 2.28406
      vertex -7.5 7.5 0
      vertex -7.5 1.98904 1.86594
    endloop
  endfacet
  facet normal -1 0 0
    outer loop
      vertex -7.5 7.5 0
      vertex -7.5 1.90211 1.45697
      vertex -7.5 1.98904 1.86594
    endloop
  endfacet
  facet normal -1 0 0
    outer loop
      vertex -7.5 7.5 0
      vertex -7.5 1.73205 1.075
      vertex -7.5 1.90211 1.45697
    endloop
  endfacet
  facet normal -1 0 0
    outer loop
      vertex -7.5 1.5 0
      vertex -7.5 1.73205 1.075
      vertex -7.5 7.5 0
    endloop
  endfacet
  facet normal -1 0 0
    outer loop
      vertex -7.5 1.5 0.75
      vertex -7.5 1.73205 1.075
      vertex -7.5 1.5 0
    endloop
  endfacet
  facet normal -1 0 0
    outer loop
      vertex -7.5 1.73205 1.075
      vertex -7.5 1.5 0.75
      vertex -7.5 1.49592 0.75
    endloop
  endfacet
  facet normal -1 0 0
    outer loop
      vertex -7.5 7.5 0
      vertex -7.5 1.98904 2.28406
      vertex -7.5 7.5 5
    endloop
  endfacet
  facet normal -1 0 0
    outer loop
      vertex -7.5 1.90211 2.69303
      vertex -7.5 7.5 5
      vertex -7.5 1.98904 2.28406
    endloop
  endfacet
  facet normal -1 0 0
    outer loop
      vertex -7.5 1.8211 2.875
      vertex -7.5 7.5 5
      vertex -7.5 1.90211 2.69303
    endloop
  endfacet
  facet normal -1 0 0
    outer loop
      vertex -7.5 -1.8211 2.875
      vertex -7.5 7.5 5
      vertex -7.5 1.8211 2.875
    endloop
  endfacet
  facet normal -1 0 0
    outer loop
      vertex -7.5 -7.5 5
      vertex -7.5 -1.98904 2.28406
      vertex -7.5 -7.5 0
    endloop
  endfacet
  facet normal -1 0 0
    outer loop
      vertex -7.5 -1.98904 2.28406
      vertex -7.5 -7.5 5
      vertex -7.5 -1.90211 2.69303
    endloop
  endfacet
  facet normal -1 0 0
    outer loop
      vertex -7.5 -1.8211 2.875
      vertex -7.5 -7.5 5
      vertex -7.5 7.5 5
    endloop
  endfacet
  facet normal -1 0 0
    outer loop
      vertex -7.5 -1.90211 2.69303
      vertex -7.5 -7.5 5
      vertex -7.5 -1.8211 2.875
    endloop
  endfacet
  facet normal 0 1 -0
    outer loop
      vertex 7.5 7.5 0
      vertex -7.5 7.5 5
      vertex 7.5 7.5 5
    endloop
  endfacet
  facet normal 0 1 0
    outer loop
      vertex -7.5 7.5 5
      vertex 7.5 7.5 0
      vertex -7.5 7.5 0
    endloop
  endfacet
  facet normal 0 -1 0
    outer loop
      vertex -7.5 -7.5 0
      vertex 7.5 -7.5 5
      vertex -7.5 -7.5 5
    endloop
  endfacet
  facet normal 0 -1 -0
    outer loop
      vertex 7.5 -7.5 5
      vertex -7.5 -7.5 0
      vertex 7.5 -7.5 0
    endloop
  endfacet
  facet normal 0.809014 0.587789 0
    outer loop
      vertex 1.45106 1.22982 5.75
      vertex 1.35796 1.35796 5
      vertex 1.35796 1.35796 5.75
    endloop
  endfacet
  facet normal 0.809014 0.587789 0
    outer loop
      vertex 1.35796 1.35796 5
      vertex 1.45106 1.22982 5.75
      vertex 1.45106 1.22982 5
    endloop
  endfacet
  facet normal 0.951048 0.309043 0
    outer loop
      vertex 1.45106 1.22982 5.75
      vertex 1.48349 1.13002 5.75
      vertex 1.45106 1.22982 5
    endloop
  endfacet
  facet normal 0.951088 0.308921 0
    outer loop
      vertex 1.5 1.07919 5.75
      vertex 1.5 1.07919 5
      vertex 1.48349 1.13002 5.75
    endloop
  endfacet
  facet normal 0.951061 0.309002 -6.05208e-06
    outer loop
      vertex 1.48349 1.13002 5.75
      vertex 1.5 1.07919 5
      vertex 1.45106 1.22982 5
    endloop
  endfacet
  facet normal 0.587789 0.809014 -0
    outer loop
      vertex 1.35796 1.35796 5
      vertex 1.22982 1.45106 5.75
      vertex 1.35796 1.35796 5.75
    endloop
  endfacet
  facet normal 0.587789 0.809014 0
    outer loop
      vertex 1.22982 1.45106 5.75
      vertex 1.35796 1.35796 5
      vertex 1.22982 1.45106 5
    endloop
  endfacet
  facet normal 0.308986 0.951066 0
    outer loop
      vertex 1.22982 1.45106 5.75
      vertex 1.22982 1.45106 5
      vertex 1.09174 1.49592 5.75
    endloop
  endfacet
  facet normal 0.309002 0.951061 3.14348e-06
    outer loop
      vertex 1.09174 1.49592 5.75
      vertex 1.22982 1.45106 5
      vertex 1.07919 1.5 5
    endloop
  endfacet
  facet normal 0.309172 0.951006 0
    outer loop
      vertex 1.07919 1.5 5.75
      vertex 1.09174 1.49592 5.75
      vertex 1.07919 1.5 5
    endloop
  endfacet
  facet normal 1 -0 0
    outer loop
      vertex 1.5 -1.07919 5.75
      vertex 1.5 1.07919 5
      vertex 1.5 1.07919 5.75
    endloop
  endfacet
  facet normal 1 0 0
    outer loop
      vertex 1.5 1.07919 5
      vertex 1.5 -1.07919 5.75
      vertex 1.5 -1.07919 5
    endloop
  endfacet
  facet normal 0 1 -0
    outer loop
      vertex 1.07919 1.5 5
      vertex -1.07919 1.5 5.75
      vertex 1.07919 1.5 5.75
    endloop
  endfacet
  facet normal 0 1 0
    outer loop
      vertex -1.07919 1.5 5.75
      vertex 1.07919 1.5 5
      vertex -1.07919 1.5 5
    endloop
  endfacet
  facet normal -0.587789 0.809014 0
    outer loop
      vertex -1.22982 1.45106 5
      vertex -1.35796 1.35796 5.75
      vertex -1.22982 1.45106 5.75
    endloop
  endfacet
  facet normal -0.587789 0.809014 0
    outer loop
      vertex -1.35796 1.35796 5.75
      vertex -1.22982 1.45106 5
      vertex -1.35796 1.35796 5
    endloop
  endfacet
  facet normal -1 0 0
    outer loop
      vertex -1.5 -1.07919 5
      vertex -1.5 1.07919 5.75
      vertex -1.5 1.07919 5
    endloop
  endfacet
  facet normal -1 -0 0
    outer loop
      vertex -1.5 1.07919 5.75
      vertex -1.5 -1.07919 5
      vertex -1.5 -1.07919 5.75
    endloop
  endfacet
  facet normal -0.951048 0.309043 0
    outer loop
      vertex -1.45106 1.22982 5.75
      vertex -1.45106 1.22982 5
      vertex -1.48349 1.13002 5.75
    endloop
  endfacet
  facet normal -0.951061 0.309002 -6.05208e-06
    outer loop
      vertex -1.48349 1.13002 5.75
      vertex -1.45106 1.22982 5
      vertex -1.5 1.07919 5
    endloop
  endfacet
  facet normal -0.951088 0.308921 0
    outer loop
      vertex -1.5 1.07919 5.75
      vertex -1.48349 1.13002 5.75
      vertex -1.5 1.07919 5
    endloop
  endfacet
  facet normal -0.809014 0.587789 0
    outer loop
      vertex -1.45106 1.22982 5
      vertex -1.35796 1.35796 5.75
      vertex -1.35796 1.35796 5
    endloop
  endfacet
  facet normal -0.809014 0.587789 0
    outer loop
      vertex -1.35796 1.35796 5.75
      vertex -1.45106 1.22982 5
      vertex -1.45106 1.22982 5.75
    endloop
  endfacet
  facet normal -0.309172 0.951006 0
    outer loop
      vertex -1.07919 1.5 5.75
      vertex -1.07919 1.5 5
      vertex -1.09174 1.49592 5.75
    endloop
  endfacet
  facet normal -0.309002 0.951061 3.14348e-06
    outer loop
      vertex -1.09174 1.49592 5.75
      vertex -1.07919 1.5 5
      vertex -1.22982 1.45106 5
    endloop
  endfacet
  facet normal -0.308986 0.951066 0
    outer loop
      vertex -1.22982 1.45106 5.75
      vertex -1.09174 1.49592 5.75
      vertex -1.22982 1.45106 5
    endloop
  endfacet
  facet normal -0.308986 -0.951066 0
    outer loop
      vertex -1.09174 -1.49592 5.75
      vertex -1.22982 -1.45106 5.75
      vertex -1.22982 -1.45106 5
    endloop
  endfacet
  facet normal -0.309002 -0.951061 3.14348e-06
    outer loop
      vertex -1.07919 -1.5 5
      vertex -1.09174 -1.49592 5.75
      vertex -1.22982 -1.45106 5
    endloop
  endfacet
  facet normal -0.309172 -0.951006 0
    outer loop
      vertex -1.07919 -1.5 5
      vertex -1.07919 -1.5 5.75
      vertex -1.09174 -1.49592 5.75
    endloop
  endfacet
  facet normal -0.951088 -0.308921 0
    outer loop
      vertex -1.48349 -1.13002 5.75
      vertex -1.5 -1.07919 5.75
      vertex -1.5 -1.07919 5
    endloop
  endfacet
  facet normal -0.951061 -0.309002 -6.05208e-06
    outer loop
      vertex -1.45106 -1.22982 5
      vertex -1.48349 -1.13002 5.75
      vertex -1.5 -1.07919 5
    endloop
  endfacet
  facet normal -0.951048 -0.309043 0
    outer loop
      vertex -1.45106 -1.22982 5
      vertex -1.45106 -1.22982 5.75
      vertex -1.48349 -1.13002 5.75
    endloop
  endfacet
  facet normal -0.809014 -0.587789 0
    outer loop
      vertex -1.35796 -1.35796 5
      vertex -1.45106 -1.22982 5.75
      vertex -1.45106 -1.22982 5
    endloop
  endfacet
  facet normal -0.809014 -0.587789 0
    outer loop
      vertex -1.45106 -1.22982 5.75
      vertex -1.35796 -1.35796 5
      vertex -1.35796 -1.35796 5.75
    endloop
  endfacet
  facet normal 0 -1 0
    outer loop
      vertex -1.07919 -1.5 5
      vertex 1.07919 -1.5 5.75
      vertex -1.07919 -1.5 5.75
    endloop
  endfacet
  facet normal 0 -1 -0
    outer loop
      vertex 1.07919 -1.5 5.75
      vertex -1.07919 -1.5 5
      vertex 1.07919 -1.5 5
    endloop
  endfacet
  facet normal -0.587789 -0.809014 0
    outer loop
      vertex -1.35796 -1.35796 5
      vertex -1.22982 -1.45106 5.75
      vertex -1.35796 -1.35796 5.75
    endloop
  endfacet
  facet normal -0.587789 -0.809014 -0
    outer loop
      vertex -1.22982 -1.45106 5.75
      vertex -1.35796 -1.35796 5
      vertex -1.22982 -1.45106 5
    endloop
  endfacet
  facet normal 0.309172 -0.951006 0
    outer loop
      vertex 1.09174 -1.49592 5.75
      vertex 1.07919 -1.5 5.75
      vertex 1.07919 -1.5 5
    endloop
  endfacet
  facet normal 0.309002 -0.951061 3.14348e-06
    outer loop
      vertex 1.22982 -1.45106 5
      vertex 1.09174 -1.49592 5.75
      vertex 1.07919 -1.5 5
    endloop
  endfacet
  facet normal 0.308986 -0.951066 0
    outer loop
      vertex 1.22982 -1.45106 5
      vertex 1.22982 -1.45106 5.75
      vertex 1.09174 -1.49592 5.75
    endloop
  endfacet
  facet normal 0.951088 -0.308921 0
    outer loop
      vertex 1.5 -1.07919 5
      vertex 1.5 -1.07919 5.75
      vertex 1.48349 -1.13002 5.75
    endloop
  endfacet
  facet normal 0.951048 -0.309043 0
    outer loop
      vertex 1.48349 -1.13002 5.75
      vertex 1.45106 -1.22982 5.75
      vertex 1.45106 -1.22982 5
    endloop
  endfacet
  facet normal 0.951061 -0.309002 -6.05208e-06
    outer loop
      vertex 1.5 -1.07919 5
      vertex 1.48349 -1.13002 5.75
      vertex 1.45106 -1.22982 5
    endloop
  endfacet
  facet normal 0.587789 -0.809014 0
    outer loop
      vertex 1.22982 -1.45106 5
      vertex 1.35796 -1.35796 5.75
      vertex 1.22982 -1.45106 5.75
    endloop
  endfacet
  facet normal 0.587789 -0.809014 0
    outer loop
      vertex 1.35796 -1.35796 5.75
      vertex 1.22982 -1.45106 5
      vertex 1.35796 -1.35796 5
    endloop
  endfacet
  facet normal 0.809014 -0.587789 0
    outer loop
      vertex 1.35796 -1.35796 5.75
      vertex 1.45106 -1.22982 5
      vertex 1.45106 -1.22982 5.75
    endloop
  endfacet
  facet normal 0.809014 -0.587789 0
    outer loop
      vertex 1.45106 -1.22982 5
      vertex 1.35796 -1.35796 5.75
      vertex 1.35796 -1.35796 5
    endloop
  endfacet
  facet normal -0 0 1
    outer loop
      vertex -1.07919 1.5 5.75
      vertex 1.09174 1.49592 5.75
      vertex 1.07919 1.5 5.75
    endloop
  endfacet
  facet normal 0 0 1
    outer loop
      vertex 1.09174 1.49592 5.75
      vertex -1.07919 1.5 5.75
      vertex -1.09174 1.49592 5.75
    endloop
  endfacet
  facet normal -0 0 1
    outer loop
      vertex -1.5 1.07919 5.75
      vertex -1.48349 -1.13002 5.75
      vertex -1.48349 1.13002 5.75
    endloop
  endfacet
  facet normal 0 0 1
    outer loop
      vertex -1.48349 -1.13002 5.75
      vertex -1.5 1.07919 5.75
      vertex -1.5 -1.07919 5.75
    endloop
  endfacet
  facet normal 0 0 1
    outer loop
      vertex 1.09174 -1.49592 5.75
      vertex -1.07919 -1.5 5.75
      vertex 1.07919 -1.5 5.75
    endloop
  endfacet
  facet normal 0 -0 1
    outer loop
      vertex -1.07919 -1.5 5.75
      vertex 1.09174 -1.49592 5.75
      vertex -1.09174 -1.49592 5.75
    endloop
  endfacet
  facet normal 0 0 1
    outer loop
      vertex 1.48349 1.13002 5.75
      vertex 1.5 -1.07919 5.75
      vertex 1.5 1.07919 5.75
    endloop
  endfacet
  facet normal 0 0 1
    outer loop
      vertex 1.5 -1.07919 5.75
      vertex 1.48349 1.13002 5.75
      vertex 1.48349 -1.13002 5.75
    endloop
  endfacet
  facet normal -0.743163 0 -0.66911
    outer loop
      vertex -1.48349 1.13002 5.75
      vertex -1.61803 1.60449 5.89943
      vertex -1.48349 1.49592 5.75
    endloop
  endfacet
  facet normal -0.743163 0 -0.66911
    outer loop
      vertex -1.48349 -1.13002 5.75
      vertex -1.61803 1.60449 5.89943
      vertex -1.48349 1.13002 5.75
    endloop
  endfacet
  facet normal -0.743163 0 -0.66911
    outer loop
      vertex -1.61803 -1.60449 5.89943
      vertex -1.48349 -1.13002 5.75
      vertex -1.48349 -1.49592 5.75
    endloop
  endfacet
  facet normal -0.743163 0 -0.66911
    outer loop
      vertex -1.48349 -1.13002 5.75
      vertex -1.61803 -1.60449 5.89943
      vertex -1.61803 1.60449 5.89943
    endloop
  endfacet
  facet normal -0.951032 0.000209709 -0.309091
    outer loop
      vertex -1.89059 1.90211 6.45697
      vertex -1.82709 1.8151 6.26153
      vertex -1.9563 1.94509 6.65918
    endloop
  endfacet
  facet normal -0.951032 -0.000209709 -0.309091
    outer loop
      vertex -1.82709 -1.8151 6.26153
      vertex -1.89059 -1.90211 6.45697
      vertex -1.9563 -1.94509 6.65918
    endloop
  endfacet
  facet normal -0.951053 0 -0.309029
    outer loop
      vertex -1.82709 -1.8151 6.26153
      vertex -1.9563 1.94509 6.65918
      vertex -1.82709 1.8151 6.26153
    endloop
  endfacet
  facet normal -0.951053 -0 -0.309029
    outer loop
      vertex -1.9563 1.94509 6.65918
      vertex -1.82709 -1.8151 6.26153
      vertex -1.9563 -1.94509 6.65918
    endloop
  endfacet
  facet normal -0.994523 -0.000162869 0.104514
    outer loop
      vertex -1.96847 1.96971 7.375
      vertex -1.97803 1.98904 7.28406
      vertex -2 1.98904 7.075
    endloop
  endfacet
  facet normal -0.994522 0 0.104524
    outer loop
      vertex -2 1.98904 7.075
      vertex -1.96847 -1.96971 7.375
      vertex -1.96847 1.96971 7.375
    endloop
  endfacet
  facet normal -0.994522 0 0.104524
    outer loop
      vertex -1.96847 -1.96971 7.375
      vertex -2 1.98904 7.075
      vertex -2 -1.98904 7.075
    endloop
  endfacet
  facet normal -0.994523 0.000162869 0.104514
    outer loop
      vertex -1.97803 -1.98904 7.28406
      vertex -1.96847 -1.96971 7.375
      vertex -2 -1.98904 7.075
    endloop
  endfacet
  facet normal -0.994523 -3.85982e-05 -0.104514
    outer loop
      vertex -1.97803 1.98904 6.86594
      vertex -1.9563 1.94509 6.65918
      vertex -2 1.98904 7.075
    endloop
  endfacet
  facet normal -0.994523 3.85982e-05 -0.104514
    outer loop
      vertex -1.9563 -1.94509 6.65918
      vertex -1.97803 -1.98904 6.86594
      vertex -2 -1.98904 7.075
    endloop
  endfacet
  facet normal -0.994523 0 -0.104518
    outer loop
      vertex -1.9563 -1.94509 6.65918
      vertex -2 1.98904 7.075
      vertex -1.9563 1.94509 6.65918
    endloop
  endfacet
  facet normal -0.994523 -0 -0.104518
    outer loop
      vertex -2 1.98904 7.075
      vertex -1.9563 -1.94509 6.65918
      vertex -2 -1.98904 7.075
    endloop
  endfacet
  facet normal -0.866057 -0.000132813 -0.499945
    outer loop
      vertex -1.7194 1.73205 6.075
      vertex -1.61803 1.60449 5.89943
      vertex -1.82709 1.8151 6.26153
    endloop
  endfacet
  facet normal -0.866057 0.000132813 -0.499945
    outer loop
      vertex -1.61803 -1.60449 5.89943
      vertex -1.7194 -1.73205 6.075
      vertex -1.82709 -1.8151 6.26153
    endloop
  endfacet
  facet normal -0.866024 0 -0.500003
    outer loop
      vertex -1.61803 -1.60449 5.89943
      vertex -1.82709 1.8151 6.26153
      vertex -1.61803 1.60449 5.89943
    endloop
  endfacet
  facet normal -0.866024 -0 -0.500003
    outer loop
      vertex -1.82709 1.8151 6.26153
      vertex -1.61803 -1.60449 5.89943
      vertex -1.82709 -1.8151 6.26153
    endloop
  endfacet
  facet normal 0.994523 -0.000162869 0.104514
    outer loop
      vertex 2 1.98904 7.075
      vertex 1.97803 1.98904 7.28406
      vertex 1.96847 1.96971 7.375
    endloop
  endfacet
  facet normal 0.994523 0.000162869 0.104514
    outer loop
      vertex 1.97803 -1.98904 7.28406
      vertex 2 -1.98904 7.075
      vertex 1.96847 -1.96971 7.375
    endloop
  endfacet
  facet normal 0.994522 -0 0.104524
    outer loop
      vertex 1.96847 -1.96971 7.375
      vertex 2 1.98904 7.075
      vertex 1.96847 1.96971 7.375
    endloop
  endfacet
  facet normal 0.994522 0 0.104524
    outer loop
      vertex 2 1.98904 7.075
      vertex 1.96847 -1.96971 7.375
      vertex 2 -1.98904 7.075
    endloop
  endfacet
  facet normal 0.994523 -3.85982e-05 -0.104514
    outer loop
      vertex 1.97803 1.98904 6.86594
      vertex 2 1.98904 7.075
      vertex 1.9563 1.94509 6.65918
    endloop
  endfacet
  facet normal 0.994523 0 -0.104518
    outer loop
      vertex 2 1.98904 7.075
      vertex 1.9563 -1.94509 6.65918
      vertex 1.9563 1.94509 6.65918
    endloop
  endfacet
  facet normal 0.994523 0 -0.104518
    outer loop
      vertex 1.9563 -1.94509 6.65918
      vertex 2 1.98904 7.075
      vertex 2 -1.98904 7.075
    endloop
  endfacet
  facet normal 0.994523 3.85982e-05 -0.104514
    outer loop
      vertex 2 -1.98904 7.075
      vertex 1.97803 -1.98904 6.86594
      vertex 1.9563 -1.94509 6.65918
    endloop
  endfacet
  facet normal 0.866057 -0.000132813 -0.499945
    outer loop
      vertex 1.7194 1.73205 6.075
      vertex 1.82709 1.8151 6.26153
      vertex 1.61803 1.60449 5.89943
    endloop
  endfacet
  facet normal 0.866024 0 -0.500003
    outer loop
      vertex 1.82709 1.8151 6.26153
      vertex 1.61803 -1.60449 5.89943
      vertex 1.61803 1.60449 5.89943
    endloop
  endfacet
  facet normal 0.866024 0 -0.500003
    outer loop
      vertex 1.61803 -1.60449 5.89943
      vertex 1.82709 1.8151 6.26153
      vertex 1.82709 -1.8151 6.26153
    endloop
  endfacet
  facet normal 0.866057 0.000132813 -0.499945
    outer loop
      vertex 1.82709 -1.8151 6.26153
      vertex 1.7194 -1.73205 6.075
      vertex 1.61803 -1.60449 5.89943
    endloop
  endfacet
  facet normal 0.743163 0 -0.66911
    outer loop
      vertex 1.61803 1.60449 5.89943
      vertex 1.48349 1.13002 5.75
      vertex 1.48349 1.49592 5.75
    endloop
  endfacet
  facet normal 0.743163 0 -0.66911
    outer loop
      vertex 1.61803 1.60449 5.89943
      vertex 1.48349 -1.13002 5.75
      vertex 1.48349 1.13002 5.75
    endloop
  endfacet
  facet normal 0.743163 0 -0.66911
    outer loop
      vertex 1.61803 -1.60449 5.89943
      vertex 1.48349 -1.13002 5.75
      vertex 1.61803 1.60449 5.89943
    endloop
  endfacet
  facet normal 0.743163 0 -0.66911
    outer loop
      vertex 1.48349 -1.13002 5.75
      vertex 1.61803 -1.60449 5.89943
      vertex 1.48349 -1.49592 5.75
    endloop
  endfacet
  facet normal 0.951032 0.000209709 -0.309091
    outer loop
      vertex 1.89059 1.90211 6.45697
      vertex 1.9563 1.94509 6.65918
      vertex 1.82709 1.8151 6.26153
    endloop
  endfacet
  facet normal 0.951053 0 -0.309029
    outer loop
      vertex 1.9563 1.94509 6.65918
      vertex 1.82709 -1.8151 6.26153
      vertex 1.82709 1.8151 6.26153
    endloop
  endfacet
  facet normal 0.951053 0 -0.309029
    outer loop
      vertex 1.82709 -1.8151 6.26153
      vertex 1.9563 1.94509 6.65918
      vertex 1.9563 -1.94509 6.65918
    endloop
  endfacet
  facet normal 0.951032 -0.000209709 -0.309091
    outer loop
      vertex 1.9563 -1.94509 6.65918
      vertex 1.89059 -1.90211 6.45697
      vertex 1.82709 -1.8151 6.26153
    endloop
  endfacet
  facet normal -0.000130717 0.913571 -0.40668
    outer loop
      vertex 1.89059 1.90211 6.45697
      vertex 1.82709 1.8151 6.26153
      vertex 1.7194 1.73205 6.075
    endloop
  endfacet
  facet normal 0 0.913549 -0.406729
    outer loop
      vertex 1.7194 1.73205 6.075
      vertex -1.89059 1.90211 6.45697
      vertex 1.89059 1.90211 6.45697
    endloop
  endfacet
  facet normal 0 0.913549 -0.406729
    outer loop
      vertex -1.89059 1.90211 6.45697
      vertex 1.7194 1.73205 6.075
      vertex -1.7194 1.73205 6.075
    endloop
  endfacet
  facet normal 0.000130717 0.913571 -0.40668
    outer loop
      vertex -1.7194 1.73205 6.075
      vertex -1.82709 1.8151 6.26153
      vertex -1.89059 1.90211 6.45697
    endloop
  endfacet
  facet normal -3.60351e-06 0.809016 -0.587787
    outer loop
      vertex 1.7194 1.73205 6.075
      vertex 1.61803 1.60449 5.89943
      vertex 1.09174 1.49592 5.75
    endloop
  endfacet
  facet normal 0 0.809013 -0.587791
    outer loop
      vertex 1.09174 1.49592 5.75
      vertex -1.7194 1.73205 6.075
      vertex 1.7194 1.73205 6.075
    endloop
  endfacet
  facet normal 0 0.809013 -0.587791
    outer loop
      vertex -1.7194 1.73205 6.075
      vertex 1.09174 1.49592 5.75
      vertex -1.09174 1.49592 5.75
    endloop
  endfacet
  facet normal 0 0.80901 -0.587795
    outer loop
      vertex 1.61803 1.60449 5.89943
      vertex 1.48349 1.49592 5.75
      vertex 1.09174 1.49592 5.75
    endloop
  endfacet
  facet normal 3.60351e-06 0.809016 -0.587787
    outer loop
      vertex -1.09174 1.49592 5.75
      vertex -1.61803 1.60449 5.89943
      vertex -1.7194 1.73205 6.075
    endloop
  endfacet
  facet normal 0 0.80901 -0.587795
    outer loop
      vertex -1.09174 1.49592 5.75
      vertex -1.48349 1.49592 5.75
      vertex -1.61803 1.60449 5.89943
    endloop
  endfacet
  facet normal -6.22182e-05 -0.978145 -0.207926
    outer loop
      vertex -1.9563 -1.94509 6.65918
      vertex -1.89059 -1.90211 6.45697
      vertex -1.97803 -1.98904 6.86594
    endloop
  endfacet
  facet normal 0 -0.978147 -0.207913
    outer loop
      vertex -1.89059 -1.90211 6.45697
      vertex 1.97803 -1.98904 6.86594
      vertex -1.97803 -1.98904 6.86594
    endloop
  endfacet
  facet normal 0 -0.978147 -0.207913
    outer loop
      vertex 1.97803 -1.98904 6.86594
      vertex -1.89059 -1.90211 6.45697
      vertex 1.89059 -1.90211 6.45697
    endloop
  endfacet
  facet normal 6.22182e-05 -0.978145 -0.207926
    outer loop
      vertex 1.9563 -1.94509 6.65918
      vertex 1.97803 -1.98904 6.86594
      vertex 1.89059 -1.90211 6.45697
    endloop
  endfacet
  facet normal 0 0.978147 0.207913
    outer loop
      vertex 1.97803 1.98904 7.28406
      vertex -1.96847 1.96971 7.375
      vertex 1.96847 1.96971 7.375
    endloop
  endfacet
  facet normal 0 0.978147 0.207913
    outer loop
      vertex -1.96847 1.96971 7.375
      vertex 1.97803 1.98904 7.28406
      vertex -1.97803 1.98904 7.28406
    endloop
  endfacet
  facet normal 6.22182e-05 0.978145 -0.207926
    outer loop
      vertex 1.97803 1.98904 6.86594
      vertex 1.9563 1.94509 6.65918
      vertex 1.89059 1.90211 6.45697
    endloop
  endfacet
  facet normal 0 0.978147 -0.207913
    outer loop
      vertex 1.89059 1.90211 6.45697
      vertex -1.97803 1.98904 6.86594
      vertex 1.97803 1.98904 6.86594
    endloop
  endfacet
  facet normal 0 0.978147 -0.207913
    outer loop
      vertex -1.97803 1.98904 6.86594
      vertex 1.89059 1.90211 6.45697
      vertex -1.89059 1.90211 6.45697
    endloop
  endfacet
  facet normal -6.22182e-05 0.978145 -0.207926
    outer loop
      vertex -1.89059 1.90211 6.45697
      vertex -1.9563 1.94509 6.65918
      vertex -1.97803 1.98904 6.86594
    endloop
  endfacet
  facet normal 0.000130717 -0.913571 -0.40668
    outer loop
      vertex -1.82709 -1.8151 6.26153
      vertex -1.7194 -1.73205 6.075
      vertex -1.89059 -1.90211 6.45697
    endloop
  endfacet
  facet normal 0 -0.913549 -0.406729
    outer loop
      vertex -1.7194 -1.73205 6.075
      vertex 1.89059 -1.90211 6.45697
      vertex -1.89059 -1.90211 6.45697
    endloop
  endfacet
  facet normal 0 -0.913549 -0.406729
    outer loop
      vertex 1.89059 -1.90211 6.45697
      vertex -1.7194 -1.73205 6.075
      vertex 1.7194 -1.73205 6.075
    endloop
  endfacet
  facet normal -0.000130717 -0.913571 -0.40668
    outer loop
      vertex 1.82709 -1.8151 6.26153
      vertex 1.89059 -1.90211 6.45697
      vertex 1.7194 -1.73205 6.075
    endloop
  endfacet
  facet normal 0 -0.978147 0.207913
    outer loop
      vertex -1.97803 -1.98904 7.28406
      vertex 1.96847 -1.96971 7.375
      vertex -1.96847 -1.96971 7.375
    endloop
  endfacet
  facet normal 0 -0.978147 0.207913
    outer loop
      vertex 1.96847 -1.96971 7.375
      vertex -1.97803 -1.98904 7.28406
      vertex 1.97803 -1.98904 7.28406
    endloop
  endfacet
  facet normal 0 -1 0
    outer loop
      vertex -1.97803 -1.98904 6.86594
      vertex -1.97803 -1.98904 7.28406
      vertex -2 -1.98904 7.075
    endloop
  endfacet
  facet normal 0 -1 0
    outer loop
      vertex -1.97803 -1.98904 7.28406
      vertex -1.97803 -1.98904 6.86594
      vertex 1.97803 -1.98904 7.28406
    endloop
  endfacet
  facet normal 0 -1 0
    outer loop
      vertex 1.97803 -1.98904 6.86594
      vertex 1.97803 -1.98904 7.28406
      vertex -1.97803 -1.98904 6.86594
    endloop
  endfacet
  facet normal 0 -1 0
    outer loop
      vertex 1.97803 -1.98904 7.28406
      vertex 1.97803 -1.98904 6.86594
      vertex 2 -1.98904 7.075
    endloop
  endfacet
  facet normal 3.60351e-06 -0.809016 -0.587787
    outer loop
      vertex -1.61803 -1.60449 5.89943
      vertex -1.09174 -1.49592 5.75
      vertex -1.7194 -1.73205 6.075
    endloop
  endfacet
  facet normal 0 -0.809013 -0.587791
    outer loop
      vertex -1.09174 -1.49592 5.75
      vertex 1.7194 -1.73205 6.075
      vertex -1.7194 -1.73205 6.075
    endloop
  endfacet
  facet normal 0 -0.809013 -0.587791
    outer loop
      vertex 1.7194 -1.73205 6.075
      vertex -1.09174 -1.49592 5.75
      vertex 1.09174 -1.49592 5.75
    endloop
  endfacet
  facet normal 0 -0.80901 -0.587795
    outer loop
      vertex -1.48349 -1.49592 5.75
      vertex -1.09174 -1.49592 5.75
      vertex -1.61803 -1.60449 5.89943
    endloop
  endfacet
  facet normal -3.60351e-06 -0.809016 -0.587787
    outer loop
      vertex 1.61803 -1.60449 5.89943
      vertex 1.7194 -1.73205 6.075
      vertex 1.09174 -1.49592 5.75
    endloop
  endfacet
  facet normal -0 -0.80901 -0.587795
    outer loop
      vertex 1.48349 -1.49592 5.75
      vertex 1.61803 -1.60449 5.89943
      vertex 1.09174 -1.49592 5.75
    endloop
  endfacet
  facet normal 0 1 0
    outer loop
      vertex 1.97803 1.98904 6.86594
      vertex 1.97803 1.98904 7.28406
      vertex 2 1.98904 7.075
    endloop
  endfacet
  facet normal 0 1 0
    outer loop
      vertex 1.97803 1.98904 7.28406
      vertex 1.97803 1.98904 6.86594
      vertex -1.97803 1.98904 7.28406
    endloop
  endfacet
  facet normal 0 1 0
    outer loop
      vertex -1.97803 1.98904 6.86594
      vertex -1.97803 1.98904 7.28406
      vertex 1.97803 1.98904 6.86594
    endloop
  endfacet
  facet normal 0 1 0
    outer loop
      vertex -1.97803 1.98904 7.28406
      vertex -1.97803 1.98904 6.86594
      vertex -2 1.98904 7.075
    endloop
  endfacet
  facet normal -0 0 1
    outer loop
      vertex -1.96847 1.96971 7.375
      vertex 1.96847 -1.96971 7.375
      vertex 1.96847 1.96971 7.375
    endloop
  endfacet
  facet normal 0 0 1
    outer loop
      vertex 1.96847 -1.96971 7.375
      vertex -1.96847 1.96971 7.375
      vertex -1.96847 -1.96971 7.375
    endloop
  endfacet
  facet normal 0 0 -1
    outer loop
      vertex -1.22982 1.45106 5.75
      vertex -1.48349 1.49592 5.75
      vertex -1.09174 1.49592 5.75
    endloop
  endfacet
  facet normal 0 0 -1
    outer loop
      vertex -1.35796 1.35796 5.75
      vertex -1.48349 1.49592 5.75
      vertex -1.22982 1.45106 5.75
    endloop
  endfacet
  facet normal 0 0 -1
    outer loop
      vertex -1.45106 1.22982 5.75
      vertex -1.48349 1.49592 5.75
      vertex -1.35796 1.35796 5.75
    endloop
  endfacet
  facet normal 0 0 -1
    outer loop
      vertex -1.48349 1.49592 5.75
      vertex -1.45106 1.22982 5.75
      vertex -1.48349 1.13002 5.75
    endloop
  endfacet
  facet normal 0 0 -1
    outer loop
      vertex 1.45106 1.22982 5.75
      vertex 1.48349 1.49592 5.75
      vertex 1.48349 1.13002 5.75
    endloop
  endfacet
  facet normal 0 0 -1
    outer loop
      vertex 1.35796 1.35796 5.75
      vertex 1.48349 1.49592 5.75
      vertex 1.45106 1.22982 5.75
    endloop
  endfacet
  facet normal 0 0 -1
    outer loop
      vertex 1.22982 1.45106 5.75
      vertex 1.48349 1.49592 5.75
      vertex 1.35796 1.35796 5.75
    endloop
  endfacet
  facet normal -0 0 -1
    outer loop
      vertex 1.48349 1.49592 5.75
      vertex 1.22982 1.45106 5.75
      vertex 1.09174 1.49592 5.75
    endloop
  endfacet
  facet normal 0 0 -1
    outer loop
      vertex -1.48349 -1.49592 5.75
      vertex -1.22982 -1.45106 5.75
      vertex -1.09174 -1.49592 5.75
    endloop
  endfacet
  facet normal 0 0 -1
    outer loop
      vertex -1.48349 -1.49592 5.75
      vertex -1.35796 -1.35796 5.75
      vertex -1.22982 -1.45106 5.75
    endloop
  endfacet
  facet normal 0 0 -1
    outer loop
      vertex -1.48349 -1.49592 5.75
      vertex -1.45106 -1.22982 5.75
      vertex -1.35796 -1.35796 5.75
    endloop
  endfacet
  facet normal -0 0 -1
    outer loop
      vertex -1.45106 -1.22982 5.75
      vertex -1.48349 -1.49592 5.75
      vertex -1.48349 -1.13002 5.75
    endloop
  endfacet
  facet normal 0 0 -1
    outer loop
      vertex 1.48349 -1.49592 5.75
      vertex 1.45106 -1.22982 5.75
      vertex 1.48349 -1.13002 5.75
    endloop
  endfacet
  facet normal 0 0 -1
    outer loop
      vertex 1.48349 -1.49592 5.75
      vertex 1.35796 -1.35796 5.75
      vertex 1.45106 -1.22982 5.75
    endloop
  endfacet
  facet normal 0 0 -1
    outer loop
      vertex 1.48349 -1.49592 5.75
      vertex 1.22982 -1.45106 5.75
      vertex 1.35796 -1.35796 5.75
    endloop
  endfacet
  facet normal 0 -0 -1
    outer loop
      vertex 1.22982 -1.45106 5.75
      vertex 1.48349 -1.49592 5.75
      vertex 1.09174 -1.49592 5.75
    endloop
  endfacet
  facet normal 0 -1 0
    outer loop
      vertex -7.5 1.5 0
      vertex 7.5 1.5 0.75
      vertex -7.5 1.5 0.75
    endloop
  endfacet
  facet normal 0 -1 -0
    outer loop
      vertex 7.5 1.5 0.75
      vertex -7.5 1.5 0
      vertex 7.5 1.5 0
    endloop
  endfacet
  facet normal 0 1 -0
    outer loop
      vertex 7.5 -1.5 0
      vertex -7.5 -1.5 0.75
      vertex 7.5 -1.5 0.75
    endloop
  endfacet
  facet normal 0 1 0
    outer loop
      vertex -7.5 -1.5 0.75
      vertex 7.5 -1.5 0
      vertex -7.5 -1.5 0
    endloop
  endfacet
  facet normal 0 0 -1
    outer loop
      vertex -7.5 1.49592 0.75
      vertex 7.5 1.5 0.75
      vertex 7.5 1.49592 0.75
    endloop
  endfacet
  facet normal -0 0 -1
    outer loop
      vertex 7.5 1.5 0.75
      vertex -7.5 1.49592 0.75
      vertex -7.5 1.5 0.75
    endloop
  endfacet
  facet normal 0 0 -1
    outer loop
      vertex -7.5 -1.5 0.75
      vertex 7.5 -1.49592 0.75
      vertex 7.5 -1.5 0.75
    endloop
  endfacet
  facet normal -0 0 -1
    outer loop
      vertex 7.5 -1.49592 0.75
      vertex -7.5 -1.5 0.75
      vertex -7.5 -1.49592 0.75
    endloop
  endfacet
  facet normal 0 0.913561 -0.406702
    outer loop
      vertex 7.5 -1.90211 2.69303
      vertex -7.5 -1.8211 2.875
      vertex 7.5 -1.8211 2.875
    endloop
  endfacet
  facet normal 0 0.913561 -0.406702
    outer loop
      vertex -7.5 -1.8211 2.875
      vertex 7.5 -1.90211 2.69303
      vertex -7.5 -1.90211 2.69303
    endloop
  endfacet
  facet normal 0 -0.913549 0.406729
    outer loop
      vertex -7.5 1.73205 1.075
      vertex 7.5 1.90211 1.45697
      vertex -7.5 1.90211 1.45697
    endloop
  endfacet
  facet normal 0 -0.913549 0.406729
    outer loop
      vertex 7.5 1.90211 1.45697
      vertex -7.5 1.73205 1.075
      vertex 7.5 1.73205 1.075
    endloop
  endfacet
  facet normal 0 -0.809013 0.587791
    outer loop
      vertex -7.5 1.49592 0.75
      vertex 7.5 1.73205 1.075
      vertex -7.5 1.73205 1.075
    endloop
  endfacet
  facet normal 0 -0.809013 0.587791
    outer loop
      vertex 7.5 1.73205 1.075
      vertex -7.5 1.49592 0.75
      vertex 7.5 1.49592 0.75
    endloop
  endfacet
  facet normal 0 0.978147 0.207913
    outer loop
      vertex 7.5 -1.90211 1.45697
      vertex -7.5 -1.98904 1.86594
      vertex 7.5 -1.98904 1.86594
    endloop
  endfacet
  facet normal 0 0.978147 0.207913
    outer loop
      vertex -7.5 -1.98904 1.86594
      vertex 7.5 -1.90211 1.45697
      vertex -7.5 -1.90211 1.45697
    endloop
  endfacet
  facet normal 0 -0.978147 -0.207913
    outer loop
      vertex -7.5 1.98904 2.28406
      vertex 7.5 1.90211 2.69303
      vertex -7.5 1.90211 2.69303
    endloop
  endfacet
  facet normal 0 -0.978147 -0.207913
    outer loop
      vertex 7.5 1.90211 2.69303
      vertex -7.5 1.98904 2.28406
      vertex 7.5 1.98904 2.28406
    endloop
  endfacet
  facet normal 0 -0.978147 0.207913
    outer loop
      vertex -7.5 1.90211 1.45697
      vertex 7.5 1.98904 1.86594
      vertex -7.5 1.98904 1.86594
    endloop
  endfacet
  facet normal 0 -0.978147 0.207913
    outer loop
      vertex 7.5 1.98904 1.86594
      vertex -7.5 1.90211 1.45697
      vertex 7.5 1.90211 1.45697
    endloop
  endfacet
  facet normal 0 -0.913561 -0.406702
    outer loop
      vertex -7.5 1.90211 2.69303
      vertex 7.5 1.8211 2.875
      vertex -7.5 1.8211 2.875
    endloop
  endfacet
  facet normal 0 -0.913561 -0.406702
    outer loop
      vertex 7.5 1.8211 2.875
      vertex -7.5 1.90211 2.69303
      vertex 7.5 1.90211 2.69303
    endloop
  endfacet
  facet normal 0 0.913549 0.406729
    outer loop
      vertex 7.5 -1.73205 1.075
      vertex -7.5 -1.90211 1.45697
      vertex 7.5 -1.90211 1.45697
    endloop
  endfacet
  facet normal 0 0.913549 0.406729
    outer loop
      vertex -7.5 -1.90211 1.45697
      vertex 7.5 -1.73205 1.075
      vertex -7.5 -1.73205 1.075
    endloop
  endfacet
  facet normal 0 0.978147 -0.207913
    outer loop
      vertex 7.5 -1.98904 2.28406
      vertex -7.5 -1.90211 2.69303
      vertex 7.5 -1.90211 2.69303
    endloop
  endfacet
  facet normal 0 0.978147 -0.207913
    outer loop
      vertex -7.5 -1.90211 2.69303
      vertex 7.5 -1.98904 2.28406
      vertex -7.5 -1.98904 2.28406
    endloop
  endfacet
  facet normal 0 1 -0
    outer loop
      vertex 7.5 -1.98904 1.86594
      vertex -7.5 -1.98904 2.28406
      vertex 7.5 -1.98904 2.28406
    endloop
  endfacet
  facet normal 0 1 0
    outer loop
      vertex -7.5 -1.98904 2.28406
      vertex 7.5 -1.98904 1.86594
      vertex -7.5 -1.98904 1.86594
    endloop
  endfacet
  facet normal 0 0.809013 0.587791
    outer loop
      vertex 7.5 -1.49592 0.75
      vertex -7.5 -1.73205 1.075
      vertex 7.5 -1.73205 1.075
    endloop
  endfacet
  facet normal 0 0.809013 0.587791
    outer loop
      vertex -7.5 -1.73205 1.075
      vertex 7.5 -1.49592 0.75
      vertex -7.5 -1.49592 0.75
    endloop
  endfacet
  facet normal 0 -1 0
    outer loop
      vertex -7.5 1.98904 1.86594
      vertex 7.5 1.98904 2.28406
      vertex -7.5 1.98904 2.28406
    endloop
  endfacet
  facet normal 0 -1 -0
    outer loop
      vertex 7.5 1.98904 2.28406
      vertex -7.5 1.98904 1.86594
      vertex 7.5 1.98904 1.86594
    endloop
  endfacet
  facet normal 0 0 -1
    outer loop
      vertex -7.5 -1.8211 2.875
      vertex 7.5 1.8211 2.875
      vertex 7.5 -1.8211 2.875
    endloop
  endfacet
  facet normal -0 0 -1
    outer loop
      vertex 7.5 1.8211 2.875
      vertex -7.5 -1.8211 2.875
      vertex -7.5 1.8211 2.875
    endloop
  endfacet
endsolid OpenSCAD_Model
